<svg width="17" height="17" viewBox="0 0 17 17" fill="none" xmlns="http://www.w3.org/2000/svg">
<path d="M0 11.413C0.043856 11.2222 0.0771866 11.0288 0.131568 10.8407C0.32617 10.1497 0.739657 9.54042 1.30996 9.10439C1.88026 8.66836 2.57661 8.42907 3.29447 8.42245C5.31184 8.41412 7.32922 8.41938 9.3466 8.42245C9.74117 8.42411 10.1316 8.50277 10.4961 8.65401C10.4886 8.78865 10.4246 8.8211 10.3031 8.81584C9.55755 8.78251 9.00584 9.10178 8.63175 9.73989C8.4629 10.028 8.29669 10.3179 8.13047 10.6074C7.75536 11.2626 7.76998 11.9092 8.17433 12.5471C8.19757 12.5835 8.21248 12.6559 8.19275 12.6857C7.75419 13.3488 7.75726 14.0185 8.14889 14.6978C8.14889 14.7013 8.14889 14.7079 8.14889 14.736H7.96513C5.53726 14.736 3.10983 14.732 0.6824 14.7408C0.359181 14.7408 0.132445 14.6399 0.00350848 14.3413L0 11.413Z" fill="#5D953C"/>
<path d="M6.64426 0C6.85214 0.043856 7.06309 0.0771866 7.26789 0.133761C8.81514 0.562235 9.90057 2.04808 9.82382 3.62558C9.74006 5.31755 8.54498 6.6898 6.91354 6.96741C5.02159 7.28931 3.18358 6.00872 2.86606 4.14747C2.53363 2.20815 3.77432 0.407423 5.68206 0.0596442C5.78381 0.0412247 5.88511 0.0197352 5.98642 0H6.64426Z" fill="#5D953C"/>
<path d="M12.6225 16.1412C12.4528 16.1412 12.2827 16.1438 12.1129 16.1412C11.8643 16.1363 11.7388 16.0214 11.709 15.7789C11.7029 15.7302 11.6963 15.6816 11.6889 15.6324C11.6612 15.4434 11.6862 15.2193 11.5906 15.075C11.495 14.9307 11.2814 14.8632 11.1135 14.772C11.0626 14.7481 11.0045 14.7446 10.9512 14.7623C10.7569 14.8351 10.567 14.9211 10.3749 14.9996C10.1311 15.0996 9.98022 15.0513 9.84865 14.8281C9.67323 14.5308 9.50117 14.232 9.33247 13.9317C9.21318 13.7208 9.24476 13.5607 9.43509 13.4133C9.59911 13.2853 9.76357 13.1576 9.93373 13.0379C9.96946 13.0185 9.99757 12.9876 10.0135 12.9501C10.0294 12.9127 10.0322 12.871 10.0214 12.8318C9.9975 12.7248 9.99422 12.6142 10.0118 12.5059C10.0482 12.3467 9.99952 12.2538 9.86663 12.1696C9.71651 12.0688 9.5716 11.9605 9.43246 11.845C9.25133 11.7021 9.21625 11.538 9.32896 11.3394C9.50438 11.0292 9.68244 10.721 9.86313 10.4149C9.98066 10.2162 10.1342 10.1667 10.3517 10.2535C10.5499 10.3324 10.7438 10.4228 10.9442 10.4947C11.008 10.5093 11.0748 10.5027 11.1345 10.4758C11.199 10.4509 11.249 10.3838 11.3143 10.3636C11.5981 10.2759 11.6731 10.0689 11.6753 9.80266C11.6808 9.6878 11.6936 9.57341 11.7134 9.46014C11.7415 9.25358 11.8643 9.12771 12.0722 9.12333C12.4443 9.11514 12.817 9.11514 13.19 9.12333C13.4054 9.12771 13.5255 9.2549 13.5536 9.47418C13.5782 9.66977 13.6036 9.86493 13.6238 10.061C13.6339 10.1553 13.6606 10.2259 13.7606 10.261C13.8346 10.2825 13.903 10.32 13.961 10.3706C14.1492 10.5561 14.3391 10.5294 14.5487 10.4105C14.6747 10.3444 14.8056 10.2883 14.9403 10.2425C15.1294 10.1719 15.2886 10.225 15.3925 10.3991C15.5802 10.714 15.764 11.0314 15.9438 11.3512C16.0464 11.5341 16.0126 11.7021 15.8486 11.8336C15.6846 11.9652 15.5113 12.0968 15.3377 12.22C15.3 12.241 15.2704 12.274 15.2537 12.3137C15.2369 12.3535 15.2339 12.3976 15.2451 12.4393C15.2689 12.5576 15.2701 12.6793 15.2486 12.798C15.2197 12.9296 15.2679 12.9976 15.3679 13.0669C15.5302 13.1791 15.6859 13.3006 15.8398 13.4239C16.0126 13.5616 16.0477 13.7265 15.9398 13.9181C15.7612 14.2312 15.579 14.5431 15.3934 14.8536C15.2807 15.0435 15.1237 15.093 14.9158 15.0106C14.7329 14.9378 14.5505 14.8623 14.3724 14.779C14.268 14.7299 14.1843 14.7259 14.0891 14.8036C14.0012 14.8782 13.9018 14.9382 13.7948 14.9812C13.6567 15.0321 13.6233 15.125 13.6133 15.2557C13.5997 15.4412 13.5725 15.6259 13.5466 15.8101C13.5177 16.0144 13.3913 16.1306 13.18 16.139C12.9936 16.146 12.8072 16.139 12.6208 16.139L12.6225 16.1412ZM12.6309 14.0361C12.9086 14.0361 13.1801 13.9537 13.4109 13.7993C13.6418 13.645 13.8217 13.4256 13.9278 13.1689C14.0339 12.9123 14.0615 12.6299 14.007 12.3576C13.9526 12.0853 13.8186 11.8352 13.622 11.6391C13.4254 11.443 13.175 11.3096 12.9025 11.2558C12.63 11.2021 12.3478 11.2304 12.0914 11.3371C11.835 11.4439 11.6161 11.6243 11.4623 11.8556C11.3085 12.0868 11.2268 12.3585 11.2275 12.6362C11.2316 13.0065 11.3809 13.3603 11.6433 13.6216C11.9057 13.883 12.2601 14.0308 12.6304 14.0335L12.6309 14.0361Z" fill="#5D953C"/>
</svg>
