<svg width="31" height="27" viewBox="0 0 31 27" fill="none" xmlns="http://www.w3.org/2000/svg">
<g clip-path="url(#clip0_55_59)">
<path d="M0 14.8043C0.24263 14.4793 0.655101 14.3893 1.22124 14.3893C10.7647 14.3943 20.3081 14.3943 29.8516 14.3943C30.6846 14.3943 31 14.5893 31 15.1043C31 15.7793 31 16.4493 31 17.1243C31 17.5393 30.6361 17.7593 29.9729 17.7593C20.3324 17.7593 10.6838 17.7593 1.04331 17.7643C0.525698 17.7643 0.218367 17.6143 0.00808766 17.3493C0 16.4993 0 15.6543 0 14.8043Z" fill="#808080"/>
<path d="M0 22.0308C0.24263 21.7058 0.655101 21.6158 1.22124 21.6158C10.7647 21.6208 20.3081 21.6208 29.8516 21.6208C30.6846 21.6208 31 21.8158 31 22.3308C31 23.0058 31 23.6758 31 24.3508C31 24.7658 30.6361 24.9858 29.9729 24.9858C20.3324 24.9858 10.6838 24.9858 1.04331 24.9908C0.525698 24.9908 0.218367 24.8408 0.00808766 24.5758C0 23.7258 0 22.8758 0 22.0308Z" fill="#808080"/>
<path d="M0 0.66174C0.153666 0.48626 0.27498 0.262921 0.460997 0.135299C0.808766 -0.103992 1.16462 -0.000299161 1.5043 0.207087C3.37255 1.30783 5.24889 2.40857 7.11714 3.5093C8.20897 4.14741 9.30081 4.7935 10.3846 5.43161C11.161 5.88626 11.161 6.66795 10.3846 7.1226C7.42447 8.86145 4.46439 10.6083 1.51239 12.3471C0.86538 12.73 0.412471 12.5864 0.00808766 11.8925C0 8.14358 0 4.40266 0 0.66174Z" fill="#808080"/>
<path d="M21.95 0.00793457C24.6027 0.00793457 27.2555 0.00793457 29.9082 0.00793457C30.6604 0.00793457 31.0001 0.218246 31.0001 0.678929C31.0001 1.35994 31.0001 2.04095 31.0001 2.72196C31.0001 3.16261 30.6523 3.38294 29.9487 3.38294C24.5946 3.38294 19.2406 3.38294 13.8866 3.38294C13.1991 3.38294 12.8433 3.16261 12.8433 2.74199C12.8433 2.04095 12.8433 1.34492 12.8433 0.643877C12.8433 0.233268 13.2072 0.012942 13.8785 0.012942C16.5636 0.00793457 19.2568 0.00793457 21.95 0.00793457Z" fill="#808080"/>
<path d="M21.95 7.16773C24.6027 7.16773 27.2555 7.16773 29.9082 7.16773C30.6604 7.16773 31.0001 7.37804 31.0001 7.83872C31.0001 8.52474 31.0001 9.21075 31.0001 9.89677C31.0001 10.3124 30.6361 10.5377 29.981 10.5377C24.6027 10.5377 19.2325 10.5377 13.8542 10.5377C13.2072 10.5377 12.8433 10.3124 12.8433 9.91179C12.8433 9.20575 12.8433 8.4997 12.8433 7.79365C12.8433 7.38305 13.2072 7.16272 13.8785 7.16272C16.5636 7.16773 19.2568 7.16773 21.95 7.16773Z" fill="#808080"/>
</g>
<defs>
<clipPath id="clip0_55_59">
<rect width="31" height="27" fill="white"/>
</clipPath>
</defs>
</svg>
