<svg width="16" height="16" viewBox="0 0 16 16" fill="none" xmlns="http://www.w3.org/2000/svg">
<path d="M13.8434 15.9998H1.5357C1.20939 15.9994 0.896533 15.8697 0.665794 15.6389C0.435054 15.4082 0.305274 15.0953 0.304932 14.769V6.15362C0.305274 5.82731 0.435054 5.51445 0.665794 5.28371C0.896533 5.05297 1.20939 4.92319 1.5357 4.92285H13.8434C14.1697 4.92319 14.4826 5.05297 14.7133 5.28371C14.944 5.51445 15.0738 5.82731 15.0742 6.15362V14.769C15.0738 15.0953 14.944 15.4082 14.7133 15.6389C14.4826 15.8697 14.1697 15.9994 13.8434 15.9998Z" fill="#AECA9D"/>
<path d="M5.84351 8V12.9231L10.1512 10.4615L5.84351 8Z" fill="white"/>
<path d="M13.8436 2.46191H1.53589V3.69268H13.8436V2.46191Z" fill="#AECA9D"/>
<path d="M12.6125 0H2.76636V1.23077H12.6125V0Z" fill="#AECA9D"/>
</svg>
