<svg width="15" height="16" viewBox="0 0 15 16" fill="none" xmlns="http://www.w3.org/2000/svg">
<path d="M4.60316 0C6.9304 0 9.25063 0 11.5779 0C12.1737 0.169106 12.37 0.55935 12.363 1.1187C12.3489 5.14472 12.356 9.17073 12.356 13.1967C12.356 13.8406 11.9774 14.1919 11.2835 14.1919C7.96084 14.1919 4.63821 14.1919 1.31559 14.1919C0.614611 14.1919 0.236084 13.8406 0.236084 13.1837C0.236084 10.1984 0.236084 7.21301 0.236084 4.23415C0.236084 4.17561 0.243094 4.12358 0.243094 4.05203C0.334221 4.05203 0.404318 4.05203 0.474416 4.05203C1.35764 4.05203 2.23386 4.05854 3.11709 4.05203C3.27131 4.05203 3.43253 4.04553 3.57974 4.0065C4.21763 3.85041 4.58914 3.38862 4.59615 2.76423C4.60316 1.84065 4.60316 0.923577 4.60316 0ZM6.4958 8.22114C5.48639 8.22114 4.47699 8.22114 3.46758 8.22114C3.35543 8.22114 3.24327 8.21463 3.13111 8.22114C2.94886 8.23415 2.77362 8.37073 2.73156 8.53333C2.68249 8.70244 2.75259 8.89106 2.92783 8.97561C3.03298 9.02764 3.15915 9.05366 3.27832 9.05366C5.4233 9.06016 7.56829 9.06016 9.71327 9.05366C9.78337 9.05366 9.84646 9.05366 9.91656 9.04065C10.1479 8.99512 10.2951 8.81301 10.2741 8.59837C10.26 8.37724 10.0568 8.22114 9.78337 8.22114C8.68284 8.22114 7.58932 8.22114 6.4958 8.22114ZM6.48879 6.79024C7.47716 6.79024 8.46554 6.79024 9.45391 6.79024C9.5871 6.79024 9.72028 6.79675 9.86048 6.78374C10.0427 6.77724 10.1619 6.67967 10.239 6.53008C10.3091 6.3935 10.2881 6.25691 10.1899 6.13333C10.0638 5.97073 9.88852 5.95122 9.69925 5.95122C7.56829 5.95122 5.43732 5.95122 3.29935 5.95122C3.22925 5.95122 3.16616 5.95122 3.09606 5.96423C2.77362 6.00976 2.61239 6.34146 2.79464 6.59512C2.89979 6.74472 3.05401 6.79024 3.24327 6.79024C4.32277 6.78374 5.40227 6.79024 6.48879 6.79024ZM4.83448 11.187C5.37423 11.187 5.91399 11.187 6.44673 11.187C6.76918 11.187 6.97246 10.9659 6.92339 10.6927C6.88834 10.4846 6.69207 10.348 6.41168 10.348C5.35321 10.348 4.29473 10.348 3.22925 10.348C2.9068 10.348 2.69651 10.5236 2.70352 10.7772C2.71053 11.0244 2.91381 11.187 3.22925 11.187C3.769 11.187 4.30174 11.187 4.83448 11.187Z" fill="#AECA9D"/>
<path d="M2.23409 14.6927C2.23409 14.8162 2.23409 14.9268 2.23409 15.0309C2.23409 15.6423 2.61963 16 3.27854 16C6.61519 16 9.95884 16 13.2955 16C13.9544 16 14.3469 15.6423 14.3469 15.0309C14.3469 10.9463 14.3469 6.86176 14.3469 2.77721C14.3469 2.62111 14.3189 2.4455 14.2488 2.30892C13.9965 1.84063 13.5548 1.74306 12.8959 1.83412C12.8959 1.89916 12.8959 1.9642 12.8959 2.03575C12.8959 5.74957 12.8959 9.46339 12.8959 13.1772C12.8959 13.4309 12.8749 13.678 12.7417 13.9057C12.4403 14.4455 11.9496 14.6927 11.3047 14.6927C8.3536 14.6927 5.4025 14.6927 2.44438 14.6927C2.38129 14.6927 2.31821 14.6927 2.23409 14.6927ZM4.06364 1.62599C4.06364 1.23575 4.05663 0.845503 4.06364 0.455259C4.06364 0.266641 4.00055 0.123552 3.81128 0.052007C3.62202 -0.0195377 3.4608 0.045503 3.32761 0.175584C2.35326 1.07315 1.38591 1.97071 0.411554 2.87477C0.278368 2.99835 0.208271 3.13493 0.278368 3.31054C0.355476 3.49266 0.5167 3.55119 0.705963 3.55119C1.54012 3.55119 2.38129 3.5577 3.21546 3.55119C3.74119 3.54469 4.05663 3.2325 4.05663 2.74469C4.06364 2.37396 4.06364 1.99672 4.06364 1.62599Z" fill="white"/>
<path d="M2.23413 14.6924C2.31825 14.6924 2.38134 14.6924 2.45143 14.6924C5.40254 14.6924 8.35365 14.6924 11.3118 14.6924C11.9567 14.6924 12.4473 14.4452 12.7488 13.9054C12.8749 13.6778 12.903 13.4306 12.903 13.1769C12.903 9.46312 12.903 5.74929 12.903 2.03547C12.903 1.97043 12.903 1.89889 12.903 1.83384C13.5619 1.74929 14.0035 1.84035 14.2559 2.30864C14.326 2.44523 14.354 2.62084 14.354 2.77693C14.361 6.86149 14.361 10.946 14.354 15.0306C14.354 15.642 13.9615 15.9997 13.3025 15.9997C9.96589 15.9997 6.62224 15.9997 3.28559 15.9997C2.62668 15.9997 2.24114 15.642 2.24114 15.0306C2.23413 14.9265 2.23413 14.816 2.23413 14.6924Z" fill="#AECA9D"/>
<path d="M4.06347 1.62663C4.06347 2.00387 4.06347 2.3746 4.06347 2.75184C4.06347 3.23964 3.74102 3.55184 3.22229 3.55834C2.38813 3.56485 1.54696 3.55834 0.7128 3.55834C0.516527 3.55834 0.362312 3.4998 0.285204 3.31769C0.215107 3.14208 0.285204 3.0055 0.41839 2.88192C1.38574 1.97135 2.35308 1.07379 3.32744 0.169725C3.46764 0.0396436 3.62886 -0.025397 3.81111 0.0461476C3.99337 0.117692 4.06347 0.267286 4.06347 0.449399C4.05646 0.839643 4.06347 1.23639 4.06347 1.62663Z" fill="#AECA9D"/>
</svg>
