<svg width="14" height="14" viewBox="0 0 14 14" fill="none" xmlns="http://www.w3.org/2000/svg">
<path d="M3.25164 6.50205C2.68813 6.50205 2.1288 6.50205 1.5653 6.50205C0.646989 6.50205 0.00417412 5.85526 0 4.9414C0 3.81889 0 2.69222 0 1.56971C0 0.651679 0.646989 0.00905569 1.56112 0.00488281C2.68396 0.00488281 3.81097 0.00488281 4.93381 0.00488281C5.85212 0.00488281 6.49493 0.647506 6.49911 1.56554C6.49911 2.68804 6.49911 3.81472 6.49911 4.93722C6.49911 5.85526 5.85212 6.49788 4.93798 6.50205C4.37448 6.50205 3.81515 6.50205 3.25164 6.50205Z" fill="#AECA9D"/>
<path d="M14.0001 3.26292C14.0001 3.82626 14.0001 4.38543 14.0001 4.94876C13.9959 5.85428 13.3489 6.4969 12.4431 6.50107C11.312 6.50107 10.1849 6.50107 9.05375 6.50107C8.14797 6.50107 7.50515 5.85011 7.50098 4.94042C7.50098 3.81792 7.50098 2.69124 7.50098 1.56873C7.50098 0.642356 8.14797 0.00390625 9.07462 0.00390625C10.1891 0.00390625 11.3036 0.00390625 12.4181 0.00390625C13.3656 0.00390625 14.0001 0.642356 14.0001 1.59377C14.0001 2.14876 14.0001 2.70376 14.0001 3.26292Z" fill="#AECA9D"/>
<path d="M3.25581 7.49805C3.81932 7.49805 4.37865 7.49805 4.94216 7.49805C5.84794 7.50222 6.49911 8.14484 6.49911 9.05036C6.50328 10.1812 6.49911 11.3079 6.49911 12.4387C6.49911 13.3484 5.85212 13.9952 4.94633 13.9952C3.81515 13.9952 2.68813 13.9952 1.55695 13.9952C0.651163 13.9952 0 13.3484 0 12.4429C0 11.3121 0 10.1854 0 9.05453C0 8.14484 0.646989 7.49805 1.55277 7.49805C2.12045 7.49805 2.68813 7.49805 3.25581 7.49805Z" fill="#AECA9D"/>
<path d="M7.50099 10.732C7.49681 8.95856 8.95775 7.5064 10.7484 7.49806C12.5266 7.49388 13.9959 8.95439 14.0001 10.732C14.0043 12.5264 12.5517 13.9952 10.7651 13.9952C8.95358 13.9952 7.50516 12.5514 7.50099 10.732Z" fill="#AECA9D"/>
</svg>
