<svg width="11" height="12" viewBox="0 0 11 12" fill="none" xmlns="http://www.w3.org/2000/svg">
<path d="M0.259672 11.9996C0.0512346 11.9034 -0.00407787 11.7381 0.000297133 11.5159C0.0418596 9.36245 1.68373 7.4487 3.80405 7.10151C4.06993 7.06011 4.33842 7.03755 4.60748 7.03401C5.08373 7.02338 5.56061 7.01682 6.03655 7.03401C7.84373 7.10088 9.16592 7.95776 10.0312 9.52901C10.3719 10.1474 10.52 10.8231 10.5497 11.5274C10.559 11.7462 10.4928 11.9056 10.2909 11.9996H0.259672Z" fill="#5D953C"/>
<path d="M5.5331 0C5.77216 0.051875 6.01779 0.0840625 6.24997 0.158438C7.62654 0.600313 8.54591 1.95719 8.43372 3.36469C8.31435 4.86469 7.23779 6.04875 5.78185 6.28531C5.35607 6.35437 4.92066 6.33559 4.5024 6.23013C4.08414 6.12467 3.69188 5.93477 3.34973 5.67209C3.00759 5.40942 2.72279 5.07953 2.51287 4.70271C2.30294 4.32589 2.17232 3.91011 2.12904 3.48094C1.9531 1.75844 3.2106 0.203438 4.92716 0.0203125C4.95764 0.0153327 4.9878 0.00854994 5.01748 0L5.5331 0Z" fill="#5D953C"/>
</svg>
