<svg width="19" height="19" viewBox="0 0 19 19" fill="none" xmlns="http://www.w3.org/2000/svg">
<g clip-path="url(#clip0_2_541)">
<path d="M15.1609 18.9639C15.1699 18.8739 15.1789 18.793 15.1789 18.7031C15.1789 13.4968 15.1789 8.28143 15.1789 3.07508C15.1789 2.99416 15.1789 2.92222 15.1789 2.81432C16.1253 3.75847 17.0537 4.68464 17.964 5.59283C18.3336 5.22416 18.6761 4.88247 19.0096 4.54976C17.4863 3.03912 15.9541 1.51948 14.4399 -0.000164032C12.9256 1.51048 11.3934 3.03912 9.87012 4.55876C10.1946 4.88247 10.5371 5.22416 10.8886 5.57485C11.799 4.66666 12.7183 3.74049 13.6467 2.81432C13.6647 2.82331 13.6737 2.82331 13.6917 2.8323C13.6917 2.91323 13.6917 2.98516 13.6917 3.06609C13.6917 8.27243 13.6917 13.4878 13.6917 18.6941C13.6917 18.784 13.7008 18.865 13.7098 18.9549C14.1965 18.9639 14.6742 18.9639 15.1609 18.9639Z" fill="#5D953C"/>
<path d="M0.000224219 11.1412C0.0543039 11.1322 0.108384 11.1143 0.162463 11.1143C2.33466 11.1143 4.50686 11.1143 6.67907 11.1143C6.70611 11.1143 6.72413 11.1143 6.77821 11.1232C6.77821 11.42 6.7692 11.7077 6.77821 12.0045C6.78722 12.2023 6.72413 12.3462 6.58893 12.499C5.18286 14.1176 3.77679 15.7541 2.37072 17.3727C2.33466 17.4086 2.30762 17.4536 2.26256 17.5165C3.75876 17.5165 5.21891 17.5165 6.68808 17.5165C6.68808 18.0201 6.68808 18.4966 6.68808 19.0002C6.61597 19.0002 6.55288 19.0002 6.48077 19.0002C4.38969 19.0002 2.29861 19.0002 0.20753 19.0002C0.135423 19.0002 0.0633172 18.9822 -0.00878906 18.9732C-0.00878906 18.6045 -0.00878906 18.2269 -0.00878906 17.8582C1.49643 16.1138 3.00165 14.3693 4.54292 12.5889C2.99263 12.5889 1.49643 12.5889 -0.00878906 12.5889C0.000224219 12.1034 0.000224219 11.6268 0.000224219 11.1412Z" fill="#5D953C"/>
<path d="M3.94842 0C4.29994 0.998107 4.64244 1.99621 4.99396 2.99432C5.53476 4.54993 6.07556 6.11453 6.60734 7.67014C6.62536 7.73308 6.6524 7.79602 6.67944 7.89494C6.46313 7.89494 6.27385 7.89494 6.08457 7.89494C5.81417 7.89494 5.53476 7.88594 5.26436 7.89494C5.14719 7.89494 5.09311 7.85897 5.04804 7.74207C4.9489 7.43635 4.84975 7.13062 4.73258 6.83389C4.71455 6.77993 4.62442 6.71699 4.57034 6.71699C3.76816 6.708 2.96598 6.71699 2.17281 6.708C2.06465 6.708 2.01958 6.75296 1.99254 6.85187C1.8934 7.1576 1.78524 7.46332 1.66806 7.76006C1.65004 7.81401 1.58694 7.88594 1.54188 7.88594C1.05516 7.89494 0.568444 7.89494 0.0546875 7.89494C0.072714 7.823 0.0907406 7.76905 0.108767 7.7151C1.00108 5.17037 1.8934 2.62565 2.79472 0.0719356C2.80374 0.0449598 2.81275 0.0269759 2.82176 0C3.20032 0 3.57888 0 3.94842 0ZM2.56939 5.21533C3.1192 5.21533 3.64197 5.21533 4.18277 5.21533C3.91237 4.44203 3.66 3.69569 3.39861 2.94936C3.3896 2.94936 3.37157 2.95835 3.36256 2.95835C3.10117 3.70469 2.83979 4.45102 2.56939 5.21533Z" fill="#5D953C"/>
</g>
<defs>
<clipPath id="clip0_2_541">
<rect width="19" height="19" fill="white"/>
</clipPath>
</defs>
</svg>
