<svg width="15" height="16" viewBox="0 0 15 16" fill="none" xmlns="http://www.w3.org/2000/svg">
<path d="M4.36708 0C6.69432 0 9.01455 0 11.3418 0C11.9376 0.169106 12.1339 0.55935 12.1269 1.1187C12.1129 5.14472 12.1199 9.17073 12.1199 13.1967C12.1199 13.8406 11.7413 14.1919 11.0474 14.1919C7.72475 14.1919 4.40213 14.1919 1.0795 14.1919C0.378527 14.1919 0 13.8406 0 13.1837C0 10.1984 0 7.21301 0 4.23415C0 4.17561 0.00700976 4.12358 0.00700976 4.05203C0.0981366 4.05203 0.168234 4.05203 0.238332 4.05203C1.12156 4.05203 1.99778 4.05854 2.88101 4.05203C3.03522 4.05203 3.19645 4.04553 3.34365 4.0065C3.98154 3.85041 4.35306 3.38862 4.36007 2.76423C4.36708 1.84065 4.36708 0.923577 4.36708 0ZM6.25971 8.22114C5.25031 8.22114 4.2409 8.22114 3.2315 8.22114C3.11934 8.22114 3.00719 8.21463 2.89503 8.22114C2.71278 8.23415 2.53753 8.37073 2.49547 8.53333C2.4464 8.70244 2.5165 8.89106 2.69175 8.97561C2.79689 9.02764 2.92307 9.05366 3.04223 9.05366C5.18722 9.06016 7.3322 9.06016 9.47719 9.05366C9.54729 9.05366 9.61038 9.05366 9.68047 9.04065C9.9118 8.99512 10.059 8.81301 10.038 8.59837C10.024 8.37724 9.82067 8.22114 9.54729 8.22114C8.44676 8.22114 7.35323 8.22114 6.25971 8.22114ZM6.2527 6.79024C7.24108 6.79024 8.22945 6.79024 9.21783 6.79024C9.35101 6.79024 9.4842 6.79675 9.6244 6.78374C9.80665 6.77724 9.92581 6.67967 10.0029 6.53008C10.073 6.3935 10.052 6.25691 9.95385 6.13333C9.82768 5.97073 9.65243 5.95122 9.46317 5.95122C7.3322 5.95122 5.20124 5.95122 3.06326 5.95122C2.99317 5.95122 2.93008 5.95122 2.85998 5.96423C2.53753 6.00976 2.37631 6.34146 2.55856 6.59512C2.66371 6.74472 2.81792 6.79024 3.00719 6.79024C4.08669 6.78374 5.16619 6.79024 6.2527 6.79024ZM4.5984 11.187C5.13815 11.187 5.6779 11.187 6.21064 11.187C6.53309 11.187 6.73638 10.9659 6.68731 10.6927C6.65226 10.4846 6.45599 10.348 6.17559 10.348C5.11712 10.348 4.05865 10.348 2.99317 10.348C2.67072 10.348 2.46042 10.5236 2.46743 10.7772C2.47444 11.0244 2.67773 11.187 2.99317 11.187C3.53292 11.187 4.06566 11.187 4.5984 11.187Z" fill="#AECA9D"/>
<path d="M1.99801 14.6927C1.99801 14.8162 1.99801 14.9268 1.99801 15.0309C1.99801 15.6423 2.38354 16 3.04246 16C6.3791 16 9.72275 16 13.0594 16C13.7183 16 14.1109 15.6423 14.1109 15.0309C14.1109 10.9463 14.1109 6.86176 14.1109 2.77721C14.1109 2.62111 14.0828 2.4455 14.0127 2.30892C13.7604 1.84063 13.3188 1.74306 12.6598 1.83412C12.6598 1.89916 12.6598 1.9642 12.6598 2.03575C12.6598 5.74957 12.6598 9.46339 12.6598 13.1772C12.6598 13.4309 12.6388 13.678 12.5056 13.9057C12.2042 14.4455 11.7135 14.6927 11.0686 14.6927C8.11752 14.6927 5.16641 14.6927 2.2083 14.6927C2.14521 14.6927 2.08212 14.6927 1.99801 14.6927ZM3.82755 1.62599C3.82755 1.23575 3.82054 0.845503 3.82755 0.455259C3.82755 0.266641 3.76446 0.123552 3.5752 0.052007C3.38594 -0.0195377 3.22471 0.045503 3.09153 0.175584C2.11717 1.07315 1.14983 1.97071 0.17547 2.87477C0.0422845 2.99835 -0.0278131 3.13493 0.0422845 3.31054C0.119392 3.49266 0.280616 3.55119 0.469879 3.55119C1.30404 3.55119 2.14521 3.5577 2.97937 3.55119C3.5051 3.54469 3.82054 3.2325 3.82054 2.74469C3.82755 2.37396 3.82755 1.99672 3.82755 1.62599Z" fill="white"/>
<path d="M1.99805 14.6934C2.08216 14.6934 2.14525 14.6934 2.21535 14.6934C5.16646 14.6934 8.11757 14.6934 11.0757 14.6934C11.7206 14.6934 12.2113 14.4462 12.5127 13.9064C12.6389 13.6787 12.6669 13.4316 12.6669 13.1779C12.6669 9.4641 12.6669 5.75027 12.6669 2.03645C12.6669 1.97141 12.6669 1.89986 12.6669 1.83482C13.3258 1.75027 13.7674 1.84133 14.0198 2.30962C14.0899 2.4462 14.1179 2.62181 14.1179 2.77791C14.1249 6.86247 14.1249 10.947 14.1179 15.0316C14.1179 15.643 13.7254 16.0007 13.0665 16.0007C9.72981 16.0007 6.38616 16.0007 3.04951 16.0007C2.39059 16.0007 2.00506 15.643 2.00506 15.0316C1.99805 14.9275 1.99805 14.8169 1.99805 14.6934Z" fill="#AECA9D"/>
<path d="M3.82738 1.62566C3.82738 2.00289 3.82738 2.37363 3.82738 2.75086C3.82738 3.23867 3.50493 3.55086 2.98621 3.55736C2.15205 3.56387 1.31088 3.55736 0.476716 3.55736C0.280443 3.55736 0.126228 3.49883 0.0491204 3.31671C-0.0209772 3.1411 0.0491204 3.00452 0.182306 2.88094C1.14965 1.97037 2.117 1.07281 3.09136 0.168748C3.23155 0.038667 3.39278 -0.0263736 3.57503 0.0451711C3.75728 0.116716 3.82738 0.266309 3.82738 0.448423C3.82037 0.838667 3.82738 1.23541 3.82738 1.62566Z" fill="#AECA9D"/>
</svg>
