<svg width="18" height="18" viewBox="0 0 18 18" fill="none" xmlns="http://www.w3.org/2000/svg">
<g clip-path="url(#clip0_55_8)">
<path d="M6.55805 9.93049C6.55805 9.70501 6.37516 9.52234 6.14949 9.52234H4.72377C4.49836 9.52234 4.31543 9.70501 4.31543 9.93049V11.356C4.31543 11.5818 4.49836 11.7646 4.72377 11.7646H6.14949C6.37516 11.7646 6.55805 11.5818 6.55805 11.356V9.93049Z" fill="#5D953C"/>
<path d="M10.1212 9.93049C10.1212 9.70501 9.93826 9.52234 9.71303 9.52234H8.28712C8.06172 9.52234 7.87878 9.70501 7.87878 9.93049V11.356C7.87878 11.5818 8.06172 11.7646 8.28712 11.7646H9.71303C9.93826 11.7646 10.1212 11.5818 10.1212 11.356V9.93049Z" fill="#5D953C"/>
<path d="M13.6844 9.93049C13.6844 9.70501 13.5015 9.52234 13.2761 9.52234H11.8503C11.6247 9.52234 11.4418 9.70501 11.4418 9.93049V11.356C11.4418 11.5818 11.6247 11.7646 11.8503 11.7646H13.2761C13.5015 11.7646 13.6844 11.5818 13.6844 11.356V9.93049Z" fill="#5D953C"/>
<path d="M6.55805 13.4939C6.55805 13.2681 6.37516 13.0856 6.14949 13.0856H4.72377C4.49836 13.0856 4.31543 13.2681 4.31543 13.4939V14.9192C4.31543 15.1449 4.49836 15.3276 4.72377 15.3276H6.14949C6.37516 15.3276 6.55805 15.1448 6.55805 14.9192V13.4939Z" fill="#5D953C"/>
<path d="M10.1212 13.4939C10.1212 13.2681 9.93826 13.0856 9.71303 13.0856H8.28712C8.06172 13.0856 7.87878 13.2681 7.87878 13.4939V14.9192C7.87878 15.1449 8.06172 15.3276 8.28712 15.3276H9.71303C9.93826 15.3276 10.1212 15.1448 10.1212 14.9192V13.4939Z" fill="#5D953C"/>
<path d="M13.6844 13.4939C13.6844 13.2681 13.5015 13.0856 13.2762 13.0856H11.8503C11.6247 13.0856 11.4418 13.2681 11.4418 13.4939V14.9192C11.4418 15.1449 11.6247 15.3276 11.8503 15.3276H13.2762C13.5015 15.3276 13.6844 15.1448 13.6844 14.9192V13.4939Z" fill="#5D953C"/>
<path d="M16.2338 2.00428V4.18167C16.2338 5.16583 15.4354 5.95891 14.4514 5.95891H13.327C12.3429 5.95891 11.5339 5.16583 11.5339 4.18167V1.99646H6.46597V4.18167C6.46597 5.16583 5.65704 5.95891 4.6731 5.95891H3.54849C2.56451 5.95891 1.76616 5.16583 1.76616 4.18167V2.00428C0.906148 2.0302 0.199463 2.74183 0.199463 3.61651V16.3771C0.199463 17.2682 0.921746 18.0001 1.81287 18.0001H16.187C17.0768 18.0001 17.8004 17.2667 17.8004 16.3771V3.61651C17.8004 2.74183 17.0938 2.0302 16.2338 2.00428ZM15.7115 15.5825C15.7115 15.9676 15.3993 16.28 15.014 16.28H2.95515C2.56989 16.28 2.25765 15.9676 2.25765 15.5825V8.99116C2.25765 8.6059 2.56986 8.29347 2.95515 8.29347H15.014C15.3992 8.29347 15.7115 8.6059 15.7115 8.99116L15.7115 15.5825Z" fill="#5D953C"/>
<path d="M3.54452 4.79156H4.65671C4.99428 4.79156 5.268 4.51825 5.268 4.18067V0.611109C5.268 0.273493 4.99428 0 4.65671 0H3.54452C3.2069 0 2.93323 0.273493 2.93323 0.611109V4.18067C2.93323 4.51825 3.2069 4.79156 3.54452 4.79156Z" fill="#5D953C"/>
<path d="M13.3127 4.79156H14.4249C14.7622 4.79156 15.0359 4.51825 15.0359 4.18067V0.611109C15.036 0.273493 14.7623 0 14.4249 0H13.3127C12.9751 0 12.7014 0.273493 12.7014 0.611109V4.18067C12.7014 4.51825 12.9751 4.79156 13.3127 4.79156Z" fill="#5D953C"/>
</g>
<defs>
<clipPath id="clip0_55_8">
<rect width="18" height="18" fill="white"/>
</clipPath>
</defs>
</svg>
