<svg width="17" height="16" viewBox="0 0 17 16" fill="none" xmlns="http://www.w3.org/2000/svg">
<path opacity="0.5" d="M14.2667 1.6H12.6667V0.8C12.6667 0.587827 12.5825 0.384344 12.4324 0.234315C12.2824 0.0842854 12.0789 0 11.8667 0C11.6546 0 11.4511 0.0842854 11.3011 0.234315C11.151 0.384344 11.0667 0.587827 11.0667 0.8V1.6H6.26675V0.8C6.26675 0.587827 6.18246 0.384344 6.03243 0.234315C5.8824 0.0842854 5.67892 0 5.46675 0C5.25457 0 5.05109 0.0842854 4.90106 0.234315C4.75103 0.384344 4.66675 0.587827 4.66675 0.8V1.6H3.06675C2.43023 1.6 1.81978 1.85286 1.36969 2.30294C0.919605 2.75303 0.666748 3.36348 0.666748 4V13.6C0.666748 14.2365 0.919605 14.847 1.36969 15.2971C1.81978 15.7471 2.43023 16 3.06675 16H14.2667C14.9033 16 15.5137 15.7471 15.9638 15.2971C16.4139 14.847 16.6667 14.2365 16.6667 13.6V4C16.6667 3.36348 16.4139 2.75303 15.9638 2.30294C15.5137 1.85286 14.9033 1.6 14.2667 1.6ZM15.0667 6.4H2.26675V4C2.26675 3.78783 2.35103 3.58434 2.50106 3.43431C2.65109 3.28429 2.85457 3.2 3.06675 3.2H4.66675V4C4.66675 4.21217 4.75103 4.41566 4.90106 4.56569C5.05109 4.71571 5.25457 4.8 5.46675 4.8C5.67892 4.8 5.8824 4.71571 6.03243 4.56569C6.18246 4.41566 6.26675 4.21217 6.26675 4V3.2H11.0667V4C11.0667 4.21217 11.151 4.41566 11.3011 4.56569C11.4511 4.71571 11.6546 4.8 11.8667 4.8C12.0789 4.8 12.2824 4.71571 12.4324 4.56569C12.5825 4.41566 12.6667 4.21217 12.6667 4V3.2H14.2667C14.4789 3.2 14.6824 3.28429 14.8324 3.43431C14.9825 3.58434 15.0667 3.78783 15.0667 4V6.4Z" fill="#5D953C"/>
</svg>
