<svg width="13" height="16" viewBox="0 0 13 16" fill="none" xmlns="http://www.w3.org/2000/svg">
<path d="M10.72 16H1.28254C1.22462 15.9813 1.16712 15.9583 1.10837 15.9442C0.470452 15.7721 0.00628581 15.1983 0.00461914 14.5367C-0.00121419 12.1783 -0.00121419 9.82 0.00461914 7.46167C0.00846395 7.11451 0.135435 6.78 0.362908 6.51773C0.590381 6.25546 0.903581 6.08247 1.2467 6.02958C1.49004 5.99125 1.74087 5.99958 2.00087 5.98792V5.81583C2.00087 5.18583 1.99545 4.55583 2.00087 3.92583C2.02087 2.25583 3.13004 0.737083 4.71712 0.2175C5.02129 0.11875 5.34212 0.07125 5.65504 0H6.34254C6.42379 0.0141667 6.50504 0.0283333 6.58629 0.0416667C8.60712 0.375 10 2.01708 10 4.065C10 4.65333 10 5.24167 10 5.83V6C10.1955 6 10.3671 5.99667 10.5384 6C11.3346 6.02 11.9934 6.66375 11.9967 7.45833C12.0048 9.81667 12.0048 12.175 11.9967 14.5333C11.9967 15.15 11.5921 15.6929 11.0117 15.9033C10.9167 15.9417 10.818 15.9692 10.72 16ZM3.34504 5.99125H8.6467C8.6467 5.20792 8.6467 4.43375 8.6467 3.65792C8.64346 3.61583 8.63705 3.57404 8.62753 3.53292C8.40837 2.1425 7.00629 1.12833 5.62129 1.35833C4.2642 1.58333 3.34587 2.65625 3.33879 4.02958C3.33587 4.63375 3.33879 5.23792 3.33879 5.84125C3.33754 5.89042 3.3417 5.93625 3.3442 5.99125H3.34504ZM5.33754 11.9833C5.33754 12.0454 5.33754 12.1083 5.33754 12.1704C5.33754 12.3525 5.33212 12.535 5.3417 12.7171C5.35275 12.885 5.42755 13.0423 5.55078 13.1569C5.67401 13.2714 5.83637 13.3345 6.00462 13.3333C6.34754 13.3308 6.64879 13.0646 6.65879 12.725C6.67253 12.2621 6.66879 11.7983 6.66254 11.3354C6.65734 11.2802 6.66742 11.2247 6.69167 11.1749C6.71592 11.1251 6.75341 11.0829 6.80003 11.0529C7.03761 10.8796 7.20964 10.631 7.28822 10.3476C7.36681 10.0642 7.34733 9.76261 7.23295 9.49167C7.126 9.23468 6.94131 9.0176 6.70476 8.87088C6.46821 8.72416 6.19167 8.65515 5.91393 8.67353C5.63618 8.69191 5.37115 8.79675 5.15599 8.97336C4.94084 9.14997 4.78636 9.38949 4.7142 9.65833C4.64327 9.91409 4.65263 10.1855 4.74101 10.4357C4.8294 10.686 4.99255 10.903 5.20837 11.0575C5.25363 11.0854 5.29003 11.1256 5.31334 11.1734C5.33665 11.2212 5.3459 11.2746 5.34004 11.3275C5.33337 11.5458 5.33754 11.7646 5.33754 11.9833Z" fill="#5D953C"/>
</svg>
