<svg width="20" height="19" viewBox="0 0 20 19" fill="none" xmlns="http://www.w3.org/2000/svg">
<g clip-path="url(#clip0_2_546)">
<path d="M15.1697 0C15.1787 0.0899195 15.1877 0.170847 15.1877 0.260767C15.1877 5.46711 15.1877 10.6824 15.1877 15.8888C15.1877 15.9697 15.1877 16.0416 15.1877 16.1496C16.1341 15.2054 17.0625 14.2792 17.9728 13.371C18.3424 13.7397 18.6849 14.0814 19.0184 14.4141C17.4951 15.9248 15.9629 17.4444 14.4486 18.964C12.9344 17.4534 11.4022 15.9248 9.87891 14.4051C10.2034 14.0814 10.5459 13.7397 10.8974 13.389C11.8077 14.2972 12.7271 15.2234 13.6555 16.1496C13.6735 16.1406 13.6825 16.1406 13.7005 16.1316C13.7005 16.0506 13.7005 15.9787 13.7005 15.8978C13.7005 10.6914 13.7005 5.4761 13.7005 0.269759C13.7005 0.179839 13.7096 0.0989115 13.7186 0.00899195C14.2053 0 14.683 0 15.1697 0Z" fill="#5D953C"/>
<path d="M0.00901328 11.1412C0.063093 11.1322 0.117173 11.1143 0.171252 11.1143C2.34345 11.1143 4.51565 11.1143 6.68785 11.1143C6.71489 11.1143 6.73292 11.1143 6.787 11.1232C6.787 11.42 6.77799 11.7077 6.787 12.0045C6.79601 12.2023 6.73292 12.3462 6.59772 12.499C5.19165 14.1176 3.78558 15.7541 2.37951 17.3727C2.34345 17.4086 2.31641 17.4536 2.27135 17.5165C3.76755 17.5165 5.2277 17.5165 6.69687 17.5165C6.69687 18.0201 6.69687 18.4966 6.69687 19.0002C6.62476 19.0002 6.56167 19.0002 6.48956 19.0002C4.39848 19.0002 2.3074 19.0002 0.216319 19.0002C0.144212 19.0002 0.0721062 18.9822 0 18.9732C0 18.6045 0 18.2269 0 17.8582C1.50522 16.1138 3.01044 14.3693 4.55171 12.5889C3.00142 12.5889 1.50522 12.5889 0 12.5889C0.00901328 12.1034 0.00901328 11.6268 0.00901328 11.1412Z" fill="#5D953C"/>
<path d="M3.95721 0C4.30873 0.998107 4.65123 1.99621 5.00275 2.99432C5.54355 4.54993 6.08434 6.11453 6.61613 7.67014C6.63415 7.73308 6.66119 7.79602 6.68823 7.89494C6.47191 7.89494 6.28264 7.89494 6.09336 7.89494C5.82296 7.89494 5.54355 7.88594 5.27315 7.89494C5.15598 7.89494 5.1019 7.85897 5.05683 7.74207C4.95768 7.43635 4.85854 7.13062 4.74137 6.83389C4.72334 6.77993 4.63321 6.71699 4.57913 6.71699C3.77695 6.708 2.97476 6.71699 2.1816 6.708C2.07344 6.708 2.02837 6.75296 2.00133 6.85187C1.90218 7.1576 1.79403 7.46332 1.67685 7.76006C1.65883 7.81401 1.59573 7.88594 1.55067 7.88594C1.06395 7.89494 0.577233 7.89494 0.0634766 7.89494C0.0815031 7.823 0.0995297 7.76905 0.117556 7.7151C1.00987 5.17037 1.90218 2.62565 2.80351 0.0719356C2.81253 0.0449598 2.82154 0.0269759 2.83055 0C3.20911 0 3.58767 0 3.95721 0ZM2.57818 5.21533C3.12799 5.21533 3.65076 5.21533 4.19156 5.21533C3.92116 4.44203 3.66879 3.69569 3.4074 2.94936C3.39839 2.94936 3.38036 2.95835 3.37135 2.95835C3.10996 3.70469 2.84858 4.45102 2.57818 5.21533Z" fill="#5D953C"/>
</g>
<defs>
<clipPath id="clip0_2_546">
<rect width="19.0184" height="19.0002" fill="white"/>
</clipPath>
</defs>
</svg>
