<svg width="19" height="16" viewBox="0 0 19 16" fill="none" xmlns="http://www.w3.org/2000/svg">
<path d="M4.70605 12.7054V15.058H7.05867L16.9413 5.17601L14.5887 2.8234L4.70605 12.7054ZM18.7607 3.35666C19.0054 3.11198 19.0054 2.71675 18.7607 2.47207L17.2927 1.00404C17.048 0.75937 16.6528 0.75937 16.4081 1.00404L15.26 2.15212L17.6126 4.50473L18.7607 3.35666Z" fill="#C0C0C0"/>
<path fill-rule="evenodd" clip-rule="evenodd" d="M3.93788 11.5838C3.85547 11.5272 3.77431 11.4683 3.69419 11.4075L1.91341 12.1227C1.74949 12.1749 1.56321 12.1227 1.4738 11.9588L0.0432113 9.4851C-0.0387495 9.33608 -0.00149469 9.1349 0.132623 9.03059L1.64517 7.85333C1.60792 7.6298 1.59302 7.38392 1.59302 7.15294C1.59302 6.92196 1.62282 6.67608 1.66007 6.45255L0.147525 5.27529C-0.0014947 5.17098 -0.0312985 4.97725 0.0581132 4.82078L1.48125 2.34706C1.57066 2.18314 1.75694 2.12353 1.92086 2.18314L3.70164 2.89843C4.06674 2.62275 4.46909 2.37686 4.9087 2.19804L5.17694 0.30549C5.20674 0.126667 5.34831 0 5.52713 0H8.38831C8.56713 0 8.71615 0.126667 8.74596 0.30549L9.01419 2.19804C9.4538 2.37686 9.8487 2.61529 10.2212 2.89843L12.002 2.18314C12.166 2.13098 12.3522 2.18314 12.4416 2.34706L12.7102 2.81145L9.42297 6.09869C9.01132 5.14357 8.0593 4.47059 6.95772 4.47059C5.48243 4.47059 4.27537 5.67765 4.27537 7.15294C4.27537 8.25452 4.94834 9.20654 5.90346 9.61819L3.93788 11.5838Z" fill="#C0C0C0"/>
</svg>
