<svg width="18" height="20" viewBox="0 0 18 20" fill="none" xmlns="http://www.w3.org/2000/svg">
<g clip-path="url(#clip0_1041_4645)">
<path d="M3.96065 9.13489C3.96065 9.01886 3.96065 8.92526 3.96065 8.83166C3.96065 6.81221 3.96449 4.7934 3.95808 2.77396C3.95616 2.22967 4.12605 1.76872 4.53956 1.40843C4.84087 1.14686 5.19347 1.00325 5.59287 1.00261C7.81234 0.999408 10.0318 0.997485 12.2513 1.0071C12.3795 1.0071 12.5385 1.07506 12.6295 1.16609C14.1489 2.67202 15.6587 4.18757 17.1736 5.69863C17.296 5.82108 17.3448 5.95827 17.3448 6.1288C17.3428 9.83881 17.3461 13.5482 17.3416 17.2582C17.3403 18.2795 16.6146 18.993 15.5933 18.9936C12.3 18.9956 9.0067 18.984 5.71404 19.0007C4.79215 19.0052 3.92218 18.2936 3.96001 17.2447C3.96578 17.0793 3.96065 16.9133 3.96065 16.7248C3.84076 16.7248 3.75422 16.7248 3.66703 16.7248C3.1144 16.7248 2.56114 16.7312 2.00852 16.7229C1.42127 16.7139 1.00649 16.3055 1.00456 15.7183C0.998152 13.8591 0.997511 12.0006 1.00456 10.1414C1.00649 9.54391 1.42704 9.14259 2.03224 9.13618C2.57717 9.13105 3.1221 9.13489 3.66703 9.13489C3.75422 9.13489 3.84076 9.13489 3.96065 9.13489ZM16.6543 6.34806C16.5331 6.34806 16.446 6.34806 16.3588 6.34806C15.5016 6.34806 14.6432 6.32305 13.7867 6.35447C12.8225 6.39037 11.9551 5.64478 11.9859 4.56838C12.0109 3.69585 11.991 2.8214 11.9904 1.94823C11.9904 1.8636 11.9827 1.77898 11.9782 1.6841H11.7352C9.74011 1.6841 7.74439 1.695 5.7493 1.67769C5.14283 1.67256 4.63572 2.09632 4.64341 2.7855C4.66457 4.81264 4.65047 6.84042 4.65111 8.86756C4.65111 8.95218 4.6588 9.03617 4.66329 9.13489C4.79471 9.13489 4.89793 9.13489 5.00114 9.13489C7.20458 9.13489 9.40867 9.13361 11.6121 9.13553C12.2417 9.13553 12.6731 9.52468 12.6763 10.1279C12.6853 11.9948 12.6834 13.8623 12.677 15.7292C12.6757 16.185 12.3974 16.5588 11.9916 16.6716C11.8474 16.7113 11.6916 16.7222 11.5409 16.7222C9.3452 16.7254 7.14945 16.7242 4.95434 16.7242C4.86139 16.7242 4.76779 16.7242 4.65303 16.7242C4.65303 16.9627 4.64662 17.1691 4.65431 17.3755C4.67034 17.7999 4.95627 18.1589 5.36977 18.2647C5.49992 18.298 5.63839 18.3077 5.77302 18.3077C9.02657 18.3102 12.2795 18.3096 15.533 18.3096C15.5971 18.3096 15.6613 18.3115 15.7254 18.3064C16.1331 18.275 16.4896 18.007 16.5985 17.6249C16.6415 17.4736 16.6524 17.3088 16.6524 17.1499C16.6556 13.6399 16.6543 10.1305 16.6543 6.62052C16.6543 6.54167 16.6543 6.46281 16.6543 6.34806ZM6.86288 9.82471C5.29348 9.82471 3.72344 9.82471 2.15404 9.82471C1.76554 9.82471 1.69246 9.89844 1.69182 10.2889C1.69182 12.0506 1.69182 13.813 1.69182 15.5747C1.69182 15.9625 1.76554 16.035 2.15789 16.035C5.2813 16.035 8.40471 16.035 11.5281 16.035C11.9166 16.035 11.9904 15.9606 11.9904 15.5708C11.9904 13.8091 11.9904 12.0467 11.9904 10.285C11.9904 9.89715 11.9166 9.82535 11.5243 9.82535C9.97026 9.82535 8.41689 9.82471 6.86288 9.82471ZM12.6898 2.26429C12.6872 2.30403 12.6802 2.36494 12.6802 2.4252C12.6795 3.15348 12.6776 3.88241 12.6802 4.61069C12.6827 5.25756 13.0834 5.66016 13.7284 5.66337C14.465 5.66657 15.2016 5.66465 15.9376 5.66337C15.9946 5.66337 16.0517 5.65183 16.0728 5.64991C14.9471 4.52414 13.8188 3.39454 12.6898 2.26429Z" fill="#5D953C" stroke="#5D953C" stroke-width="0.5" stroke-linejoin="round"/>
<path d="M8.29504 13.9017C8.41685 13.7568 8.52327 13.6299 8.63867 13.4921C8.92396 13.7094 9.22078 13.8581 9.57339 13.8402C9.65929 13.8357 9.76187 13.8319 9.82534 13.7851C9.89906 13.7306 9.98112 13.6286 9.98048 13.5479C9.98048 13.4696 9.89586 13.3574 9.81892 13.3209C9.66955 13.2497 9.49966 13.2222 9.33939 13.1735C9.1945 13.1299 9.04769 13.0888 8.90601 13.035C8.6111 12.9221 8.42583 12.7157 8.41621 12.3894C8.40659 12.0586 8.54763 11.7996 8.83677 11.6329C9.09705 11.4829 9.38362 11.4534 9.67468 11.4919C9.98817 11.5329 10.2779 11.64 10.535 11.8791C10.4325 12.0214 10.3324 12.1599 10.2459 12.2798C10.0446 12.1919 9.87598 12.099 9.69519 12.0464C9.5689 12.0092 9.42465 12.0099 9.29259 12.0253C9.1586 12.0406 9.05346 12.124 9.03743 12.2727C9.0214 12.4176 9.11436 12.4965 9.23617 12.5368C9.39516 12.5901 9.55864 12.6285 9.71955 12.6766C9.85739 12.7176 9.99651 12.7561 10.1299 12.8087C10.4209 12.9234 10.6113 13.1222 10.6184 13.4536C10.6254 13.796 10.4921 14.0793 10.1773 14.2159C9.96381 14.3082 9.71699 14.355 9.48299 14.362C9.04384 14.3761 8.65598 14.2114 8.29504 13.9011V13.9017Z" fill="#5D953C"/>
<path d="M4.07152 12.9334C3.74072 12.4757 3.41504 12.0243 3.05795 11.5307C3.30798 11.5307 3.50544 11.5217 3.70097 11.5365C3.75803 11.541 3.82278 11.6038 3.86253 11.6557C4.05229 11.9032 4.23436 12.1564 4.43631 12.4308C4.62222 12.1801 4.80429 11.9506 4.96649 11.7076C5.05689 11.5724 5.15754 11.5108 5.32102 11.5256C5.46334 11.539 5.60759 11.5281 5.81209 11.5281C5.45565 12.0134 5.12805 12.4609 4.79147 12.9193C5.12292 13.3751 5.45052 13.8252 5.81145 14.3214C5.56271 14.3214 5.36589 14.3323 5.171 14.315C5.10689 14.3092 5.03573 14.2413 4.99085 14.1829C4.80622 13.9419 4.62992 13.6938 4.42926 13.4187C4.25808 13.6495 4.08371 13.8553 3.94331 14.0816C3.82214 14.2772 3.6734 14.3554 3.44966 14.3246C3.34004 14.3098 3.2272 14.322 3.05347 14.322C3.40927 13.8361 3.73623 13.3886 4.0696 12.9321L4.07152 12.9334Z" fill="#5D953C"/>
<path d="M8.09761 13.7657V14.3074H6.1333V11.5469H6.71798V13.7657H8.09761Z" fill="#5D953C"/>
</g>
<defs>
<clipPath id="clip0_1041_4645">
<rect width="18" height="20" fill="white"/>
</clipPath>
</defs>
</svg>
