<svg width="17" height="16" viewBox="0 0 17 16" fill="#FFFFFF" xmlns="http://www.w3.org/2000/svg">
<g clip-path="url(#clip0_1629_10272)">
<path d="M0 2.22451C0.11975 1.9636 0.328202 1.87073 0.612053 1.87515C1.15758 1.88842 1.70754 1.87957 2.2575 1.87957C2.66554 1.87957 2.83407 2.04762 2.83407 2.45005C2.83407 6.46995 2.83407 10.4943 2.83407 14.5142C2.83407 15.4119 2.19984 16.031 1.33055 15.9957C0.731803 15.9691 0.199583 15.5269 0.0443517 14.9255C0.0354813 14.8857 0.0177407 14.8459 0.00443517 14.8016C0 10.6137 0 6.42131 0 2.22451Z" fill="#FFFFFF"/>
<path d="M3.29077 16C3.73872 15.4207 3.78308 14.7794 3.78308 14.1205C3.77421 9.623 3.77864 5.12991 3.77864 0.632394C3.77864 0.561636 3.77864 0.486457 3.78308 0.415699C3.80082 0.199005 3.97379 0.026534 4.19111 0.00442233C4.25764 0 4.32417 0 4.39069 0C8.39122 0 12.3917 0 16.3878 0C16.441 0 16.4987 0 16.5519 0.00442233C16.7959 0.0221117 16.9733 0.199005 16.991 0.437811C16.9954 0.477612 16.991 0.512991 16.991 0.552792C16.991 4.90879 16.991 9.26921 16.991 13.6252C16.991 14.7573 16.2415 15.6949 15.1415 15.9425C14.9774 15.9779 14.8 15.9956 14.6315 15.9956C10.9104 16 7.18485 16 3.46374 16C3.42383 16 3.37947 16 3.29077 16ZM10.387 6.5937C11.4382 6.5937 12.4893 6.58485 13.5404 6.59812C14.0106 6.60254 14.1658 6.34605 14.1614 6.11609C14.1569 5.8817 14.0017 5.63847 13.5493 5.6429C11.4426 5.65174 9.33591 5.64732 7.2292 5.64732C7.16711 5.64732 7.10502 5.64732 7.04736 5.65174C6.79455 5.6827 6.61715 5.87728 6.61271 6.11609C6.60828 6.35931 6.79456 6.55832 7.05623 6.58928C7.11832 6.59812 7.17598 6.5937 7.23807 6.5937C8.28477 6.5937 9.33591 6.5937 10.387 6.5937ZM10.3737 3.76341C11.4249 3.76341 12.476 3.76341 13.5271 3.76341C13.6025 3.76341 13.6824 3.76341 13.7578 3.75456C14.0328 3.71918 14.2102 3.45826 14.1481 3.1885C14.0948 2.9497 13.9086 2.82145 13.6114 2.82145C11.4648 2.82145 9.31817 2.82145 7.17598 2.82145C7.12719 2.82145 7.07397 2.82145 7.02518 2.82587C6.71472 2.86567 6.52844 3.18408 6.64819 3.46711C6.74577 3.69707 6.93648 3.76341 7.17154 3.76341C8.24042 3.76341 9.30486 3.76341 10.3737 3.76341ZM10.3737 12.2366C11.4249 12.2366 12.476 12.2366 13.5271 12.2366C13.6025 12.2366 13.6824 12.2366 13.7578 12.2278C14.0328 12.1924 14.2102 11.9315 14.1481 11.6617C14.0948 11.4362 13.9174 11.2991 13.6602 11.2991C11.4737 11.2991 9.29155 11.2991 7.10502 11.2991C7.07841 11.2991 7.04736 11.2991 7.02075 11.3035C6.79899 11.3344 6.62602 11.5113 6.60828 11.7324C6.59054 11.9359 6.72359 12.1481 6.92318 12.2056C7.01631 12.2322 7.11832 12.2366 7.2159 12.2366C8.27147 12.2366 9.3226 12.2366 10.3737 12.2366ZM10.3915 9.41072C11.4426 9.41072 12.4937 9.41072 13.5449 9.41072C13.6114 9.41072 13.6779 9.41515 13.7445 9.4063C13.9707 9.38419 14.1392 9.21172 14.1614 8.98176C14.1835 8.76949 14.0461 8.55721 13.8376 8.49972C13.7533 8.47761 13.6646 8.47319 13.5759 8.47319C11.4515 8.47319 9.32704 8.47319 7.20703 8.47319C7.15824 8.47319 7.10945 8.47319 7.05623 8.47761C6.8123 8.4953 6.63045 8.6722 6.61271 8.911C6.59497 9.13212 6.7502 9.34881 6.9764 9.39746C7.0518 9.41515 7.13163 9.41072 7.20703 9.41072C8.26703 9.41072 9.33147 9.41072 10.3915 9.41072Z" fill="#FFFFFF"/>
</g>
<defs>
<clipPath id="clip0_1629_10272">
<rect width="17" height="16" fill="white"/>
</clipPath>
</defs>
</svg>
