<svg width="17" height="17" viewBox="0 0 17 17" fill="none" xmlns="http://www.w3.org/2000/svg">
<path d="M0.00321691 1.87884C0.128676 1.59215 0.340993 1.5 0.633732 1.5C4.18198 1.50683 7.73346 1.50341 11.2817 1.50341C11.7224 1.50341 11.8897 1.6843 11.8897 2.15529C11.8897 4.75939 11.8897 7.36689 11.8897 9.97099C11.8897 10.4556 11.7256 10.6297 11.2721 10.6297C7.7238 10.6297 4.17233 10.6263 0.624081 10.6331C0.328125 10.6331 0.115809 10.5375 0 10.2372C0.00321691 7.45563 0.00321691 4.66724 0.00321691 1.87884ZM0.974724 9.59898C4.29458 9.59898 7.60156 9.59898 10.915 9.59898C10.915 7.24061 10.915 4.88908 10.915 2.54096C7.59513 2.54096 4.28493 2.54096 0.974724 2.54096C0.974724 4.8959 0.974724 7.2372 0.974724 9.59898Z" fill="#5D953C"/>
<path d="M16.4736 15.122C16.3417 15.4155 16.123 15.5009 15.8238 15.5009C12.2852 15.494 8.74982 15.4974 5.21122 15.4974C4.7512 15.4974 4.58714 15.32 4.58392 14.8285C4.58392 14.5896 4.58392 14.3541 4.58392 14.0913C4.66756 14.0913 4.73512 14.0913 4.80267 14.0913C7.99707 14.0913 11.1915 14.0913 14.3859 14.0913C14.611 14.0913 14.8105 14.0401 14.9649 13.8558C15.0936 13.7022 15.1257 13.5179 15.1257 13.3166C15.1225 11.0742 15.1257 8.83532 15.1257 6.593C15.1257 6.52474 15.1257 6.45648 15.1257 6.38481C15.4667 6.38481 15.7949 6.36775 16.123 6.39164C16.3096 6.40529 16.3964 6.58959 16.4704 6.75682C16.4736 9.54864 16.4736 12.337 16.4736 15.122Z" fill="#5D953C"/>
<path d="M2.28064 11.6582C2.37715 11.6582 2.4447 11.6582 2.51547 11.6582C5.68735 11.6582 8.86244 11.6582 12.0343 11.6582C12.1212 11.6582 12.2048 11.6582 12.2917 11.6479C12.5812 11.6172 12.8064 11.3851 12.8482 11.078C12.8611 10.9892 12.8611 10.8971 12.8611 10.8049C12.8611 8.59334 12.8611 6.38173 12.8611 4.17013C12.8611 4.09846 12.8611 4.02678 12.8611 3.94487C13.1763 3.94487 13.4691 3.92439 13.7618 3.9517C14.0031 3.97218 14.1575 4.18719 14.1671 4.44658C14.1703 4.49095 14.1671 4.53873 14.1671 4.5831C14.1671 7.19743 14.1671 9.81518 14.1671 12.4295C14.1671 12.8903 13.9966 13.0712 13.5656 13.0712C10.0077 13.0712 6.44976 13.0712 2.88864 13.0712C2.45435 13.0712 2.28386 12.8903 2.28386 12.4329C2.28064 12.1804 2.28064 11.9312 2.28064 11.6582Z" fill="#5D953C"/>
<path d="M9.94972 8.57664C7.27003 8.57664 4.61286 8.57664 1.94604 8.57664C1.94604 6.9077 1.94604 5.24217 1.94604 3.56641C4.60643 3.56641 7.27325 3.56641 9.94972 3.56641C9.94972 5.22852 9.94972 6.89405 9.94972 8.57664Z" fill="#5D953C"/>
</svg>
