<svg width="20" height="17" viewBox="0 0 20 17" fill="none" xmlns="http://www.w3.org/2000/svg">
<path d="M0.00024414 0.460019C0.152588 0.111897 0.4104 0 0.765869 0C5.07446 0.00828864 9.38696 0.00414432 13.6956 0.00414432C14.2307 0.00414432 14.4338 0.223793 14.4338 0.795709C14.4338 3.95783 14.4338 7.12408 14.4338 10.2862C14.4338 10.8747 14.2346 11.0861 13.6838 11.0861C9.37524 11.0861 5.06274 11.0819 0.75415 11.0902C0.394775 11.0902 0.136963 10.9742 -0.00366211 10.6095C0.00024414 7.23184 0.00024414 3.84593 0.00024414 0.460019ZM1.17993 9.83447C5.21118 9.83447 9.22681 9.83447 13.2502 9.83447C13.2502 6.97075 13.2502 4.11531 13.2502 1.26402C9.21899 1.26402 5.19946 1.26402 1.17993 1.26402C1.17993 4.1236 1.17993 6.9666 1.17993 9.83447Z" fill="#919195"/>
<path d="M20 16.54C19.8398 16.8964 19.5742 17 19.2109 17C14.9141 16.9917 10.6211 16.9959 6.32422 16.9959C5.76562 16.9959 5.56641 16.7803 5.5625 16.1836C5.5625 15.8935 5.5625 15.6075 5.5625 15.2884C5.66406 15.2884 5.74609 15.2884 5.82813 15.2884C9.70703 15.2884 13.5859 15.2884 17.4648 15.2884C17.7383 15.2884 17.9805 15.2262 18.168 15.0024C18.3242 14.8159 18.3633 14.5921 18.3633 14.3476C18.3594 11.6248 18.3633 8.90613 18.3633 6.18331C18.3633 6.10043 18.3633 6.01754 18.3633 5.93051C18.7773 5.93051 19.1758 5.90979 19.5742 5.9388C19.8008 5.95538 19.9062 6.17917 19.9961 6.38224C20 9.7723 20 13.1582 20 16.54Z" fill="#919195"/>
<path d="M3 12.3751C3.11719 12.3751 3.19922 12.3751 3.28516 12.3751C7.13672 12.3751 10.9922 12.3751 14.8437 12.3751C14.9492 12.3751 15.0508 12.3751 15.1562 12.3627C15.5078 12.3254 15.7812 12.0436 15.832 11.6706C15.8477 11.5628 15.8477 11.4509 15.8477 11.339C15.8477 8.65351 15.8477 5.968 15.8477 3.28248C15.8477 3.19545 15.8477 3.10842 15.8477 3.00895C16.2305 3.00895 16.5859 2.98409 16.9414 3.01724C17.2344 3.04211 17.4219 3.3032 17.4336 3.61817C17.4375 3.67204 17.4336 3.73006 17.4336 3.78394C17.4336 6.95849 17.4336 10.1372 17.4336 13.3117C17.4336 13.8712 17.2266 14.0909 16.7031 14.0909C12.3828 14.0909 8.0625 14.0909 3.73828 14.0909C3.21094 14.0909 3.00391 13.8712 3.00391 13.3159C3 13.0092 3 12.7067 3 12.3751Z" fill="#919195"/>
<path d="M12.0781 8.59534C8.82422 8.59534 5.59766 8.59534 2.35938 8.59534C2.35938 6.56876 2.35938 4.54634 2.35938 2.51147C5.58984 2.51147 8.82812 2.51147 12.0781 2.51147C12.0781 4.52976 12.0781 6.55219 12.0781 8.59534Z" fill="#919195"/>
</svg>
