<svg width="18" height="18" viewBox="0 0 18 18" fill="none" xmlns="http://www.w3.org/2000/svg">
<path d="M0 17.5071C0.15501 17.1925 0.450939 17.2536 0.737474 17.2489C0.742171 17.1691 0.746868 17.1033 0.746868 17.0329C0.746868 15.7747 0.746868 14.5118 0.746868 13.2536C0.746868 12.8639 0.864301 12.7465 1.24948 12.7465C1.91649 12.7465 2.58351 12.7465 3.25522 12.7465C3.6357 12.7465 3.75313 12.8639 3.75313 13.2536C3.75313 14.5118 3.75313 15.7747 3.75313 17.0329C3.75313 17.094 3.75313 17.1597 3.75313 17.2348C4.25574 17.2348 4.73956 17.2348 5.24687 17.2348C5.24687 17.155 5.24687 17.0846 5.24687 17.0094C5.24687 14.5118 5.24687 12.0188 5.24687 9.52118C5.24687 9.10803 5.3596 8.99535 5.78236 8.99535C6.44468 8.99535 7.10699 8.99535 7.76931 8.99535C8.12161 8.99535 8.25313 9.12681 8.25313 9.48362C8.25313 11.986 8.25313 14.4883 8.25313 16.9907C8.25313 17.0658 8.25313 17.1409 8.25313 17.2348C8.75104 17.2348 9.23956 17.2348 9.74687 17.2348C9.74687 17.155 9.74687 17.0799 9.74687 17.0048C9.74687 15.0141 9.74687 13.0188 9.74687 11.0282C9.74687 10.6057 9.85491 10.4977 10.2777 10.4977C10.9353 10.4977 11.5882 10.4977 12.2458 10.4977C12.631 10.4977 12.7531 10.6151 12.7531 11.0001C12.7531 13.0001 12.7531 14.9954 12.7531 16.9954C12.7531 17.0705 12.7531 17.1456 12.7531 17.2348C13.251 17.2348 13.7302 17.2348 14.2375 17.2348C14.2422 17.1644 14.2469 17.094 14.2469 17.0188C14.2469 13.5353 14.2469 10.047 14.2469 6.56343C14.2469 6.49301 14.2422 6.42258 14.2516 6.35216C14.2751 6.14089 14.4113 6.00474 14.6227 6.00474C15.3742 6.00005 16.1211 6.00005 16.8727 6.00474C17.0887 6.00474 17.2203 6.1362 17.2484 6.34746C17.2578 6.41789 17.2531 6.48831 17.2531 6.55873C17.2531 10.0376 17.2531 13.5165 17.2531 17.0001C17.2531 17.0752 17.2531 17.1503 17.2531 17.2536C17.3847 17.2536 17.4974 17.2489 17.6148 17.2536C17.845 17.263 18 17.4179 18 17.6245C18 17.831 17.8403 17.986 17.6148 18.0001C17.5819 18.0001 17.5444 18.0001 17.5115 18.0001C11.8372 18.0001 6.16754 18.0001 0.493215 18.0048C0.263048 18.0048 0.0939457 17.939 0 17.7184C0 17.6479 0 17.5775 0 17.5071Z" fill="#919195"/>
<path d="M15.9614 5.61592e-05C16.0507 0.0282251 16.1399 0.0470045 16.2292 0.0798683C17.0324 0.347474 17.4599 1.25358 17.1499 2.04231C16.8351 2.84512 15.9145 3.22071 15.1347 2.85451C15.0267 2.80287 14.9656 2.81226 14.8811 2.89677C14.1436 3.64324 13.4014 4.38503 12.6593 5.12212C12.5794 5.20193 12.5512 5.25357 12.6076 5.37094C12.8847 5.9531 12.7579 6.61977 12.3023 7.06578C11.8513 7.50709 11.1843 7.61507 10.6112 7.34747C10.0382 7.07517 9.70467 6.48362 9.77043 5.84043C9.77512 5.81226 9.77043 5.78409 9.77043 5.74653C9.22085 5.58691 8.67596 5.43198 8.13107 5.28174C8.0935 5.27235 8.01834 5.30521 7.99016 5.33808C7.403 6.07047 6.6937 6.19254 5.85289 5.69489C5.09663 6.30052 4.33097 6.90615 3.56531 7.52118C3.74851 7.88268 3.80487 8.24887 3.70153 8.63385C3.47606 9.46953 2.59297 9.94371 1.78034 9.66671C0.948925 9.38033 0.535564 8.47423 0.869071 7.67611C1.20258 6.87798 2.12794 6.52118 2.903 6.90146C3.01573 6.9578 3.08149 6.9531 3.18014 6.87329C3.89882 6.29113 4.6269 5.71836 5.35028 5.1409C5.35968 5.13151 5.36437 5.12212 5.34089 5.15498C5.3174 4.84512 5.26103 4.56343 5.28922 4.29113C5.35968 3.55874 6.0126 3.00005 6.75947 2.99536C7.50633 2.99066 8.15926 3.55404 8.24381 4.29583C8.2626 4.48362 8.32836 4.55874 8.51155 4.60569C9.00477 4.73245 9.48859 4.88268 9.9818 5.01414C10.0382 5.02822 10.1274 5.01883 10.165 4.98597C10.7475 4.44606 11.2689 4.35686 11.9969 4.6855C12.0063 4.69019 12.0204 4.69019 12.0439 4.69489C12.3445 4.39442 12.6499 4.08456 12.9552 3.7794C13.4296 3.30522 13.9087 2.82634 14.3832 2.35217C14.4489 2.29113 14.4771 2.24419 14.4301 2.14559C14.0027 1.21602 14.4959 0.248882 15.4964 0.0235303C15.5199 0.0188355 15.5387 0.00475099 15.5575 -0.00463867C15.6843 5.61592e-05 15.8252 5.61592e-05 15.9614 5.61592e-05Z" fill="#919195"/>
</svg>
