<svg width="118" height="86" viewBox="0 0 118 86" fill="none" xmlns="http://www.w3.org/2000/svg">
<g clip-path="url(#clip0_1771_21822)">
<path d="M58.9988 0C77.0138 0 95.0256 0.00738134 113.034 0.022144C113.961 0.0113726 114.881 0.192258 115.736 0.553601C117.166 1.2007 117.968 2.40878 117.988 4.05236C117.988 4.25657 117.988 4.46079 117.988 4.66501C117.988 30.2225 117.988 55.7783 117.988 81.3325C117.988 83.7659 116.868 85.3308 114.726 85.8696C114.29 85.9658 113.844 86.008 113.398 85.9951C77.1271 85.9951 40.8542 85.9951 4.57957 85.9951C1.66998 85.9951 -0.00976562 84.2728 -0.00976562 81.3325C-0.00324552 55.78 1.45296e-05 30.2274 1.45296e-05 4.67485C1.45296e-05 1.66818 1.67976 0 4.7116 0H58.9988ZM8.75325 8.8084C8.3376 10.3019 8.42073 76.2246 8.82171 77.1916H109.367V8.8084H8.75325Z" fill="#EBEBF3"/>
<path d="M17.8879 68.5038C18.3036 67.7362 18.6214 67.0964 18.9907 66.469C20.5746 63.6501 22.6358 61.1312 25.0812 59.0262C28.8613 55.7907 33.2012 55.2691 37.7954 56.7183C40.5437 57.5843 43.2039 58.7284 45.8934 59.7717C48.5934 60.8262 51.4905 61.2713 54.3801 61.0757C55.6967 61.0202 56.9493 60.4891 57.9083 59.5798C59.7152 57.823 61.4659 56.0023 63.1847 54.1545C66.8352 50.2301 70.8964 46.9011 75.9332 44.9204C82.0604 42.5116 88.107 44.1134 92.2978 49.1868C96.3712 54.12 98.5718 59.9218 100.171 66.0163C100.371 66.7913 100.516 67.5811 100.716 68.5038H17.8879Z" fill="#EBEBF3"/>
<path d="M25.5947 31.2961C25.5947 25.0195 30.4847 20.138 36.7123 20.0789C38.1912 20.0612 39.6586 20.3424 41.0275 20.9057C42.3965 21.4691 43.6392 22.3031 44.682 23.3585C45.7249 24.4139 46.5467 25.6691 47.0987 27.0499C47.6507 28.4307 47.9218 29.9089 47.8959 31.397C47.8298 37.7941 42.952 42.496 36.6242 42.501C35.1672 42.5 33.7248 42.2088 32.3801 41.6441C31.0355 41.0794 29.8153 40.2523 28.7899 39.2106C27.7646 38.1689 26.9543 36.9333 26.4059 35.5749C25.8575 34.2165 25.5818 32.7622 25.5947 31.2961Z" fill="#EBEBF3"/>
</g>
<defs>
<clipPath id="clip0_1771_21822">
<rect width="118" height="86" fill="white"/>
</clipPath>
</defs>
</svg>
