<svg width="14" height="16" viewBox="0 0 14 16" fill="none" xmlns="http://www.w3.org/2000/svg">
<g clip-path="url(#clip0_2_679)">
<path d="M13.2763 5.14252C12.3972 5.14252 11.5133 5.14729 10.6342 5.14252C9.80175 5.13775 9.11432 4.54144 8.99273 3.70185C8.94597 3.36792 8.96468 3.02445 8.96 2.68575C8.95532 1.79845 8.96 0.911151 8.96 0C8.8805 0 8.82438 0 8.76827 0C6.43474 0 4.10121 0 1.76768 0C0.715491 0 0 0.729875 0 1.80322C0 5.93441 0 10.0656 0 14.192C0 15.2654 0.720167 15.9952 1.76768 15.9952C5.06923 15.9952 8.37077 15.9952 11.6723 15.9952C12.7245 15.9952 13.44 15.2654 13.44 14.1872C13.44 11.2343 13.44 8.28623 13.44 5.33333C13.44 5.27132 13.44 5.2093 13.44 5.13775C13.3699 5.14252 13.3231 5.14252 13.2763 5.14252ZM7.99666 11.4252C7.32326 12.1169 6.64985 12.8038 5.97177 13.486C5.77536 13.6816 5.47608 13.6816 5.27967 13.4812C4.60626 12.799 3.93286 12.1121 3.26413 11.4252C3.06305 11.22 3.0724 10.9004 3.26881 10.7048C3.46522 10.5092 3.77386 10.5092 3.97962 10.7144C4.32568 11.0626 4.66706 11.4156 5.01311 11.7686C5.04117 11.7973 5.0739 11.8259 5.12067 11.8736C5.12067 11.802 5.12067 11.7591 5.12067 11.7114C5.12067 9.12105 5.12067 6.53071 5.12067 3.94037C5.12067 3.61121 5.32643 3.38223 5.62104 3.38223C5.86889 3.38223 6.07466 3.55397 6.11674 3.8068C6.1261 3.87358 6.13077 3.94037 6.13077 4.01193C6.13077 6.57841 6.13077 9.1449 6.13077 11.7114C6.13077 11.7591 6.13077 11.802 6.13077 11.8736C6.18221 11.8259 6.21495 11.7973 6.24301 11.7686C6.58906 11.4156 6.93044 11.0674 7.27649 10.7144C7.42146 10.5665 7.59449 10.5283 7.78622 10.5903C7.98263 10.6524 8.09486 10.8002 8.1276 11.0101C8.15566 11.1676 8.10889 11.3107 7.99666 11.4252Z" fill="#AECA9D"/>
<path d="M10.7048 3.99726C11.4577 3.99726 12.2106 3.99726 12.9588 3.99726C13.0055 3.99726 13.057 3.99248 13.1271 3.98294C12.1124 2.77126 11.1116 1.58819 10.0781 0.357422C10.0781 0.457601 10.0781 0.505305 10.0781 0.548239C10.0781 1.48801 10.0781 2.42779 10.0781 3.36756C10.0828 3.76827 10.3119 3.99726 10.7048 3.99726Z" fill="#AECA9D"/>
</g>
<defs>
<clipPath id="clip0_2_679">
<rect width="13.44" height="16" fill="white"/>
</clipPath>
</defs>
</svg>
