<svg width="12" height="12" viewBox="0 0 12 12" fill="none" xmlns="http://www.w3.org/2000/svg">
<g clip-path="url(#clip0_1807_12712)">
<path d="M3.29184 11.9997C3.20358 11.9324 3.10741 11.8738 3.0285 11.7965C2.76283 11.5384 2.50345 11.2753 2.23275 11.0035C2.04203 11.1949 1.85851 11.3797 1.67444 11.5639C1.44076 11.7967 1.25652 11.7964 1.02374 11.5639L0.161835 10.7022C-0.0538662 10.4852 -0.0538662 10.2936 0.163273 10.0758C1.62141 8.61835 3.08045 7.16177 4.54039 5.70603C4.61786 5.62891 4.62505 5.57607 4.57634 5.4799C3.7529 3.86034 4.22205 1.85702 5.67552 0.768086C6.9726 -0.202569 8.71619 -0.263325 10.0586 0.643339C10.9969 1.27732 11.5519 2.16943 11.702 3.29557C11.8132 4.11496 11.6509 4.94813 11.2405 5.66596C10.83 6.3838 10.1943 6.94622 9.43178 7.26609C8.36316 7.71421 7.294 7.6761 6.25018 7.16183C6.15473 7.11474 6.10638 7.12588 6.03448 7.19778C5.30026 7.938 4.5637 8.67581 3.8248 9.41124C3.79712 9.43874 3.76674 9.46336 3.73133 9.49536C3.76297 9.53023 3.78687 9.55881 3.81312 9.58523C4.06117 9.83401 4.30953 10.0826 4.55819 10.331C4.78126 10.5545 4.78216 10.7444 4.56178 10.9654C4.28586 11.2416 4.0121 11.5203 3.73151 11.7922C3.64936 11.8718 3.54745 11.9312 3.45451 11.9997H3.29184ZM7.94739 1.90753C6.90196 1.91616 6.06648 2.76296 6.07798 3.80174C6.08913 4.83495 6.93162 5.66828 7.958 5.66181C9.00289 5.65498 9.84089 4.80727 9.82885 3.76921C9.8168 2.73672 8.96964 1.8989 7.94703 1.90753H7.94739Z" fill="#5D953C"/>
</g>
<defs>
<clipPath id="clip0_1807_12712">
<rect width="11.7358" height="12" fill="white"/>
</clipPath>
</defs>
</svg>
