<svg width="14" height="19" viewBox="0 0 14 19" fill="none" xmlns="http://www.w3.org/2000/svg">
<path d="M7.747 0.00262833C7.86774 0.0737324 8.00802 0.124573 8.10568 0.219496C8.3138 0.422142 8.36991 0.681671 8.26905 0.955421C8.16819 1.22917 7.96114 1.38205 7.67206 1.4176C7.60122 1.42384 7.53005 1.42563 7.45898 1.42293C5.94372 1.42293 4.42847 1.42293 2.91321 1.42293C2.20294 1.42293 1.67236 1.81116 1.48414 2.47172C1.44426 2.62019 1.42479 2.7734 1.42625 2.92714C1.42341 7.0443 1.42341 11.1615 1.42625 15.2786C1.42625 16.1674 2.02998 16.7789 2.91783 16.7796C5.64055 16.7822 8.36257 16.7822 11.0839 16.7796C11.9717 16.7796 12.5755 16.1695 12.5755 15.2797C12.5773 11.1623 12.5773 7.04513 12.5755 2.9282C12.5755 2.07496 12.0321 1.48941 11.1943 1.42435C10.7664 1.39129 10.5 1.1666 10.4517 0.798283C10.4063 0.452717 10.6019 0.168301 10.9844 0.0211143C10.9946 0.0153503 11.0041 0.00830078 11.0125 0.000139236H11.4742C11.6727 0.0513344 11.8765 0.0879536 12.0694 0.155502C13.2562 0.570038 13.9946 1.62984 13.9949 2.91754C13.9964 6.73796 13.9964 10.5585 13.9949 14.3792C13.9949 14.7347 14.0091 15.0902 13.99 15.4457C13.9289 16.5688 13.3937 17.4011 12.3918 17.9066C12.1077 18.0488 11.7799 18.1068 11.4724 18.2031H2.52292C2.32404 18.1519 2.12055 18.1153 1.92735 18.0478C0.745806 17.6364 0.00569877 16.5756 0.00534363 15.2879C0.00392308 11.4674 0.0038047 7.6469 0.00498849 3.82625C0.00498849 3.47073 -0.00921702 3.11521 0.0103156 2.75969C0.0710441 1.6366 0.606237 0.804325 1.60844 0.298777C1.89255 0.156569 2.22034 0.0986195 2.52824 0.00227356L7.747 0.00262833Z" fill="#5D953C"/>
<path d="M5.54528 2.84701H6.39761C6.92463 2.84701 7.25172 3.12218 7.24994 3.56267C7.24497 3.99676 6.92108 4.26909 6.40578 4.26909C5.86123 4.26909 5.31669 4.26909 4.77214 4.26909C4.42446 4.26909 4.3023 4.3921 4.30159 4.74015C4.30159 5.32072 4.30585 5.90093 4.29874 6.4822C4.29933 6.63474 4.24949 6.78319 4.15698 6.90441C4.06448 7.02563 3.93452 7.11281 3.78735 7.15236C3.49152 7.23804 3.16657 7.13316 3.01173 6.87114C2.93666 6.74485 2.89385 6.60198 2.88707 6.45518C2.87381 5.82757 2.87298 5.19948 2.88459 4.57092C2.90163 3.64906 3.68294 2.87118 4.60381 2.84879C4.91704 2.84132 5.23098 2.84879 5.54457 2.84879L5.54528 2.84701Z" fill="#5D953C"/>
<path d="M8.45244 15.3616C8.13886 15.3616 7.82527 15.3641 7.51168 15.3616C7.06528 15.3577 6.74814 15.0555 6.75311 14.6427C6.75808 14.2371 7.07273 13.9434 7.51097 13.9409C8.07919 13.9381 8.64742 13.9409 9.21564 13.9409C9.58498 13.9409 9.69969 13.8233 9.70004 13.4478C9.70004 12.885 9.69507 12.3222 9.7036 11.7598C9.70538 11.5986 9.76234 11.4428 9.86497 11.3185C9.96761 11.1942 10.1097 11.1088 10.2676 11.0767C10.4255 11.0446 10.5896 11.0677 10.7325 11.142C10.8755 11.2164 10.9886 11.3376 11.0531 11.4854C11.0947 11.5893 11.1165 11.7001 11.1174 11.8121C11.1234 12.4104 11.1263 13.0088 11.1174 13.6067C11.1046 14.5666 10.3187 15.3488 9.35698 15.3619C9.05618 15.3651 8.75502 15.3616 8.45244 15.3616Z" fill="#5D953C"/>
</svg>
