<svg width="14" height="14" viewBox="0 0 14 14" fill="none" xmlns="http://www.w3.org/2000/svg">
<path d="M3.84045 13.9996C3.73748 13.9212 3.62528 13.8528 3.53322 13.7626C3.22327 13.4615 2.92066 13.1545 2.60484 12.8374C2.38234 13.0607 2.16822 13.2763 1.95348 13.4913C1.68086 13.7628 1.4659 13.7624 1.19433 13.4913L0.188774 12.4859C-0.0628779 12.2328 -0.0628779 12.0092 0.190451 11.7551C1.89162 10.0547 3.59383 8.3554 5.29709 6.65703C5.38747 6.56707 5.39586 6.50541 5.33903 6.39322C4.37835 4.50373 4.92569 2.16652 6.6214 0.896101C8.13467 -0.236331 10.1689 -0.307213 11.735 0.750562C12.8296 1.49021 13.4772 2.531 13.6523 3.84483C13.782 4.80078 13.5927 5.77281 13.1139 6.61029C12.635 7.44776 11.8933 8.10393 11.0037 8.4771C9.75698 8.99991 8.50963 8.95545 7.29184 8.35547C7.18049 8.30053 7.12408 8.31353 7.04019 8.39741C6.1836 9.261 5.32428 10.1218 4.46223 10.9798C4.42994 11.0119 4.3945 11.0406 4.35319 11.0779C4.39009 11.1186 4.41799 11.1519 4.4486 11.1828C4.738 11.473 5.02775 11.763 5.31785 12.0529C5.5781 12.3135 5.57915 12.5352 5.32204 12.7929C5.00014 13.1152 4.68075 13.4403 4.35339 13.7576C4.25756 13.8505 4.13865 13.9197 4.03023 13.9996H3.84045ZM9.27192 2.22545C8.05225 2.23552 7.07752 3.22346 7.09094 4.43537C7.10395 5.64078 8.08685 6.61299 9.2843 6.60544C10.5033 6.59747 11.481 5.60848 11.467 4.39741C11.4529 3.19284 10.4645 2.21538 9.2715 2.22545H9.27192Z" fill="#5D953C"/>
</svg>
