<svg width="16" height="16" viewBox="0 0 16 16" fill="none" xmlns="http://www.w3.org/2000/svg">
<path d="M13.435 16.0001H8.46917C8.29908 15.9837 8.1286 15.9661 7.95813 15.9512C6.76662 15.8437 5.59168 15.5978 4.45705 15.2185C4.30651 15.1692 4.25607 15.0937 4.25646 14.9397C4.26011 12.2183 4.26011 9.49698 4.25646 6.77583C4.25297 6.71674 4.26465 6.65774 4.29038 6.60443C4.31611 6.55111 4.35504 6.50527 4.40348 6.47124C5.00368 6.0122 5.5765 5.52109 6.08481 4.96039C6.52039 4.47945 6.89615 3.96176 7.12176 3.34201C7.39038 2.60418 7.67582 1.87222 7.96321 1.14143C8.03391 0.951486 8.12739 0.770824 8.24161 0.6034C8.56888 0.145922 9.02166 -0.067568 9.58237 0.0188445C10.1736 0.11034 10.556 0.448952 10.7081 1.04094C10.8645 1.65052 10.8746 2.27065 10.8019 2.88492C10.7034 3.71972 10.5536 4.54905 10.4207 5.37955C10.3816 5.62784 10.373 5.62666 10.6346 5.62666C11.6903 5.62666 12.746 5.62275 13.8017 5.62666C14.188 5.62399 14.5635 5.75444 14.8649 5.99606C15.1663 6.23767 15.3754 6.57572 15.4569 6.95335C15.5448 7.3514 15.4776 7.72794 15.2907 8.08727C15.2555 8.15531 15.1996 8.2206 15.2969 8.28864C15.6793 8.55609 15.8897 8.93458 15.9937 9.38072V9.9121C15.8913 10.3641 15.6774 10.7453 15.2899 11.0147C15.1996 11.0773 15.2527 11.1391 15.2868 11.2024C15.7091 11.9942 15.4635 12.9338 14.7003 13.4116C14.5927 13.4789 14.5927 13.5309 14.6428 13.6345C14.816 13.9923 14.8684 14.3692 14.7601 14.7559C14.5681 15.4327 14.1126 15.8359 13.435 16.0001Z" fill="#C0C0C0"/>
<path d="M3.36031 10.9875C3.36031 12.2254 3.36031 13.4636 3.36031 14.702C3.36031 14.9472 3.36031 14.948 3.12023 14.948C2.27801 14.948 1.43565 14.948 0.593157 14.948C0.185337 14.948 0 14.7642 0 14.3587C0 12.1073 0 9.85563 0 7.60369C0 7.20799 0.177908 7.02735 0.567351 7.02657C1.43069 7.02657 2.29404 7.02969 3.15699 7.02344C3.31339 7.02344 3.36305 7.07427 3.36266 7.22911C3.35836 8.48268 3.36031 9.73624 3.36031 10.9875Z" fill="#C0C0C0"/>
</svg>
