<svg width="15" height="16" viewBox="0 0 15 16" fill="none" xmlns="http://www.w3.org/2000/svg">
<g clip-path="url(#clip0_840_4269)">
<path d="M0.346148 15.9982C0.0682315 15.8699 -0.00551854 15.6495 0.000314798 15.3532C0.0557315 12.482 2.2449 9.93029 5.07198 9.46738C5.4265 9.41217 5.78447 9.3821 6.14323 9.37738C6.77823 9.36321 7.41406 9.35446 8.04865 9.37738C10.4582 9.46654 12.2211 10.609 13.3749 12.704C13.8291 13.5286 14.0266 14.4295 14.0661 15.3686C14.0786 15.6603 13.9903 15.8728 13.7211 15.9982H0.346148Z" fill="#5D953C"/>
<path d="M7.37755 0C7.6963 0.0691667 8.0238 0.112083 8.33338 0.21125C10.1688 0.800417 11.3946 2.60958 11.245 4.48625C11.0859 6.48625 9.65047 8.065 7.70922 8.38042C7.1415 8.47249 6.56096 8.44745 6.00328 8.30684C5.4456 8.16623 4.92258 7.91302 4.46639 7.56279C4.0102 7.21255 3.63047 6.7727 3.35057 6.27028C3.07067 5.76785 2.89651 5.21348 2.8388 4.64125C2.60422 2.34458 4.28088 0.27125 6.56963 0.0270833C6.61027 0.0204436 6.65048 0.0113999 6.69005 0L7.37755 0Z" fill="#5D953C"/>
</g>
<defs>
<clipPath id="clip0_840_4269">
<rect width="14.0675" height="16" fill="white"/>
</clipPath>
</defs>
</svg>
