<svg width="10" height="15" viewBox="0 0 10 15" fill="none" xmlns="http://www.w3.org/2000/svg">
<path d="M4.62969 0.542969C2.07685 0.542969 0 2.64668 0 5.23252C0 5.93772 0.1508 6.61546 0.448092 7.24737C0.454076 7.26089 0.460359 7.27416 0.467062 7.28744L3.96503 14.1478C4.09345 14.3996 4.34987 14.5578 4.62962 14.5578C4.90944 14.5578 5.16586 14.3997 5.29422 14.1478L8.79123 7.28931C8.79728 7.27749 8.8029 7.26555 8.80829 7.25349C9.10755 6.61976 9.25925 5.93996 9.25925 5.23252C9.25937 2.64668 7.18252 0.542969 4.62969 0.542969ZM4.62969 7.68713C3.29349 7.68713 2.20641 6.586 2.20641 5.23252C2.20641 3.87911 3.29349 2.77797 4.62969 2.77797C5.96588 2.77797 7.05296 3.87911 7.05296 5.23252C7.05296 6.586 5.96588 7.68713 4.62969 7.68713Z" fill="white"/>
</svg>
