<svg width="13" height="17" viewBox="0 0 13 17" fill="none" xmlns="http://www.w3.org/2000/svg">
<path d="M6.59628 0C6.77408 0.0207875 6.95188 0.0374175 7.12968 0.0665199C9.44106 0.440695 11.0836 1.68794 12.0276 3.78332C12.6414 5.15114 12.6584 6.56884 12.2308 7.99902C11.8752 9.18391 11.3333 10.2856 10.711 11.35C9.58922 13.2666 8.2388 15.0293 6.77408 16.7048C6.42695 17.0998 6.09252 17.0998 5.74539 16.7048C4.07747 14.8007 2.55772 12.7926 1.36816 10.5642C0.822068 9.54561 0.343706 8.49376 0.127808 7.35461C-0.295522 5.11372 0.352172 3.19711 2.02432 1.6339C3.01491 0.706774 4.21717 0.203717 5.56759 0.0374175C5.68189 0.024945 5.80042 0.0124725 5.91896 0C6.14332 0 6.36768 0 6.59628 0ZM6.23645 9.25459C7.94247 9.28369 9.37332 7.9034 9.40296 6.19883C9.43682 4.49425 8.03984 3.08902 6.28302 3.05992C4.57277 3.03081 3.14191 4.40279 3.10805 6.10736C3.06995 7.81609 4.47117 9.22133 6.23645 9.25459Z" fill="#919195"/>
</svg>
