<svg width="10" height="15" viewBox="0 0 10 15" fill="none" xmlns="http://www.w3.org/2000/svg">
<path d="M4.62968 0C2.07685 0 0 2.10371 0 4.68955C0 5.39475 0.1508 6.07249 0.448092 6.7044C0.454076 6.71792 0.460359 6.73119 0.467062 6.74447L3.96503 13.6048C4.09345 13.8566 4.34987 14.0148 4.62962 14.0148C4.90944 14.0148 5.16586 13.8567 5.29422 13.6048L8.79123 6.74635C8.79728 6.73453 8.8029 6.72258 8.80829 6.71052C9.10755 6.07679 9.25925 5.39699 9.25925 4.68955C9.25937 2.10371 7.18252 0 4.62968 0ZM4.62968 7.14416C3.29349 7.14416 2.20641 6.04303 2.20641 4.68955C2.20641 3.33614 3.29349 2.235 4.62968 2.235C5.96588 2.235 7.05296 3.33614 7.05296 4.68955C7.05296 6.04303 5.96588 7.14416 4.62968 7.14416Z" fill="#5D953C"/>
</svg>
