<svg width="12" height="15" viewBox="0 0 12 15" fill="none" xmlns="http://www.w3.org/2000/svg">
<path d="M4.30804 0.5C6.60381 0.5 8.89267 0.5 11.1884 0.5C11.7762 0.666819 11.9698 1.05179 11.9629 1.60357C11.9491 5.57516 11.956 9.54675 11.956 13.5183C11.956 14.1535 11.5826 14.5 10.898 14.5C7.62031 14.5 4.34261 14.5 1.06491 14.5C0.373409 14.5 0 14.1535 0 13.5055C0 10.5605 0 7.61549 0 4.6769C0 4.61916 0.00691499 4.56783 0.00691499 4.49725C0.0968098 4.49725 0.16596 4.49725 0.23511 4.49725C1.1064 4.49725 1.97077 4.50367 2.84206 4.49725C2.99419 4.49725 3.15323 4.49083 3.29845 4.45234C3.92771 4.29835 4.29421 3.8428 4.30112 3.22686C4.30804 2.31577 4.30804 1.41109 4.30804 0.5ZM6.17508 8.60999C5.17932 8.60999 4.18357 8.60999 3.18781 8.60999C3.07717 8.60999 2.96653 8.60357 2.85589 8.60999C2.6761 8.62282 2.50322 8.75756 2.46173 8.91796C2.41333 9.08478 2.48248 9.27085 2.65535 9.35426C2.75908 9.40559 2.88355 9.43126 3.0011 9.43126C5.11709 9.43767 7.23308 9.43767 9.34906 9.43126C9.41821 9.43126 9.48045 9.43126 9.5496 9.41842C9.77779 9.37351 9.923 9.19386 9.90226 8.98213C9.88843 8.76398 9.68789 8.60999 9.41821 8.60999C8.33256 8.60999 7.25382 8.60999 6.17508 8.60999ZM6.16817 7.19844C7.14318 7.19844 8.11819 7.19844 9.09321 7.19844C9.22459 7.19844 9.35598 7.20486 9.49428 7.19203C9.67407 7.18561 9.79162 7.08937 9.86768 6.9418C9.93683 6.80706 9.91609 6.67232 9.81928 6.55041C9.69481 6.39001 9.52194 6.37076 9.33523 6.37076C7.23308 6.37076 5.13092 6.37076 3.02185 6.37076C2.9527 6.37076 2.89046 6.37076 2.82131 6.38359C2.50322 6.42851 2.34418 6.75573 2.52397 7.00596C2.62769 7.15353 2.77982 7.19844 2.96653 7.19844C4.03144 7.19203 5.09634 7.19844 6.16817 7.19844ZM4.53623 11.5357C5.06868 11.5357 5.60114 11.5357 6.12668 11.5357C6.44477 11.5357 6.6453 11.3176 6.5969 11.0481C6.56232 10.8428 6.3687 10.7081 6.0921 10.7081C5.04794 10.7081 4.00378 10.7081 2.9527 10.7081C2.63461 10.7081 2.42716 10.8813 2.43408 11.1315C2.44099 11.3753 2.64152 11.5357 2.9527 11.5357C3.48515 11.5357 4.01069 11.5357 4.53623 11.5357Z" fill="#5D953C"/>
</svg>
