<svg width="17" height="19" viewBox="0 0 17 19" fill="none" xmlns="http://www.w3.org/2000/svg">
<g clip-path="url(#clip0_6512_9565)">
<path d="M2.11067 0.5C5.20006 0.5 8.28946 0.5 11.3745 0.5C11.4698 0.582192 11.5738 0.656164 11.6562 0.746575C12.8131 1.99589 13.9656 3.24932 15.1269 4.49863C15.2482 4.63014 15.3002 4.77397 15.3002 4.94658C15.2958 5.54247 15.3002 6.14247 15.3002 6.73836C15.3002 6.8 15.3002 6.86164 15.3002 6.93562C15.4475 6.93562 15.5688 6.93562 15.6945 6.93562C16.3574 6.94384 16.8124 7.34658 16.8167 7.97534C16.8297 9.70137 16.8297 11.4315 16.8167 13.1575C16.8124 13.7863 16.3574 14.189 15.6945 14.2014C15.5688 14.2055 15.4388 14.2014 15.3002 14.2014C15.3002 14.2959 15.3002 14.3658 15.3002 14.4356C15.3002 15.5082 15.3002 16.5808 15.3002 17.6534C15.3002 18.2329 15.0142 18.5 14.4032 18.5C10.4083 18.5 6.41329 18.5 2.41397 18.5C1.81169 18.5 1.52572 18.2288 1.52572 17.6616C1.52572 16.5849 1.52572 15.5041 1.52572 14.4274C1.52572 14.3575 1.52572 14.2918 1.52572 14.2014C1.38273 14.2014 1.26141 14.2014 1.14009 14.2014C0.464145 14.189 0.0135179 13.7863 0.00918497 13.1493C0.000519071 11.4274 0.000519071 9.70548 0.00918497 7.98356C0.0135179 7.34658 0.468478 6.93973 1.14009 6.93151C1.26141 6.93151 1.38273 6.93151 1.52138 6.93151C1.52138 6.84521 1.52138 6.77534 1.52138 6.70548C1.52138 4.94247 1.53005 3.17945 1.51705 1.41644C1.51705 0.980822 1.65137 0.656164 2.11067 0.5ZM14.5419 6.93151C14.5419 6.34384 14.5419 5.76438 14.5419 5.1726C14.4596 5.1726 14.3903 5.1726 14.3253 5.1726C13.3503 5.1726 12.3711 5.1726 11.3962 5.1726C11.0235 5.1726 10.8936 5.05342 10.8936 4.69589C10.8936 3.59863 10.8936 2.50548 10.8936 1.40822C10.8936 1.34658 10.8936 1.28082 10.8936 1.21507C8.01215 1.21507 5.14807 1.21507 2.28398 1.21507C2.28398 3.12603 2.28398 5.02466 2.28398 6.93151C6.36996 6.93151 10.4386 6.93151 14.5419 6.93151ZM14.5462 14.2178C10.4516 14.2178 6.36996 14.2178 2.27965 14.2178C2.27965 15.3438 2.27965 16.4616 2.27965 17.5877C6.37429 17.5877 10.4559 17.5877 14.5462 17.5877C14.5462 16.4575 14.5462 15.3438 14.5462 14.2178ZM7.52686 8.04521C6.6386 8.04932 5.902 8.4274 5.4687 9.1137C5.15673 9.61096 5.04841 10.1575 5.08307 10.7329C5.15673 11.9164 5.89333 12.8329 7.13689 12.9644C8.14647 13.0712 9.17338 12.7096 9.65 11.7274C9.90131 11.2096 9.95764 10.663 9.90131 10.1C9.77132 8.86712 8.82241 8.0411 7.52686 8.04521ZM13.7836 11.0123C13.7836 11.3329 13.788 11.6288 13.7793 11.9247C13.7793 11.9616 13.7273 12.0192 13.6883 12.0274C13.1814 12.1219 12.6917 12.0973 12.2541 11.8014C11.8078 11.5014 11.6605 11.0575 11.6388 10.5644C11.6042 9.85753 11.9595 9.31507 12.6094 9.08082C12.982 8.94521 13.372 8.94932 13.762 8.99863C14.0046 9.03151 14.2386 9.09315 14.4856 9.14657C14.5636 8.87123 14.6372 8.59589 14.7152 8.31644C14.6762 8.3 14.6502 8.27945 14.6242 8.27534C14.2213 8.20959 13.814 8.10274 13.4067 8.0863C12.6137 8.04932 11.8685 8.22603 11.2575 8.73562C10.5859 9.29452 10.3953 10.0342 10.4516 10.8479C10.5166 11.8219 11.1622 12.5822 12.1544 12.8329C13.0384 13.0589 13.9136 12.9562 14.7846 12.7178C14.9059 12.6849 14.8885 12.6068 14.8885 12.5288C14.8885 11.7973 14.8885 11.0658 14.8885 10.3342C14.8885 10.2849 14.8799 10.2315 14.8799 10.1863C14.2516 10.1863 13.6363 10.1863 13.0254 10.1863C13.0254 10.4699 13.0254 10.7411 13.0254 11.0205C13.281 11.0123 13.5193 11.0123 13.7836 11.0123ZM4.90975 11.9904C4.23815 11.9904 3.58387 11.9904 2.91226 11.9904C2.91226 10.6959 2.91226 9.41781 2.91226 8.13562C2.5223 8.13562 2.15833 8.13562 1.7857 8.13562C1.7857 9.73014 1.7857 11.3123 1.7857 12.8986C2.83427 12.8986 3.86551 12.8986 4.90975 12.8986C4.90975 12.5945 4.90975 12.3068 4.90975 11.9904Z" fill="#5D953C"/>
<path d="M8.71348 10.5239C8.70915 10.8856 8.64848 11.2349 8.45783 11.5554C8.05054 12.2499 7.11896 12.3198 6.61633 11.6869C6.15271 11.1034 6.17437 9.86638 6.65966 9.29926C7.14929 8.72392 8.04187 8.78967 8.43617 9.43487C8.62682 9.7472 8.71781 10.1088 8.71348 10.5239Z" fill="#5D953C"/>
</g>
<defs>
<clipPath id="clip0_6512_9565">
<rect width="16.8205" height="18" fill="white" transform="translate(0 0.5)"/>
</clipPath>
</defs>
</svg>
