<svg width="16" height="18" viewBox="0 0 16 18" fill="none" xmlns="http://www.w3.org/2000/svg">
<path d="M2.00784 0C4.94653 0 7.88522 0 10.8198 0C10.9105 0.0821918 11.0094 0.156164 11.0877 0.246575C12.1882 1.49589 13.2845 2.74932 14.3891 3.99863C14.5045 4.13014 14.554 4.27397 14.554 4.44658C14.5498 5.04247 14.554 5.64247 14.554 6.23836C14.554 6.3 14.554 6.36164 14.554 6.43562C14.6941 6.43562 14.8095 6.43562 14.929 6.43562C15.5596 6.44384 15.9924 6.84658 15.9965 7.47534C16.0089 9.20137 16.0089 10.9315 15.9965 12.6575C15.9924 13.2863 15.5596 13.689 14.929 13.7014C14.8095 13.7055 14.6858 13.7014 14.554 13.7014C14.554 13.7959 14.554 13.8658 14.554 13.9356C14.554 15.0082 14.554 16.0808 14.554 17.1534C14.554 17.7329 14.2819 18 13.7008 18C9.90068 18 6.10058 18 2.29635 18C1.72345 18 1.45142 17.7288 1.45142 17.1616C1.45142 16.0849 1.45142 15.0041 1.45142 13.9274C1.45142 13.8575 1.45142 13.7918 1.45142 13.7014C1.31541 13.7014 1.20001 13.7014 1.0846 13.7014C0.441635 13.689 0.0129895 13.2863 0.00886793 12.6493C0.000624753 10.9274 0.000624753 9.20548 0.00886793 7.48356C0.0129895 6.84658 0.445756 6.43973 1.0846 6.43151C1.20001 6.43151 1.31541 6.43151 1.4473 6.43151C1.4473 6.34521 1.4473 6.27534 1.4473 6.20548C1.4473 4.44247 1.45555 2.67945 1.44318 0.916438C1.44318 0.480822 1.57095 0.156164 2.00784 0ZM13.8327 6.43151C13.8327 5.84384 13.8327 5.26438 13.8327 4.6726C13.7544 4.6726 13.6884 4.6726 13.6266 4.6726C12.6992 4.6726 11.7678 4.6726 10.8404 4.6726C10.4859 4.6726 10.3623 4.55342 10.3623 4.19589C10.3623 3.09863 10.3623 2.00548 10.3623 0.908219C10.3623 0.846575 10.3623 0.780822 10.3623 0.715068C7.62144 0.715068 4.89707 0.715068 2.1727 0.715068C2.1727 2.62603 2.1727 4.52466 2.1727 6.43151C6.05936 6.43151 9.92953 6.43151 13.8327 6.43151ZM13.8368 13.7178C9.9419 13.7178 6.05936 13.7178 2.16858 13.7178C2.16858 14.8438 2.16858 15.9616 2.16858 17.0877C6.06348 17.0877 9.94602 17.0877 13.8368 17.0877C13.8368 15.9575 13.8368 14.8438 13.8368 13.7178ZM7.15982 7.54521C6.3149 7.54932 5.61423 7.9274 5.20207 8.6137C4.90531 9.11096 4.80227 9.65753 4.83525 10.2329C4.90531 11.4164 5.60598 12.3329 6.78888 12.4644C7.74921 12.5712 8.72603 12.2096 9.1794 11.2274C9.41845 10.7096 9.47203 10.163 9.41845 9.6C9.29481 8.36712 8.39218 7.5411 7.15982 7.54521ZM13.1114 10.5123C13.1114 10.8329 13.1155 11.1288 13.1073 11.4247C13.1073 11.4616 13.0578 11.5192 13.0207 11.5274C12.5385 11.6219 12.0728 11.5973 11.6565 11.3014C11.232 11.0014 11.0918 10.5575 11.0712 10.0644C11.0382 9.35753 11.3762 8.81507 11.9944 8.58082C12.3489 8.44521 12.7198 8.44932 13.0908 8.49863C13.3216 8.53151 13.5442 8.59315 13.7791 8.64658C13.8533 8.37123 13.9234 8.09589 13.9975 7.81644C13.9604 7.8 13.9357 7.77945 13.911 7.77534C13.5277 7.70959 13.1402 7.60274 12.7528 7.5863C11.9986 7.54932 11.2897 7.72603 10.7085 8.23562C10.0697 8.79452 9.88831 9.53425 9.9419 10.3479C10.0037 11.3219 10.6178 12.0822 11.5617 12.3329C12.4025 12.5589 13.235 12.4562 14.0635 12.2178C14.1789 12.1849 14.1624 12.1068 14.1624 12.0288C14.1624 11.2973 14.1624 10.5658 14.1624 9.83425C14.1624 9.78493 14.1542 9.73151 14.1542 9.6863C13.5565 9.6863 12.9713 9.6863 12.3901 9.6863C12.3901 9.96986 12.3901 10.2411 12.3901 10.5205C12.6333 10.5123 12.86 10.5123 13.1114 10.5123ZM4.67038 11.4904C4.03154 11.4904 3.40918 11.4904 2.77033 11.4904C2.77033 10.1959 2.77033 8.91781 2.77033 7.63562C2.39939 7.63562 2.05318 7.63562 1.69872 7.63562C1.69872 9.23014 1.69872 10.8123 1.69872 12.3986C2.69614 12.3986 3.67708 12.3986 4.67038 12.3986C4.67038 12.0945 4.67038 11.8068 4.67038 11.4904Z" fill="#919195"/>
<path d="M8.28858 10.0233C8.28446 10.3849 8.22676 10.7343 8.04541 11.0548C7.65798 11.7493 6.77184 11.8192 6.29374 11.1863C5.85273 10.6028 5.87334 9.36577 6.33495 8.79865C6.80069 8.22331 7.64974 8.28906 8.0248 8.93426C8.20615 9.24659 8.2927 9.60824 8.28858 10.0233Z" fill="#919195"/>
</svg>
