<svg width="22" height="10" viewBox="0 0 22 10" fill="none" xmlns="http://www.w3.org/2000/svg">
<g clip-path="url(#clip0_1809_12733)">
<path d="M0 4.7893C0.142322 4.58093 0.29749 4.38163 0.464602 4.19256C1.6634 2.98204 2.87712 1.78217 4.07486 0.573782C4.35085 0.29566 4.66627 0.1891 5.0339 0.323366C5.62318 0.536486 5.76704 1.26642 5.30883 1.73316C4.58209 2.46949 3.85108 3.19516 3.12115 3.92616C3.06254 3.98584 3.00713 4.04977 2.90803 4.15314H8.75924C9.28458 4.15314 9.65755 4.47282 9.68632 4.93316C9.69659 5.04783 9.6831 5.16339 9.64671 5.27262C9.61031 5.38185 9.55179 5.4824 9.47479 5.568C9.39779 5.6536 9.30398 5.7224 9.19919 5.77012C9.09441 5.81783 8.98092 5.84343 8.8658 5.84531C8.62817 5.8549 8.38948 5.84531 8.15078 5.84531H2.91229C3.00713 5.95187 3.06147 6.01261 3.12541 6.07229C3.85748 6.81288 4.597 7.54601 5.32801 8.28767C5.45853 8.41528 5.54423 8.58172 5.57227 8.76209C5.60032 8.94246 5.5692 9.12706 5.48358 9.28827C5.40397 9.44806 5.27335 9.57673 5.11239 9.65393C4.95143 9.73113 4.76931 9.75245 4.59487 9.71451C4.41583 9.67446 4.2509 9.58684 4.11748 9.4609C2.83024 8.18857 1.55152 6.90985 0.281319 5.62473C0.17438 5.49711 0.0801597 5.35935 0 5.21341L0 4.7893Z" fill="#5D953C"/>
<path d="M21.474 5.2149C21.3257 5.42914 21.1649 5.63445 20.9924 5.82975C19.7989 7.03388 18.5958 8.22736 17.4013 9.43149C17.1328 9.70109 16.8259 9.80871 16.4646 9.69363C15.8594 9.49969 15.6974 8.74631 16.162 8.27531C16.8877 7.54005 17.6208 6.8133 18.3507 6.08337C18.4115 6.02263 18.468 5.95869 18.5639 5.85213H12.0179C11.4435 5.85213 11.0652 5.49516 11.0791 4.97408C11.0847 4.76929 11.1651 4.57364 11.305 4.42405C11.445 4.27446 11.6349 4.18127 11.8388 4.16209C11.9348 4.1525 12.0328 4.15676 12.1298 4.15676H18.5713C18.4722 4.0502 18.4104 3.98626 18.3465 3.92233C17.6165 3.19133 16.8845 2.46352 16.1577 1.73039C16.0292 1.60657 15.9431 1.44523 15.9119 1.2695C15.8807 1.09377 15.906 0.912667 15.984 0.752164C16.0573 0.589634 16.1827 0.45625 16.3405 0.373225C16.4982 0.290199 16.6792 0.262297 16.8546 0.293955C17.0436 0.328466 17.2188 0.416065 17.3597 0.546503C18.6477 1.8167 19.9264 3.09542 21.1959 4.38267C21.3012 4.5098 21.394 4.64684 21.4729 4.79186L21.474 5.2149Z" fill="#5D953C"/>
</g>
<defs>
<clipPath id="clip0_1809_12733">
<rect width="21.474" height="9.47" fill="white" transform="translate(0 0.265625)"/>
</clipPath>
</defs>
</svg>
