<svg width="18" height="16" viewBox="0 0 18 16" fill="none" xmlns="http://www.w3.org/2000/svg">
<path d="M17.4486 1.28682V11.8168C17.3991 11.9662 17.3679 12.1245 17.2971 12.2628C17.0077 12.8292 16.5318 13.0882 15.9014 13.0874C14.3057 13.0851 12.7098 13.0851 11.1138 13.0874H10.9004C10.9384 13.6341 10.9798 14.1544 11.1958 14.6397C11.3178 14.9142 11.4792 15.1626 11.798 15.2441C11.8906 15.268 11.9892 15.2693 12.0827 15.2915C12.1693 15.3107 12.2451 15.3628 12.2939 15.4369C12.3428 15.511 12.3609 15.6012 12.3443 15.6884C12.3119 15.9018 12.1634 16 11.8727 16C9.77164 16 7.67043 16 5.56908 16C5.50118 16.0002 5.43348 15.9929 5.36719 15.9782C5.28617 15.9607 5.21407 15.9148 5.16384 15.8488C5.11361 15.7829 5.08856 15.7012 5.09318 15.6184C5.10385 15.4114 5.24427 15.288 5.51701 15.265C5.62474 15.2576 5.72946 15.2262 5.82359 15.1733C5.91771 15.1204 5.99888 15.0472 6.06119 14.959C6.37661 14.542 6.44533 14.046 6.50892 13.5505C6.52856 13.402 6.53069 13.2517 6.54179 13.0887H6.31686C4.72655 13.0887 3.13638 13.0887 1.54635 13.0887C0.612052 13.084 0 12.4685 0 11.5351C0 8.20762 0 4.87989 0 1.55187C0 0.631234 0.612906 0.00296336 1.53269 0.00253654C6.32554 -0.0017316 11.1185 -0.00258523 15.9116 -2.43443e-05C16.3244 -2.43443e-05 16.6931 0.121618 16.9979 0.408864C17.2518 0.648734 17.3752 0.955187 17.4486 1.28682ZM1.46568 10.1714H15.9799V1.4695H1.46568V10.1714ZM9.44711 11.6273C9.44532 11.4836 9.4009 11.3437 9.31951 11.2253C9.23811 11.1069 9.12339 11.0153 8.98989 10.9622C8.8564 10.9091 8.71013 10.8968 8.56963 10.9268C8.42914 10.9569 8.30074 11.0281 8.20071 11.1312C8.10068 11.2344 8.03353 11.3649 8.00776 11.5062C7.982 11.6476 7.99878 11.7934 8.05598 11.9252C8.11318 12.057 8.20822 12.1689 8.32906 12.2466C8.44991 12.3243 8.5911 12.3644 8.73476 12.3618C8.9265 12.358 9.10901 12.2787 9.24269 12.1412C9.37637 12.0037 9.45043 11.819 9.44882 11.6273H9.44711Z" fill="#919195"/>
</svg>
