<svg width="16" height="15" viewBox="0 0 16 15" fill="none" xmlns="http://www.w3.org/2000/svg">
<path d="M9.83906 10.4311L9.5645 10.6717L9.17619 10.6746L8.32731 10.681L7.81553 10.6849V10.6883H1.92044V9.85653H7.37009L7.37022 9.84218L7.3775 9.09818L7.38081 8.75784L7.65541 8.5172L8.3415 7.91588H1.92044V7.08415H9.2905L9.92316 6.52966H1.92044V5.69793H10.2075V6.28045L12.1279 4.59727V0.5H0V14.5H12.1279V8.42496L9.83906 10.4311ZM10.2075 5.14347H4.72866V4.31174H10.2075V5.14347ZM1.92044 2.92555H10.2075V3.75728H1.92044V2.92555ZM1.92044 4.31174H3.77966V5.14347H1.92044V4.31174ZM1.92044 8.47034H6.65819V9.30207H1.92044V8.47034Z" fill="#5D953C"/>
<path d="M15.8258 3.27387C15.7134 3.17535 15.5639 3.12109 15.405 3.12109C15.246 3.12109 15.0966 3.17535 14.9842 3.27384L14.4233 3.7654L15.2649 4.50298L15.8257 4.01143C15.9381 3.91294 16 3.78197 16 3.64264C16 3.50331 15.9382 3.37236 15.8258 3.27387Z" fill="#5D953C"/>
<path d="M13.7522 4.35156L8.32637 9.10703L8.31909 9.851L9.16797 9.84461L14.5938 5.08918L13.7522 4.35156Z" fill="#5D953C"/>
</svg>
