<svg width="17" height="17" viewBox="0 0 17 17" fill="none" xmlns="http://www.w3.org/2000/svg">
<path d="M16 1L10.75 16L7.75 9.25L1 6.25L16 1Z" fill="#C0C0C0"/>
<path d="M16 1L16.7079 1.24776C16.8031 0.975823 16.7341 0.673398 16.5303 0.46967C16.3266 0.265942 16.0242 0.196927 15.7522 0.292106L16 1ZM10.75 16L10.0646 16.3046C10.1895 16.5856 10.4733 16.7619 10.7806 16.7494C11.0878 16.7368 11.3563 16.538 11.4579 16.2478L10.75 16ZM7.75 9.25L8.43536 8.9454C8.35995 8.77572 8.22428 8.64005 8.0546 8.56464L7.75 9.25ZM1 6.25L0.752237 5.54211C0.461987 5.64369 0.263159 5.91217 0.250623 6.21943C0.238088 6.52669 0.414386 6.81047 0.695396 6.93536L1 6.25ZM15.2921 0.752237L10.0421 15.7522L11.4579 16.2478L16.7079 1.24776L15.2921 0.752237ZM11.4354 15.6954L8.43536 8.9454L7.06464 9.5546L10.0646 16.3046L11.4354 15.6954ZM8.0546 8.56464L1.3046 5.56464L0.695396 6.93536L7.4454 9.93536L8.0546 8.56464ZM1.24776 6.95789L16.2478 1.70789L15.7522 0.292106L0.752237 5.54211L1.24776 6.95789Z" fill="#C0C0C0"/>
</svg>
