<svg width="16" height="15" viewBox="0 0 16 15" fill="none" xmlns="http://www.w3.org/2000/svg">
<g clip-path="url(#clip0_877_4358)">
<path d="M0 8.67612C0.123272 8.5076 0.332833 8.46094 0.620467 8.46094C5.46915 8.46353 10.3178 8.46353 15.1665 8.46353C15.5897 8.46353 15.75 8.56464 15.75 8.83168C15.75 9.18168 15.75 9.52909 15.75 9.87909C15.75 10.0943 15.5651 10.2083 15.2282 10.2083C10.3302 10.2083 5.42806 10.2083 0.530068 10.2109C0.267088 10.2109 0.110944 10.1332 0.00410905 9.99575C0 9.55501 0 9.11686 0 8.67612Z" fill="#5D953C"/>
<path d="M0 12.4261C0.123272 12.2576 0.332833 12.2109 0.620467 12.2109C5.46915 12.2135 10.3178 12.2135 15.1665 12.2135C15.5897 12.2135 15.75 12.3146 15.75 12.5817C15.75 12.9317 15.75 13.2791 15.75 13.6291C15.75 13.8443 15.5651 13.9583 15.2282 13.9583C10.3302 13.9583 5.42806 13.9583 0.530068 13.9609C0.267088 13.9609 0.110944 13.8832 0.00410905 13.7458C0 13.305 0 12.8643 0 12.4261Z" fill="#5D953C"/>
<path d="M0 1.34445C0.078072 1.25346 0.139708 1.13766 0.234216 1.07148C0.410905 0.947407 0.591704 1.00117 0.764284 1.10871C1.71347 1.67946 2.66677 2.25021 3.61597 2.82097C4.17069 3.15184 4.72541 3.48685 5.27602 3.81772C5.67049 4.05347 5.67049 4.45878 5.27602 4.69453C3.77211 5.59616 2.2682 6.50192 0.768393 7.40354C0.439669 7.60206 0.209562 7.52762 0.00410905 7.1678C0 5.22392 0 3.28419 0 1.34445Z" fill="#5D953C"/>
<path d="M11.152 1.00391C12.4997 1.00391 13.8475 1.00391 15.1953 1.00391C15.5774 1.00391 15.75 1.11296 15.75 1.35183C15.75 1.70494 15.75 2.05806 15.75 2.41118C15.75 2.63966 15.5733 2.75391 15.2158 2.75391C12.4956 2.75391 9.77544 2.75391 7.05525 2.75391C6.70598 2.75391 6.52518 2.63966 6.52518 2.42156C6.52518 2.05806 6.52518 1.69716 6.52518 1.33365C6.52518 1.12075 6.71008 1.0065 7.05114 1.0065C8.41534 1.00391 9.78366 1.00391 11.152 1.00391Z" fill="#5D953C"/>
<path d="M11.152 4.71744C12.4997 4.71744 13.8475 4.71744 15.1953 4.71744C15.5774 4.71744 15.75 4.82649 15.75 5.06536C15.75 5.42108 15.75 5.77679 15.75 6.1325C15.75 6.348 15.5651 6.46484 15.2323 6.46484C12.4997 6.46484 9.77133 6.46484 7.03881 6.46484C6.71008 6.46484 6.52518 6.348 6.52518 6.14029C6.52518 5.77419 6.52518 5.40809 6.52518 5.042C6.52518 4.82909 6.71008 4.71484 7.05114 4.71484C8.41534 4.71744 9.78366 4.71744 11.152 4.71744Z" fill="#5D953C"/>
</g>
<defs>
<clipPath id="clip0_877_4358">
<rect width="15.75" height="14" fill="white" transform="translate(0 0.5)"/>
</clipPath>
</defs>
</svg>
