<svg width="45" height="28" viewBox="0 0 45 28" fill="none" xmlns="http://www.w3.org/2000/svg">
<g clip-path="url(#clip0_55_52)">
<path d="M44.9609 14.9714C44.9609 18.4381 45.1173 21.981 44.8827 25.5238C44.7654 27.3143 43.1625 27.9619 41.3249 27.9619C33.232 27.9238 25.1781 27.9619 17.0851 27.9619C12.6282 27.9619 8.17116 27.9619 3.71416 27.9619C1.17289 27.9619 0.0390964 26.8571 0 24.4191C0 21.2191 0 18.0571 0 14.9714C15.0912 14.9714 29.9088 14.9714 44.9609 14.9714ZM39.4874 21.1048C38.4318 20.4191 37.7672 19.6952 37.298 19.7714C36.7116 19.9238 36.2424 20.7238 35.7341 21.2571C36.2424 21.7143 36.7507 22.5524 37.2589 22.5524C37.8454 22.5524 38.4318 21.8286 39.4874 21.1048Z" fill="white" fill-opacity="0.5"/>
<path d="M22.3241 13.6C15.9123 13.6 9.53956 13.6 3.12774 13.6C0.62557 13.6 0.430088 13.2571 1.68117 11.2C3.40142 8.34286 5.16076 5.48571 6.881 2.59048C7.89751 0.838095 9.38317 0 11.4553 0C18.8054 0.0380952 26.1946 0.0380952 33.5448 0C35.6169 0 37.1025 0.8 38.1191 2.55238C39.8784 5.5619 41.7159 8.49524 43.5144 11.5048C44.4918 13.181 44.2572 13.6 42.2633 13.6C35.6169 13.6381 28.9705 13.6 22.3241 13.6Z" fill="white"/>
</g>
<defs>
<clipPath id="clip0_55_52">
<rect width="45" height="28" fill="white"/>
</clipPath>
</defs>
</svg>
