<svg width="18" height="15" viewBox="0 0 18 15" fill="none" xmlns="http://www.w3.org/2000/svg">
<path d="M0 8.86897C0.140882 8.67638 0.380381 8.62305 0.709105 8.62305C6.25046 8.62601 11.7918 8.62601 17.3332 8.62601C17.8169 8.62601 18 8.74157 18 9.04675C18 9.44675 18 9.84379 18 10.2438C18 10.4897 17.7887 10.6201 17.4036 10.6201C11.8059 10.6201 6.2035 10.6201 0.605792 10.623C0.305244 10.623 0.126794 10.5342 0.00469606 10.3771C0 9.87342 0 9.37268 0 8.86897Z" fill="#5D953C"/>
<path d="M0 13.1512C0.140882 12.9586 0.380381 12.9053 0.709105 12.9053C6.25046 12.9082 11.7918 12.9082 17.3332 12.9082C17.8169 12.9082 18 13.0238 18 13.329C18 13.729 18 14.126 18 14.526C18 14.7719 17.7887 14.9023 17.4036 14.9023C11.8059 14.9023 6.2035 14.9023 0.605792 14.9053C0.305244 14.9053 0.126794 14.8164 0.00469606 14.6593C0 14.1556 0 13.6519 0 13.1512Z" fill="#5D953C"/>
<path d="M0 0.488388C0.0892251 0.384399 0.159666 0.252051 0.267675 0.176423C0.469606 0.0346208 0.676233 0.0960684 0.873467 0.218964C1.95826 0.871253 3.04774 1.52354 4.13253 2.17583C4.7665 2.55397 5.40047 2.93684 6.02974 3.31498C6.48056 3.5844 6.48056 4.04762 6.02974 4.31705C4.31098 5.34748 2.59223 6.38263 0.878163 7.41306C0.502478 7.63994 0.239499 7.55486 0.00469606 7.14364C0 4.92207 0 2.70523 0 0.488388Z" fill="#5D953C"/>
<path d="M12.7453 0.100586C14.2856 0.100586 15.8259 0.100586 17.3662 0.100586C17.8029 0.100586 18.0002 0.225215 18.0002 0.498212C18.0002 0.901773 18.0002 1.30533 18.0002 1.70889C18.0002 1.97002 17.7983 2.10059 17.3897 2.10059C14.2809 2.10059 11.1721 2.10059 8.06331 2.10059C7.66415 2.10059 7.45752 1.97002 7.45752 1.72076C7.45752 1.30533 7.45752 0.892871 7.45752 0.477441C7.45752 0.234117 7.66884 0.103553 8.05862 0.103553C9.61771 0.100586 11.1815 0.100586 12.7453 0.100586Z" fill="#5D953C"/>
<path d="M12.7448 4.34379C14.2851 4.34379 15.8254 4.34379 17.3657 4.34379C17.8025 4.34379 17.9997 4.46842 17.9997 4.74141C17.9997 5.14794 17.9997 5.55447 17.9997 5.961C17.9997 6.20729 17.7884 6.34082 17.408 6.34082C14.2851 6.34082 11.1669 6.34082 8.04404 6.34082C7.66835 6.34082 7.45703 6.20729 7.45703 5.9699C7.45703 5.5515 7.45703 5.13311 7.45703 4.71471C7.45703 4.47138 7.66835 4.34082 8.05813 4.34082C9.61722 4.34379 11.181 4.34379 12.7448 4.34379Z" fill="#5D953C"/>
</svg>
