<svg width="13" height="16" viewBox="0 0 13 16" fill="none" xmlns="http://www.w3.org/2000/svg">
<path d="M4.65822 0C7.1406 0 9.61552 0 12.0979 0C12.7335 0.180379 12.9428 0.59664 12.9353 1.19328C12.9204 5.4877 12.9279 9.78211 12.9279 14.0765C12.9279 14.7634 12.5241 15.138 11.7839 15.138C8.23973 15.138 4.6956 15.138 1.15147 15.138C0.403762 15.138 0 14.7634 0 14.0627C0 10.8783 0 7.69387 0 4.51642C0 4.45398 0.00747707 4.39848 0.00747707 4.32217C0.104679 4.32217 0.17945 4.32217 0.25422 4.32217C1.19633 4.32217 2.13097 4.32911 3.07308 4.32217C3.23757 4.32217 3.40955 4.31523 3.56656 4.2736C4.24698 4.1071 4.64326 3.61453 4.65074 2.94851C4.65822 1.96336 4.65822 0.985149 4.65822 0ZM6.67703 8.76921C5.60033 8.76921 4.52363 8.76921 3.44693 8.76921C3.3273 8.76921 3.20766 8.76228 3.08803 8.76921C2.89363 8.78309 2.7067 8.92878 2.66184 9.10222C2.6095 9.2826 2.68427 9.48379 2.8712 9.57398C2.98335 9.62949 3.11794 9.65724 3.24505 9.65724C5.53303 9.66417 7.82102 9.66417 10.109 9.65724C10.1838 9.65724 10.2511 9.65724 10.3258 9.64336C10.5726 9.5948 10.7296 9.40054 10.7072 9.1716C10.6922 8.93572 10.4754 8.76921 10.1838 8.76921C9.00987 8.76921 7.84345 8.76921 6.67703 8.76921ZM6.66955 7.24293C7.72382 7.24293 8.77808 7.24293 9.83235 7.24293C9.97441 7.24293 10.1165 7.24986 10.266 7.23599C10.4604 7.22905 10.5875 7.12499 10.6698 6.96542C10.7446 6.81973 10.7221 6.67404 10.6174 6.54222C10.4829 6.36878 10.2959 6.34797 10.094 6.34797C7.82102 6.34797 5.54799 6.34797 3.26748 6.34797C3.19271 6.34797 3.12542 6.34797 3.05065 6.36184C2.7067 6.41041 2.53473 6.76423 2.72913 7.0348C2.84129 7.19436 3.00578 7.24293 3.20766 7.24293C4.35913 7.23599 5.5106 7.24293 6.66955 7.24293ZM4.90496 11.9328C5.48069 11.9328 6.05643 11.9328 6.62469 11.9328C6.96863 11.9328 7.18547 11.6969 7.13313 11.4055C7.09574 11.1835 6.88638 11.0378 6.5873 11.0378C5.45826 11.0378 4.32923 11.0378 3.19271 11.0378C2.84876 11.0378 2.62445 11.2251 2.63193 11.4957C2.63941 11.7593 2.85624 11.9328 3.19271 11.9328C3.76844 11.9328 4.3367 11.9328 4.90496 11.9328Z" fill="#AECA9D"/>
</svg>
