<svg width="18" height="15" viewBox="0 0 18 15" fill="none" xmlns="http://www.w3.org/2000/svg">
<path d="M0 8.7729C0.140882 8.58031 0.380381 8.52698 0.709105 8.52698C6.25046 8.52994 11.7918 8.52994 17.3332 8.52994C17.8169 8.52994 18 8.6455 18 8.95068C18 9.35068 18 9.74772 18 10.1477C18 10.3936 17.7887 10.524 17.4036 10.524C11.8059 10.524 6.2035 10.524 0.605792 10.527C0.305244 10.527 0.126794 10.4381 0.00469606 10.2811C0 9.77735 0 9.27661 0 8.7729Z" fill="#919195"/>
<path d="M0 13.0554C0.140882 12.8628 0.380381 12.8094 0.709105 12.8094C6.25046 12.8124 11.7918 12.8124 17.3332 12.8124C17.8169 12.8124 18 12.928 18 13.2332C18 13.6332 18 14.0302 18 14.4302C18 14.6761 17.7887 14.8065 17.4036 14.8065C11.8059 14.8065 6.2035 14.8065 0.605792 14.8094C0.305244 14.8094 0.126794 14.7206 0.00469606 14.5635C0 14.0598 0 13.5561 0 13.0554Z" fill="#919195"/>
<path d="M0 0.39244C0.0892251 0.288452 0.159666 0.156103 0.267675 0.0804757C0.469606 -0.0613265 0.676233 0.000121113 0.873467 0.123016C1.95826 0.775306 3.04774 1.4276 4.13253 2.07989C4.7665 2.45803 5.40047 2.84089 6.02974 3.21903C6.48056 3.48845 6.48056 3.95167 6.02974 4.2211C4.31098 5.25153 2.59223 6.28668 0.878163 7.31711C0.502478 7.544 0.239499 7.45891 0.00469606 7.04769C0 4.82612 0 2.60928 0 0.39244Z" fill="#919195"/>
<path d="M12.745 0.00476074C14.2854 0.00476074 15.8257 0.00476074 17.366 0.00476074C17.8027 0.00476074 17.9999 0.12939 17.9999 0.402387C17.9999 0.805948 17.9999 1.20951 17.9999 1.61307C17.9999 1.8742 17.798 2.00476 17.3895 2.00476C14.2807 2.00476 11.1719 2.00476 8.06307 2.00476C7.6639 2.00476 7.45728 1.8742 7.45728 1.62494C7.45728 1.20951 7.45728 0.797046 7.45728 0.381615C7.45728 0.138292 7.6686 0.0077281 8.05837 0.0077281C9.61747 0.00476074 11.1813 0.00476074 12.745 0.00476074Z" fill="#919195"/>
<path d="M12.745 4.2476C14.2854 4.2476 15.8257 4.2476 17.366 4.2476C17.8027 4.2476 17.9999 4.37223 17.9999 4.64522C17.9999 5.05175 17.9999 5.45828 17.9999 5.86481C17.9999 6.1111 17.7886 6.24463 17.4082 6.24463C14.2854 6.24463 11.1672 6.24463 8.04428 6.24463C7.6686 6.24463 7.45728 6.1111 7.45728 5.87371C7.45728 5.45531 7.45728 5.03691 7.45728 4.61852C7.45728 4.37519 7.6686 4.24463 8.05837 4.24463C9.61747 4.2476 11.1813 4.2476 12.745 4.2476Z" fill="#919195"/>
</svg>
