<svg width="18" height="18" viewBox="0 0 18 18" fill="none" xmlns="http://www.w3.org/2000/svg">
<g clip-path="url(#clip0_1041_4656)">
<path d="M17.7632 5.71233L12.2248 0.866177C12.0206 0.687548 11.7305 0.645326 11.4833 0.756806C11.2354 0.868955 11.0769 1.11544 11.0769 1.38681V2.0791H0.692297C0.309445 2.0791 0 2.38925 0 2.7714V16.6175C0 17.0004 0.309445 17.3098 0.692297 17.3098H14.5384C14.9213 17.3098 15.2307 17.0004 15.2307 16.6175V8.97033L17.7632 6.75425C17.9141 6.6227 18 6.43303 18 6.23295C18 6.03358 17.9141 5.84388 17.7632 5.71233ZM13.8461 15.9253H1.38463V3.46373H11.0769V3.63336C9.504 4.13114 5.0407 5.98514 4.84685 11.0528C4.833 11.3934 5.07048 11.6932 5.40555 11.759C5.44985 11.768 5.49485 11.7714 5.53918 11.7714C5.82511 11.7714 6.08818 11.5935 6.18855 11.3158C6.88848 9.39192 9.76641 9.05962 11.0769 9.0084V11.0791C11.0769 11.3512 11.2355 11.5977 11.4833 11.7098C11.5643 11.7472 11.6509 11.761 11.7374 11.7645C11.7484 11.7652 11.7581 11.7714 11.7692 11.7714C11.7831 11.7714 11.7962 11.7652 11.8094 11.7645C11.8613 11.761 11.9104 11.7514 11.9603 11.7375C11.9839 11.7306 12.0074 11.7257 12.0295 11.7167C12.0994 11.6884 12.1666 11.6517 12.2247 11.6004L13.8461 10.1819V15.9253H13.8461Z" fill="#5D953C"/>
</g>
<defs>
<clipPath id="clip0_1041_4656">
<rect width="18" height="18" fill="white"/>
</clipPath>
</defs>
</svg>
