<svg width="18" height="16" viewBox="0 0 18 16" fill="none" xmlns="http://www.w3.org/2000/svg">
<path d="M0 13.171C0 12.9879 0 12.8048 0 12.6216C0.00462487 12.612 0.0184995 12.6024 0.0184995 12.5927C0.175745 11.7397 0.332991 10.8915 0.494861 10.0385C0.587359 9.52767 0.665982 9.01201 0.786228 8.5108C0.971223 7.75418 1.46146 7.24333 2.09507 6.86743C2.18756 6.8096 2.26156 6.76141 2.27544 6.62647C2.36793 5.81201 2.49743 5.00237 2.56218 4.18791C2.61768 3.51321 2.91367 3.02165 3.43628 2.6602C4.53237 1.88912 6.19733 1.94213 7.29805 2.78068C7.66804 3.0602 7.96403 3.40719 8.04265 3.89394C8.07965 4.1108 8.04728 4.34213 8.04728 4.58309C8.69476 4.36623 9.32374 4.36623 9.96197 4.57345C9.96197 4.47707 9.9666 4.39996 9.96197 4.32285C9.90648 3.76382 10.1285 3.32526 10.5123 2.959C11.5714 1.95177 13.4491 1.82647 14.6192 2.67948C15.0308 2.98791 15.3453 3.37345 15.4193 3.90839C15.5349 4.76141 15.6367 5.61442 15.7292 6.47225C15.7523 6.68912 15.8263 6.8096 16.0113 6.92044C16.6588 7.32526 17.1305 7.87466 17.2785 8.67948C17.4774 9.75418 17.6901 10.8241 17.8798 11.8988C17.9538 12.318 18.0278 12.7469 18 13.1662C17.9399 13.9951 17.4866 14.6265 16.8623 15.1084C15.3315 16.2891 13.0606 16.2939 11.5206 15.1229C10.9101 14.6602 10.4707 14.0578 10.3736 13.2626C10.3135 12.7566 10.3412 12.2361 10.332 11.7253C10.332 11.6482 10.332 11.571 10.332 11.4698C9.44861 11.8361 8.58376 11.8361 7.70504 11.465C7.70504 11.8939 7.70966 12.2939 7.70504 12.6988C7.70041 12.9012 7.69579 13.1036 7.66341 13.3012C7.50154 14.2216 6.96968 14.8674 6.22508 15.3253C4.99486 16.0771 3.68602 16.1831 2.34019 15.7349C1.50771 15.4554 0.800103 14.9686 0.36074 14.159C0.18962 13.8554 0.115622 13.5036 0 13.171ZM14.1197 14.8722C14.9291 14.8626 15.6367 14.6747 16.2426 14.1831C16.6125 13.8891 16.8854 13.518 16.9317 13.0168C16.9872 12.4048 16.7004 11.9566 16.261 11.6048C15.5396 11.0216 14.7025 10.8385 13.8099 10.9204C13.1115 10.9831 12.4687 11.2192 11.9414 11.7253C11.2199 12.4144 11.2153 13.3542 11.9368 14.0482C12.5704 14.6409 13.3381 14.8578 14.1197 14.8722ZM3.82014 14.8722C4.61562 14.8626 5.32785 14.6698 5.94296 14.1638C6.83094 13.4409 6.84019 12.371 5.97071 11.6241C5.45272 11.1855 4.84687 10.9686 4.19476 10.9108C3.30678 10.8337 2.47893 11.0168 1.75745 11.5951C0.874101 12.3036 0.846352 13.3542 1.6927 14.1108C2.30781 14.6602 3.04779 14.8578 3.82014 14.8722ZM9.0185 10.7614C9.37462 10.7614 9.68911 10.6506 9.9111 10.4433C10.221 10.159 10.2302 9.74454 9.93423 9.45056C9.47636 8.99273 8.55139 8.99273 8.09353 9.44574C7.79753 9.73972 7.80216 10.1542 8.1074 10.4385C8.37102 10.6747 8.68088 10.7566 9.0185 10.7614Z" fill="#919195"/>
<path d="M12.3669 0C12.9265 0.0385542 13.3751 0.173494 13.7128 0.583133C13.9348 0.853012 13.944 1.19036 13.9671 1.51325C13.9764 1.64337 13.87 1.70602 13.7498 1.68675C13.6064 1.66747 13.463 1.62892 13.3197 1.60964C12.5982 1.51325 11.8952 1.60964 11.22 1.88916C10.9147 2.01446 10.8176 1.95663 10.8176 1.61446C10.8176 1.36386 10.7852 1.08916 10.8685 0.862651C11.035 0.4 11.4373 0.207229 11.8674 0.0819277C12.0432 0.0337349 12.2421 0.0192771 12.3669 0Z" fill="#919195"/>
<path d="M7.21945 1.37348C7.2102 1.49396 7.20558 1.61926 7.1917 1.73975C7.16858 1.94215 7.08071 1.99035 6.88646 1.93252C6.57197 1.83613 6.26211 1.72529 5.94299 1.653C5.425 1.53252 4.90702 1.56625 4.38903 1.67228C4.08379 1.73493 4.01442 1.66746 4.05142 1.34456C4.15779 0.477095 4.7914 -0.0482065 5.6655 0.0144441C6.16498 0.0481791 6.62285 0.187938 6.97896 0.583119C7.19633 0.819263 7.23333 0.963842 7.21945 1.37348Z" fill="#919195"/>
</svg>
