<svg width="18" height="18" viewBox="0 0 18 18" fill="none" xmlns="http://www.w3.org/2000/svg">
<path d="M12.3682 0.00623318L7.58865 0.0296626C7.7468 0.0735928 8.1041 0.135095 8.36182 0.568538L10.7282 4.69211L9.43957 5.44185L13.6334 5.41842L15.6952 1.8103L14.4066 2.56004L13.1883 0.427962C13.0594 0.155596 12.8573 -0.0376971 12.3682 0.00623318ZM6.46404 0.52168C5.82852 0.480679 5.09049 0.703258 4.54283 1.45886L4.5194 1.52914L2.99649 4.22352L6.65147 6.33217L8.71326 2.70061L7.82294 1.15427C7.65015 0.867263 7.09956 0.562681 6.46404 0.52168ZM15.9998 5.76986L12.3448 7.87851L14.43 11.5101H16.2107C16.8725 11.4954 18.331 10.2332 17.5696 8.53453L17.5461 8.44081L15.9998 5.76986ZM0.0912459 6.63675L1.37986 7.38649L0.138105 9.51856C-0.0200434 9.76164 -0.087403 10.0282 0.184963 10.4323L2.59819 14.5793C2.55426 14.4065 2.44883 14.0492 2.69191 13.6187L5.05828 9.51856L6.34689 10.2683L4.23825 6.63675H0.0912459ZM11.5951 10.7603L9.50986 14.3919L11.5716 18L11.5951 16.5005H14.0552C14.3422 16.5269 14.6028 16.4537 14.8049 16.0085L17.1947 11.8615C17.0805 11.9757 16.8315 12.2452 16.3278 12.2598H11.5951V10.7603ZM4.33196 12.2364L3.44165 13.7827C3.12535 14.3743 3.48265 16.2662 5.33943 16.4537L5.43315 16.4771H8.52583V12.2364H4.33196Z" fill="#5D953C"/>
</svg>
