<svg width="12" height="18" viewBox="0 0 12 18" fill="none" xmlns="http://www.w3.org/2000/svg">
<path d="M0 4.96959C0 4.21667 0.241703 3.45374 0.725216 2.68097C1.20857 1.90819 1.91414 1.26819 2.84145 0.760873C3.76882 0.253715 4.85072 0 6.08715 0C7.23631 0 8.25095 0.212159 9.13075 0.636045C10.0106 1.06015 10.6901 1.63678 11.1697 2.36589C11.6492 3.09522 11.889 3.8877 11.889 4.74369C11.889 5.41745 11.7523 6.00804 11.4788 6.51515C11.2053 7.02247 10.8802 7.46037 10.5039 7.82885C10.1273 8.19744 9.45167 8.81768 8.4768 9.68953C8.20728 9.93529 7.99117 10.1513 7.82885 10.3375C7.66631 10.5238 7.54537 10.6942 7.46621 10.8487C7.38689 11.0033 7.32537 11.1578 7.28192 11.3124C7.23825 11.4669 7.17289 11.7385 7.08578 12.1268C6.93514 12.9512 6.46347 13.3633 5.671 13.3633C5.2588 13.3633 4.91197 13.2286 4.63071 12.959C4.34929 12.6896 4.20867 12.2893 4.20867 11.7583C4.20867 11.0925 4.31158 10.5158 4.51779 10.0284C4.72383 9.5409 4.99724 9.1129 5.33813 8.74442C5.67879 8.37583 6.13861 7.93799 6.71724 7.43067C7.2244 6.98687 7.5911 6.65194 7.817 6.42603C8.0429 6.20013 8.23309 5.94863 8.38768 5.67106C8.54221 5.3937 8.61954 5.09258 8.61954 4.7675C8.61954 4.13346 8.38362 3.59848 7.91212 3.16248C7.44046 2.72669 6.83206 2.50858 6.08715 2.50858C5.21514 2.50858 4.57314 2.72853 4.1611 3.16843C3.74891 3.60833 3.40023 4.25628 3.11486 5.11228C2.84535 6.00804 2.33408 6.45574 1.58116 6.45574C1.13714 6.45574 0.762659 6.29931 0.457649 5.98613C0.152531 5.67306 0 5.33423 0 4.96959ZM5.80184 18C5.31827 18 4.89622 17.8434 4.53564 17.5303C4.1749 17.2174 3.99467 16.7795 3.99467 16.2166C3.99467 15.7173 4.1689 15.2973 4.51779 14.9564C4.86646 14.6157 5.29446 14.4452 5.80178 14.4452C6.30115 14.4452 6.72114 14.6157 7.06202 14.9564C7.40269 15.2973 7.57324 15.7173 7.57324 16.2166C7.57324 16.7715 7.3949 17.2075 7.03821 17.5244C6.68153 17.8414 6.26944 18 5.80184 18Z" fill="#F96B1C"/>
</svg>
