<svg width="15" height="12" viewBox="0 0 15 12" fill="none" xmlns="http://www.w3.org/2000/svg">
<g clip-path="url(#clip0_2_2002)">
<path d="M13.5021 4.12994V3.04379C11.9031 4.62537 10.304 6.20695 8.705 7.78853C8.66646 7.82664 8.62793 7.85999 8.59904 7.88857C8.5894 7.89333 8.58459 7.90286 8.57495 7.90763L8.06442 8.35542L6.55208 6.85959L7 6.35463C7.00482 6.3451 7.01445 6.34034 7.01927 6.33081C7.04335 6.30223 7.07706 6.25935 7.12041 6.21648C8.71463 4.63966 10.3088 3.06285 11.9079 1.48127H10.8242V0.80957H0.905478C0.404575 0.819098 0 1.22402 0 1.71469V11.1041C0 11.5996 0.404575 11.9997 0.905478 11.9997H13.5599C14.0608 11.9997 14.4654 11.5996 14.4654 11.1041V4.12994H13.5021Z" fill="#3B3B43" fill-opacity="0.5"/>
<path d="M7.54395 6.83617C7.57284 6.80283 7.60174 6.76472 7.63546 6.73613C9.61017 4.78297 11.5801 2.82982 13.5548 0.881422C13.5837 0.852839 13.6126 0.824257 13.6511 0.786146C12.9335 0.786146 12.2351 0.786146 11.5464 0.786146C11.5464 0.51461 11.5464 0.257364 11.5464 0.00488281C12.6927 0.00488281 13.8486 0.00488281 14.9949 0.00488281C14.9949 1.13867 14.9949 2.28198 14.9949 3.42053C14.7492 3.42053 14.494 3.42053 14.2243 3.42053C14.2243 2.74407 14.2243 2.04855 14.2291 1.3578C14.2194 1.35304 14.2146 1.35304 14.205 1.34827C14.1761 1.37686 14.1472 1.40544 14.1183 1.43402C12.1436 3.38718 10.1737 5.33558 8.19897 7.28873C8.16526 7.32208 8.13154 7.35066 8.09783 7.37925C7.90999 7.19822 7.72697 7.0172 7.54395 6.83617Z" fill="#3B3B43" fill-opacity="0.5"/>
</g>
<defs>
<clipPath id="clip0_2_2002">
<rect width="15" height="12" fill="white"/>
</clipPath>
</defs>
</svg>
