<svg width="16" height="14" viewBox="0 0 16 14" fill="none" xmlns="http://www.w3.org/2000/svg">
<path d="M2.8313 8.73543C3.27798 9.46812 3.9019 9.73389 4.69599 9.71953C6.65993 9.69798 8.62387 9.71234 10.5878 9.71234C10.7296 9.71234 10.8714 9.71234 11.0628 9.71234C11.0628 9.15924 11.0487 8.62769 11.0699 8.09613C11.077 7.93092 11.1408 7.70106 11.2614 7.62204C11.3535 7.56458 11.5946 7.65077 11.7222 7.74416C12.9842 8.63487 14.2463 9.53277 15.5012 10.4378C15.8699 10.7036 15.8699 10.9191 15.5083 11.1777C14.2392 12.0828 12.9772 12.9951 11.701 13.8858C11.5733 13.972 11.3606 14.0294 11.2401 13.9791C11.1408 13.9432 11.077 13.7134 11.077 13.5625C11.0558 13.0166 11.0699 12.4707 11.0699 11.8888C10.8927 11.8888 10.758 11.8888 10.6162 11.8888C8.58133 11.8888 6.54649 11.896 4.51165 11.8888C3.72465 11.8817 3.10073 11.5369 2.72495 10.8186C2.36336 10.1362 2.42008 9.45375 2.8313 8.73543Z" fill="#5D953C"/>
<path d="M13.1616 5.26568C12.7149 4.51863 12.0555 4.28158 11.2402 4.28877C9.29039 4.31032 7.33353 4.29595 5.38377 4.29595C5.24906 4.29595 5.10726 4.29595 4.9371 4.29595C4.9371 4.88497 4.95128 5.43089 4.93001 5.97681C4.92292 6.12047 4.85202 6.32879 4.74567 6.38625C4.63931 6.43653 4.42661 6.37907 4.31317 6.29287C3.02987 5.38779 1.75366 4.47553 0.477453 3.55608C0.130041 3.30467 0.130041 3.08918 0.484543 2.83777C1.76075 1.9255 3.03696 1.00606 4.32026 0.108163C4.4337 0.0291477 4.6464 -0.0355008 4.75276 0.0219645C4.85911 0.0794299 4.92292 0.287742 4.93001 0.431405C4.95128 0.977326 4.9371 1.52325 4.9371 2.11227C5.10726 2.11227 5.24197 2.11227 5.37668 2.11227C7.39025 2.11227 9.39674 2.10508 11.4103 2.11227C12.4313 2.11227 13.1757 2.65819 13.431 3.57045C13.5941 4.16665 13.5232 4.72694 13.1616 5.26568Z" fill="#5D953C"/>
</svg>
