<svg width="13" height="15" viewBox="0 0 13 15" fill="none" xmlns="http://www.w3.org/2000/svg">
<path d="M4.60341 0C6.93064 0 9.25087 0 11.5781 0C12.1739 0.169106 12.3702 0.55935 12.3632 1.1187C12.3492 5.14472 12.3562 9.17073 12.3562 13.1967C12.3562 13.8406 11.9777 14.1919 11.2837 14.1919C7.96108 14.1919 4.63845 14.1919 1.31583 14.1919C0.614855 14.1919 0.236328 13.8406 0.236328 13.1837C0.236328 10.1984 0.236328 7.21301 0.236328 4.23415C0.236328 4.17561 0.243338 4.12358 0.243338 4.05203C0.334465 4.05203 0.404562 4.05203 0.47466 4.05203C1.35789 4.05203 2.23411 4.05854 3.11734 4.05203C3.27155 4.05203 3.43278 4.04553 3.57998 4.0065C4.21787 3.85041 4.58939 3.38862 4.5964 2.76423C4.60341 1.84065 4.60341 0.923577 4.60341 0ZM6.49604 8.22114C5.48664 8.22114 4.47723 8.22114 3.46783 8.22114C3.35567 8.22114 3.24351 8.21463 3.13136 8.22114C2.9491 8.23415 2.77386 8.37073 2.7318 8.53333C2.68273 8.70244 2.75283 8.89106 2.92807 8.97561C3.03322 9.02764 3.1594 9.05366 3.27856 9.05366C5.42355 9.06016 7.56853 9.06016 9.71352 9.05366C9.78362 9.05366 9.8467 9.05366 9.9168 9.04065C10.1481 8.99512 10.2953 8.81301 10.2743 8.59837C10.2603 8.37724 10.057 8.22114 9.78362 8.22114C8.68308 8.22114 7.58956 8.22114 6.49604 8.22114ZM6.48903 6.79024C7.47741 6.79024 8.46578 6.79024 9.45416 6.79024C9.58734 6.79024 9.72053 6.79675 9.86072 6.78374C10.043 6.77724 10.1621 6.67967 10.2392 6.53008C10.3093 6.3935 10.2883 6.25691 10.1902 6.13333C10.064 5.97073 9.88876 5.95122 9.6995 5.95122C7.56853 5.95122 5.43757 5.95122 3.29959 5.95122C3.22949 5.95122 3.16641 5.95122 3.09631 5.96423C2.77386 6.00976 2.61264 6.34146 2.79489 6.59512C2.90004 6.74472 3.05425 6.79024 3.24351 6.79024C4.32302 6.78374 5.40252 6.79024 6.48903 6.79024ZM4.83473 11.187C5.37448 11.187 5.91423 11.187 6.44697 11.187C6.76942 11.187 6.9727 10.9659 6.92364 10.6927C6.88859 10.4846 6.69231 10.348 6.41192 10.348C5.35345 10.348 4.29498 10.348 3.22949 10.348C2.90705 10.348 2.69675 10.5236 2.70376 10.7772C2.71077 11.0244 2.91405 11.187 3.22949 11.187C3.76925 11.187 4.30199 11.187 4.83473 11.187Z" fill="#5D953C"/>
</svg>
