<svg width="30" height="28" viewBox="0 0 30 28" fill="none" xmlns="http://www.w3.org/2000/svg">
<g clip-path="url(#clip0_1934_26666)">
<path d="M5.03192 17.4689C5.89337 18.9343 7.09665 19.4658 8.6281 19.4371C12.4157 19.394 16.2033 19.4227 19.9909 19.4227C20.2644 19.4227 20.5379 19.4227 20.907 19.4227C20.907 18.3165 20.8797 17.2534 20.9207 16.1903C20.9344 15.8599 21.0575 15.4002 21.2899 15.2421C21.4677 15.1272 21.9326 15.2996 22.1787 15.4864C24.6126 17.2678 27.0465 19.0636 29.4668 20.8737C30.1778 21.4053 30.1778 21.8363 29.4804 22.3535C27.0328 24.1636 24.5989 25.9882 22.1377 27.7696C21.8915 27.942 21.4813 28.0569 21.2489 27.9563C21.0575 27.8845 20.9344 27.4248 20.9344 27.1231C20.8934 26.0313 20.9207 24.9394 20.9207 23.7757C20.5789 23.7757 20.3191 23.7757 20.0456 23.7757C16.1213 23.7757 12.1969 23.7901 8.27258 23.7757C6.75481 23.7614 5.55152 23.0718 4.82682 21.6352C4.12946 20.2704 4.23885 18.9055 5.03192 17.4689Z" fill="#5D953C"/>
<path d="M24.9542 10.5304C24.0928 9.03628 22.8211 8.56219 21.2487 8.57656C17.4884 8.61965 13.7145 8.59092 9.95421 8.59092C9.69441 8.59092 9.42093 8.59092 9.09276 8.59092C9.09276 9.76896 9.12011 10.8608 9.07909 11.9526C9.06542 12.24 8.92868 12.6566 8.72357 12.7715C8.51847 12.8721 8.10826 12.7572 7.88948 12.5848C5.41455 10.7746 2.95328 8.95008 0.492022 7.11119C-0.177988 6.60837 -0.177988 6.17738 0.505696 5.67456C2.96696 3.85003 5.42822 2.01114 7.90315 0.215349C8.12193 0.0573188 8.53214 -0.0719782 8.73725 0.0429525C8.94235 0.157883 9.06542 0.574507 9.07909 0.861834C9.12011 1.95368 9.09276 3.04552 9.09276 4.22356C9.42093 4.22356 9.68073 4.22356 9.94053 4.22356C13.8239 4.22356 17.6935 4.20919 21.5768 4.22356C23.5458 4.22356 24.9816 5.3154 25.4738 7.13992C25.7883 8.33233 25.6516 9.4529 24.9542 10.5304Z" fill="#5D953C"/>
</g>
<defs>
<clipPath id="clip0_1934_26666">
<rect width="30" height="28" fill="white"/>
</clipPath>
</defs>
</svg>
