<svg width="165" height="18" viewBox="0 0 165 18" fill="none" xmlns="http://www.w3.org/2000/svg">
<g opacity="0.5">
<path d="M13.8431 17.0008H1.53546C1.20914 17.0004 0.896289 16.8706 0.665549 16.6399C0.434809 16.4091 0.30503 16.0963 0.304688 15.77V7.1546C0.30503 6.82828 0.434809 6.51543 0.665549 6.28469C0.896289 6.05395 1.20914 5.92417 1.53546 5.92383H13.8431C14.1695 5.92417 14.4823 6.05395 14.7131 6.28469C14.9438 6.51543 15.0736 6.82828 15.0739 7.1546V15.77C15.0736 16.0963 14.9438 16.4091 14.7131 16.6399C14.4823 16.8706 14.1695 17.0004 13.8431 17.0008Z" fill="#5D953C"/>
<path d="M5.84277 9V13.9231L10.1505 11.4615L5.84277 9Z" fill="white"/>
<path d="M13.8428 3.46094H1.53516V4.69171H13.8428V3.46094Z" fill="#5D953C"/>
<path d="M12.6128 1H2.7666V2.23077H12.6128V1Z" fill="#5D953C"/>
</g>
<path d="M33.402 13L31.41 9.58H30.09V13H28.998V4.636H31.698C32.33 4.636 32.862 4.744 33.294 4.96C33.734 5.176 34.062 5.468 34.278 5.836C34.494 6.204 34.602 6.624 34.602 7.096C34.602 7.672 34.434 8.18 34.098 8.62C33.77 9.06 33.274 9.352 32.61 9.496L34.71 13H33.402ZM30.09 8.704H31.698C32.29 8.704 32.734 8.56 33.03 8.272C33.326 7.976 33.474 7.584 33.474 7.096C33.474 6.6 33.326 6.216 33.03 5.944C32.742 5.672 32.298 5.536 31.698 5.536H30.09V8.704ZM42.2988 9.46C42.2988 9.668 42.2868 9.888 42.2628 10.12H37.0068C37.0468 10.768 37.2668 11.276 37.6668 11.644C38.0748 12.004 38.5668 12.184 39.1428 12.184C39.6148 12.184 40.0068 12.076 40.3188 11.86C40.6388 11.636 40.8628 11.34 40.9908 10.972H42.1668C41.9908 11.604 41.6388 12.12 41.1108 12.52C40.5828 12.912 39.9268 13.108 39.1428 13.108C38.5188 13.108 37.9588 12.968 37.4628 12.688C36.9748 12.408 36.5908 12.012 36.3108 11.5C36.0308 10.98 35.8908 10.38 35.8908 9.7C35.8908 9.02 36.0268 8.424 36.2988 7.912C36.5708 7.4 36.9508 7.008 37.4388 6.736C37.9348 6.456 38.5028 6.316 39.1428 6.316C39.7668 6.316 40.3188 6.452 40.7988 6.724C41.2788 6.996 41.6468 7.372 41.9028 7.852C42.1668 8.324 42.2988 8.86 42.2988 9.46ZM41.1708 9.232C41.1708 8.816 41.0788 8.46 40.8948 8.164C40.7108 7.86 40.4588 7.632 40.1388 7.48C39.8268 7.32 39.4788 7.24 39.0948 7.24C38.5428 7.24 38.0708 7.416 37.6788 7.768C37.2948 8.12 37.0748 8.608 37.0188 9.232H41.1708ZM44.8322 7.636C45.0482 7.26 45.3682 6.948 45.7922 6.7C46.2242 6.444 46.7242 6.316 47.2922 6.316C47.8762 6.316 48.4042 6.456 48.8762 6.736C49.3562 7.016 49.7322 7.412 50.0042 7.924C50.2762 8.428 50.4122 9.016 50.4122 9.688C50.4122 10.352 50.2762 10.944 50.0042 11.464C49.7322 11.984 49.3562 12.388 48.8762 12.676C48.4042 12.964 47.8762 13.108 47.2922 13.108C46.7322 13.108 46.2362 12.984 45.8042 12.736C45.3802 12.48 45.0562 12.164 44.8322 11.788V16.12H43.7402V6.424H44.8322V7.636ZM49.2962 9.688C49.2962 9.192 49.1962 8.76 48.9962 8.392C48.7962 8.024 48.5242 7.744 48.1802 7.552C47.8442 7.36 47.4722 7.264 47.0642 7.264C46.6642 7.264 46.2922 7.364 45.9482 7.564C45.6122 7.756 45.3402 8.04 45.1322 8.416C44.9322 8.784 44.8322 9.212 44.8322 9.7C44.8322 10.196 44.9322 10.632 45.1322 11.008C45.3402 11.376 45.6122 11.66 45.9482 11.86C46.2922 12.052 46.6642 12.148 47.0642 12.148C47.4722 12.148 47.8442 12.052 48.1802 11.86C48.5242 11.66 48.7962 11.376 48.9962 11.008C49.1962 10.632 49.2962 10.192 49.2962 9.688ZM52.9415 4.12V13H51.8495V4.12H52.9415ZM54.3947 9.688C54.3947 9.016 54.5307 8.428 54.8027 7.924C55.0747 7.412 55.4467 7.016 55.9187 6.736C56.3987 6.456 56.9307 6.316 57.5147 6.316C58.0907 6.316 58.5907 6.44 59.0147 6.688C59.4387 6.936 59.7547 7.248 59.9627 7.624V6.424H61.0667V13H59.9627V11.776C59.7467 12.16 59.4227 12.48 58.9907 12.736C58.5667 12.984 58.0707 13.108 57.5027 13.108C56.9187 13.108 56.3907 12.964 55.9187 12.676C55.4467 12.388 55.0747 11.984 54.8027 11.464C54.5307 10.944 54.3947 10.352 54.3947 9.688ZM59.9627 9.7C59.9627 9.204 59.8627 8.772 59.6627 8.404C59.4627 8.036 59.1907 7.756 58.8467 7.564C58.5107 7.364 58.1387 7.264 57.7307 7.264C57.3227 7.264 56.9507 7.36 56.6147 7.552C56.2787 7.744 56.0107 8.024 55.8107 8.392C55.6107 8.76 55.5107 9.192 55.5107 9.688C55.5107 10.192 55.6107 10.632 55.8107 11.008C56.0107 11.376 56.2787 11.66 56.6147 11.86C56.9507 12.052 57.3227 12.148 57.7307 12.148C58.1387 12.148 58.5107 12.052 58.8467 11.86C59.1907 11.66 59.4627 11.376 59.6627 11.008C59.8627 10.632 59.9627 10.196 59.9627 9.7ZM62.504 9.7C62.504 9.02 62.64 8.428 62.912 7.924C63.184 7.412 63.56 7.016 64.04 6.736C64.528 6.456 65.084 6.316 65.708 6.316C66.516 6.316 67.18 6.512 67.7 6.904C68.228 7.296 68.576 7.84 68.744 8.536H67.568C67.456 8.136 67.236 7.82 66.908 7.588C66.588 7.356 66.188 7.24 65.708 7.24C65.084 7.24 64.58 7.456 64.196 7.888C63.812 8.312 63.62 8.916 63.62 9.7C63.62 10.492 63.812 11.104 64.196 11.536C64.58 11.968 65.084 12.184 65.708 12.184C66.188 12.184 66.588 12.072 66.908 11.848C67.228 11.624 67.448 11.304 67.568 10.888H68.744C68.568 11.56 68.216 12.1 67.688 12.508C67.16 12.908 66.5 13.108 65.708 13.108C65.084 13.108 64.528 12.968 64.04 12.688C63.56 12.408 63.184 12.012 62.912 11.5C62.64 10.988 62.504 10.388 62.504 9.7ZM76.2011 9.46C76.2011 9.668 76.1891 9.888 76.1651 10.12H70.9091C70.9491 10.768 71.1691 11.276 71.5691 11.644C71.9771 12.004 72.4691 12.184 73.0451 12.184C73.5171 12.184 73.9091 12.076 74.2211 11.86C74.5411 11.636 74.7651 11.34 74.8931 10.972H76.0691C75.8931 11.604 75.5411 12.12 75.0131 12.52C74.4851 12.912 73.8291 13.108 73.0451 13.108C72.4211 13.108 71.8611 12.968 71.3651 12.688C70.8771 12.408 70.4931 12.012 70.2131 11.5C69.9331 10.98 69.7931 10.38 69.7931 9.7C69.7931 9.02 69.9291 8.424 70.2011 7.912C70.4731 7.4 70.8531 7.008 71.3411 6.736C71.8371 6.456 72.4051 6.316 73.0451 6.316C73.6691 6.316 74.2211 6.452 74.7011 6.724C75.1811 6.996 75.5491 7.372 75.8051 7.852C76.0691 8.324 76.2011 8.86 76.2011 9.46ZM75.0731 9.232C75.0731 8.816 74.9811 8.46 74.7971 8.164C74.6131 7.86 74.3611 7.632 74.0411 7.48C73.7291 7.32 73.3811 7.24 72.9971 7.24C72.4451 7.24 71.9731 7.416 71.5811 7.768C71.1971 8.12 70.9771 8.608 70.9211 9.232H75.0731ZM89.6017 6.424L87.5497 13H86.4217L84.8377 7.78L83.2537 13H82.1257L80.0617 6.424H81.1777L82.6897 11.944L84.3217 6.424H85.4377L87.0337 11.956L88.5217 6.424H89.6017ZM91.2495 5.356C91.0415 5.356 90.8655 5.284 90.7215 5.14C90.5775 4.996 90.5055 4.82 90.5055 4.612C90.5055 4.404 90.5775 4.228 90.7215 4.084C90.8655 3.94 91.0415 3.868 91.2495 3.868C91.4495 3.868 91.6175 3.94 91.7535 4.084C91.8975 4.228 91.9695 4.404 91.9695 4.612C91.9695 4.82 91.8975 4.996 91.7535 5.14C91.6175 5.284 91.4495 5.356 91.2495 5.356ZM91.7775 6.424V13H90.6855V6.424H91.7775ZM94.9706 7.324V11.2C94.9706 11.52 95.0386 11.748 95.1746 11.884C95.3106 12.012 95.5466 12.076 95.8826 12.076H96.6866V13H95.7026C95.0946 13 94.6386 12.86 94.3346 12.58C94.0306 12.3 93.8786 11.84 93.8786 11.2V7.324H93.0266V6.424H93.8786V4.768H94.9706V6.424H96.6866V7.324H94.9706ZM101.274 6.304C101.77 6.304 102.218 6.412 102.618 6.628C103.018 6.836 103.33 7.152 103.554 7.576C103.786 8 103.902 8.516 103.902 9.124V13H102.822V9.28C102.822 8.624 102.658 8.124 102.33 7.78C102.002 7.428 101.554 7.252 100.986 7.252C100.41 7.252 99.9497 7.432 99.6057 7.792C99.2697 8.152 99.1017 8.676 99.1017 9.364V13H98.0097V4.12H99.1017V7.36C99.3177 7.024 99.6137 6.764 99.9897 6.58C100.374 6.396 100.802 6.304 101.274 6.304ZM117.369 4.696V13H116.277V6.808L113.517 13H112.749L109.977 6.796V13H108.885V4.696H110.061L113.133 11.56L116.205 4.696H117.369ZM125.221 9.46C125.221 9.668 125.209 9.888 125.185 10.12H119.929C119.969 10.768 120.189 11.276 120.589 11.644C120.997 12.004 121.489 12.184 122.065 12.184C122.537 12.184 122.929 12.076 123.241 11.86C123.561 11.636 123.785 11.34 123.913 10.972H125.089C124.913 11.604 124.561 12.12 124.033 12.52C123.505 12.912 122.849 13.108 122.065 13.108C121.441 13.108 120.881 12.968 120.385 12.688C119.897 12.408 119.513 12.012 119.233 11.5C118.953 10.98 118.813 10.38 118.813 9.7C118.813 9.02 118.949 8.424 119.221 7.912C119.493 7.4 119.873 7.008 120.361 6.736C120.857 6.456 121.425 6.316 122.065 6.316C122.689 6.316 123.241 6.452 123.721 6.724C124.201 6.996 124.569 7.372 124.825 7.852C125.089 8.324 125.221 8.86 125.221 9.46ZM124.093 9.232C124.093 8.816 124.001 8.46 123.817 8.164C123.633 7.86 123.381 7.632 123.061 7.48C122.749 7.32 122.401 7.24 122.017 7.24C121.465 7.24 120.993 7.416 120.601 7.768C120.217 8.12 119.997 8.608 119.941 9.232H124.093ZM126.254 9.688C126.254 9.016 126.39 8.428 126.662 7.924C126.934 7.412 127.306 7.016 127.778 6.736C128.258 6.456 128.794 6.316 129.386 6.316C129.898 6.316 130.374 6.436 130.814 6.676C131.254 6.908 131.59 7.216 131.822 7.6V4.12H132.926V13H131.822V11.764C131.606 12.156 131.286 12.48 130.862 12.736C130.438 12.984 129.942 13.108 129.374 13.108C128.79 13.108 128.258 12.964 127.778 12.676C127.306 12.388 126.934 11.984 126.662 11.464C126.39 10.944 126.254 10.352 126.254 9.688ZM131.822 9.7C131.822 9.204 131.722 8.772 131.522 8.404C131.322 8.036 131.05 7.756 130.706 7.564C130.37 7.364 129.998 7.264 129.59 7.264C129.182 7.264 128.81 7.36 128.474 7.552C128.138 7.744 127.87 8.024 127.67 8.392C127.47 8.76 127.37 9.192 127.37 9.688C127.37 10.192 127.47 10.632 127.67 11.008C127.87 11.376 128.138 11.66 128.474 11.86C128.81 12.052 129.182 12.148 129.59 12.148C129.998 12.148 130.37 12.052 130.706 11.86C131.05 11.66 131.322 11.376 131.522 11.008C131.722 10.632 131.822 10.196 131.822 9.7ZM135.335 5.356C135.127 5.356 134.951 5.284 134.807 5.14C134.663 4.996 134.591 4.82 134.591 4.612C134.591 4.404 134.663 4.228 134.807 4.084C134.951 3.94 135.127 3.868 135.335 3.868C135.535 3.868 135.703 3.94 135.839 4.084C135.983 4.228 136.055 4.404 136.055 4.612C136.055 4.82 135.983 4.996 135.839 5.14C135.703 5.284 135.535 5.356 135.335 5.356ZM135.863 6.424V13H134.771V6.424H135.863ZM137.317 9.688C137.317 9.016 137.453 8.428 137.725 7.924C137.997 7.412 138.369 7.016 138.841 6.736C139.321 6.456 139.853 6.316 140.437 6.316C141.013 6.316 141.513 6.44 141.937 6.688C142.361 6.936 142.677 7.248 142.885 7.624V6.424H143.989V13H142.885V11.776C142.669 12.16 142.345 12.48 141.913 12.736C141.489 12.984 140.993 13.108 140.425 13.108C139.841 13.108 139.313 12.964 138.841 12.676C138.369 12.388 137.997 11.984 137.725 11.464C137.453 10.944 137.317 10.352 137.317 9.688ZM142.885 9.7C142.885 9.204 142.785 8.772 142.585 8.404C142.385 8.036 142.113 7.756 141.769 7.564C141.433 7.364 141.061 7.264 140.653 7.264C140.245 7.264 139.873 7.36 139.537 7.552C139.201 7.744 138.933 8.024 138.733 8.392C138.533 8.76 138.433 9.192 138.433 9.688C138.433 10.192 138.533 10.632 138.733 11.008C138.933 11.376 139.201 11.66 139.537 11.86C139.873 12.052 140.245 12.148 140.653 12.148C141.061 12.148 141.433 12.052 141.769 11.86C142.113 11.66 142.385 11.376 142.585 11.008C142.785 10.632 142.885 10.196 142.885 9.7Z" fill="#6A6A6A"/>
</svg>
