<svg width="197" height="18" viewBox="0 0 197 18" fill="none" xmlns="http://www.w3.org/2000/svg">
<g clip-path="url(#clip0_163_209)">
<path d="M4.60316 1C6.9304 1 9.25063 1 11.5779 1C12.1737 1.16911 12.37 1.55935 12.363 2.1187C12.3489 6.14472 12.356 10.1707 12.356 14.1967C12.356 14.8406 11.9774 15.1919 11.2835 15.1919C7.96084 15.1919 4.63821 15.1919 1.31559 15.1919C0.614611 15.1919 0.236084 14.8406 0.236084 14.1837C0.236084 11.1984 0.236084 8.21301 0.236084 5.23415C0.236084 5.17561 0.243094 5.12358 0.243094 5.05203C0.334221 5.05203 0.404318 5.05203 0.474416 5.05203C1.35764 5.05203 2.23386 5.05854 3.11709 5.05203C3.27131 5.05203 3.43253 5.04553 3.57974 5.0065C4.21763 4.85041 4.58914 4.38862 4.59615 3.76423C4.60316 2.84065 4.60316 1.92358 4.60316 1ZM6.4958 9.22114C5.48639 9.22114 4.47699 9.22114 3.46758 9.22114C3.35543 9.22114 3.24327 9.21463 3.13111 9.22114C2.94886 9.23415 2.77362 9.37073 2.73156 9.53333C2.68249 9.70244 2.75259 9.89106 2.92783 9.97561C3.03298 10.0276 3.15915 10.0537 3.27832 10.0537C5.4233 10.0602 7.56829 10.0602 9.71327 10.0537C9.78337 10.0537 9.84646 10.0537 9.91656 10.0407C10.1479 9.99512 10.2951 9.81301 10.2741 9.59837C10.26 9.37724 10.0568 9.22114 9.78337 9.22114C8.68284 9.22114 7.58932 9.22114 6.4958 9.22114ZM6.48879 7.79024C7.47716 7.79024 8.46554 7.79024 9.45391 7.79024C9.5871 7.79024 9.72028 7.79675 9.86048 7.78374C10.0427 7.77724 10.1619 7.67967 10.239 7.53008C10.3091 7.3935 10.2881 7.25691 10.1899 7.13333C10.0638 6.97073 9.88852 6.95122 9.69925 6.95122C7.56829 6.95122 5.43732 6.95122 3.29935 6.95122C3.22925 6.95122 3.16616 6.95122 3.09606 6.96423C2.77362 7.00976 2.61239 7.34146 2.79464 7.59512C2.89979 7.74472 3.05401 7.79024 3.24327 7.79024C4.32277 7.78374 5.40227 7.79024 6.48879 7.79024ZM4.83448 12.187C5.37423 12.187 5.91399 12.187 6.44673 12.187C6.76918 12.187 6.97246 11.9659 6.92339 11.6927C6.88834 11.4846 6.69207 11.348 6.41168 11.348C5.35321 11.348 4.29473 11.348 3.22925 11.348C2.9068 11.348 2.69651 11.5236 2.70352 11.7772C2.71053 12.0244 2.91381 12.187 3.22925 12.187C3.769 12.187 4.30174 12.187 4.83448 12.187Z" fill="#5D953C" fill-opacity="0.5"/>
<path d="M2.23409 15.6936C2.23409 15.8172 2.23409 15.9278 2.23409 16.0318C2.23409 16.6432 2.61963 17.001 3.27854 17.001C6.61519 17.001 9.95884 17.001 13.2955 17.001C13.9544 17.001 14.3469 16.6432 14.3469 16.0318C14.3469 11.9473 14.3469 7.86274 14.3469 3.77819C14.3469 3.62209 14.3189 3.44648 14.2488 3.30989C13.9965 2.8416 13.5548 2.74404 12.8959 2.8351C12.8959 2.90014 12.8959 2.96518 12.8959 3.03672C12.8959 6.75055 12.8959 10.4644 12.8959 14.1782C12.8959 14.4318 12.8749 14.679 12.7417 14.9066C12.4403 15.4465 11.9496 15.6936 11.3047 15.6936C8.3536 15.6936 5.4025 15.6936 2.44438 15.6936C2.38129 15.6936 2.31821 15.6936 2.23409 15.6936ZM4.06364 2.62697C4.06364 2.23672 4.05663 1.84648 4.06364 1.45624C4.06364 1.26762 4.00055 1.12453 3.81128 1.05298C3.62202 0.981439 3.4608 1.04648 3.32761 1.17656C2.35326 2.07412 1.38591 2.97168 0.411554 3.87575C0.278368 3.99933 0.208271 4.13591 0.278368 4.31152C0.355476 4.49363 0.5167 4.55217 0.705963 4.55217C1.54012 4.55217 2.38129 4.55867 3.21546 4.55217C3.74119 4.54567 4.05663 4.23347 4.05663 3.74567C4.06364 3.37493 4.06364 2.9977 4.06364 2.62697Z" fill="white"/>
<path d="M2.23413 15.6934C2.31825 15.6934 2.38134 15.6934 2.45143 15.6934C5.40254 15.6934 8.35365 15.6934 11.3118 15.6934C11.9567 15.6934 12.4473 15.4462 12.7488 14.9064C12.8749 14.6787 12.903 14.4316 12.903 14.1779C12.903 10.4641 12.903 6.75027 12.903 3.03645C12.903 2.97141 12.903 2.89986 12.903 2.83482C13.5619 2.75027 14.0035 2.84133 14.2559 3.30962C14.326 3.4462 14.354 3.62181 14.354 3.77791C14.361 7.86247 14.361 11.947 14.354 16.0316C14.354 16.643 13.9615 17.0007 13.3025 17.0007C9.96589 17.0007 6.62224 17.0007 3.28559 17.0007C2.62668 17.0007 2.24114 16.643 2.24114 16.0316C2.23413 15.9275 2.23413 15.8169 2.23413 15.6934Z" fill="#5D953C" fill-opacity="0.5"/>
<path d="M4.06347 2.62566C4.06347 3.00289 4.06347 3.37363 4.06347 3.75086C4.06347 4.23867 3.74102 4.55086 3.22229 4.55736C2.38813 4.56387 1.54696 4.55736 0.7128 4.55736C0.516527 4.55736 0.362312 4.49883 0.285204 4.31671C0.215107 4.1411 0.285204 4.00452 0.41839 3.88094C1.38574 2.97037 2.35308 2.07281 3.32744 1.16875C3.46764 1.03867 3.62886 0.973626 3.81111 1.04517C3.99337 1.11672 4.06347 1.26631 4.06347 1.44842C4.05646 1.83867 4.06347 2.23541 4.06347 2.62566Z" fill="#5D953C" fill-opacity="0.5"/>
</g>
<path d="M33.6818 13L31.6898 9.58H30.3698V13H29.2778V4.636H31.9778C32.6098 4.636 33.1418 4.744 33.5738 4.96C34.0138 5.176 34.3418 5.468 34.5578 5.836C34.7738 6.204 34.8818 6.624 34.8818 7.096C34.8818 7.672 34.7138 8.18 34.3778 8.62C34.0498 9.06 33.5538 9.352 32.8898 9.496L34.9898 13H33.6818ZM30.3698 8.704H31.9778C32.5698 8.704 33.0138 8.56 33.3098 8.272C33.6058 7.976 33.7538 7.584 33.7538 7.096C33.7538 6.6 33.6058 6.216 33.3098 5.944C33.0218 5.672 32.5778 5.536 31.9778 5.536H30.3698V8.704ZM42.5785 9.46C42.5785 9.668 42.5665 9.888 42.5425 10.12H37.2865C37.3265 10.768 37.5465 11.276 37.9465 11.644C38.3545 12.004 38.8465 12.184 39.4225 12.184C39.8945 12.184 40.2865 12.076 40.5985 11.86C40.9185 11.636 41.1425 11.34 41.2705 10.972H42.4465C42.2705 11.604 41.9185 12.12 41.3905 12.52C40.8625 12.912 40.2065 13.108 39.4225 13.108C38.7985 13.108 38.2385 12.968 37.7425 12.688C37.2545 12.408 36.8705 12.012 36.5905 11.5C36.3105 10.98 36.1705 10.38 36.1705 9.7C36.1705 9.02 36.3065 8.424 36.5785 7.912C36.8505 7.4 37.2305 7.008 37.7185 6.736C38.2145 6.456 38.7825 6.316 39.4225 6.316C40.0465 6.316 40.5985 6.452 41.0785 6.724C41.5585 6.996 41.9265 7.372 42.1825 7.852C42.4465 8.324 42.5785 8.86 42.5785 9.46ZM41.4505 9.232C41.4505 8.816 41.3585 8.46 41.1745 8.164C40.9905 7.86 40.7385 7.632 40.4185 7.48C40.1065 7.32 39.7585 7.24 39.3745 7.24C38.8225 7.24 38.3505 7.416 37.9585 7.768C37.5745 8.12 37.3545 8.608 37.2985 9.232H41.4505ZM45.1119 7.636C45.3279 7.26 45.6479 6.948 46.0719 6.7C46.5039 6.444 47.0039 6.316 47.5719 6.316C48.1559 6.316 48.6839 6.456 49.1559 6.736C49.6359 7.016 50.0119 7.412 50.2839 7.924C50.5559 8.428 50.6919 9.016 50.6919 9.688C50.6919 10.352 50.5559 10.944 50.2839 11.464C50.0119 11.984 49.6359 12.388 49.1559 12.676C48.6839 12.964 48.1559 13.108 47.5719 13.108C47.0119 13.108 46.5159 12.984 46.0839 12.736C45.6599 12.48 45.3359 12.164 45.1119 11.788V16.12H44.0199V6.424H45.1119V7.636ZM49.5759 9.688C49.5759 9.192 49.4759 8.76 49.2759 8.392C49.0759 8.024 48.8039 7.744 48.4599 7.552C48.1239 7.36 47.7519 7.264 47.3439 7.264C46.9439 7.264 46.5719 7.364 46.2279 7.564C45.8919 7.756 45.6199 8.04 45.4119 8.416C45.2119 8.784 45.1119 9.212 45.1119 9.7C45.1119 10.196 45.2119 10.632 45.4119 11.008C45.6199 11.376 45.8919 11.66 46.2279 11.86C46.5719 12.052 46.9439 12.148 47.3439 12.148C47.7519 12.148 48.1239 12.052 48.4599 11.86C48.8039 11.66 49.0759 11.376 49.2759 11.008C49.4759 10.632 49.5759 10.192 49.5759 9.688ZM53.2213 4.12V13H52.1293V4.12H53.2213ZM54.6744 9.688C54.6744 9.016 54.8104 8.428 55.0824 7.924C55.3544 7.412 55.7264 7.016 56.1984 6.736C56.6784 6.456 57.2104 6.316 57.7944 6.316C58.3704 6.316 58.8704 6.44 59.2944 6.688C59.7184 6.936 60.0344 7.248 60.2424 7.624V6.424H61.3464V13H60.2424V11.776C60.0264 12.16 59.7024 12.48 59.2704 12.736C58.8464 12.984 58.3504 13.108 57.7824 13.108C57.1984 13.108 56.6704 12.964 56.1984 12.676C55.7264 12.388 55.3544 11.984 55.0824 11.464C54.8104 10.944 54.6744 10.352 54.6744 9.688ZM60.2424 9.7C60.2424 9.204 60.1424 8.772 59.9424 8.404C59.7424 8.036 59.4704 7.756 59.1264 7.564C58.7904 7.364 58.4184 7.264 58.0104 7.264C57.6024 7.264 57.2304 7.36 56.8944 7.552C56.5584 7.744 56.2904 8.024 56.0904 8.392C55.8904 8.76 55.7904 9.192 55.7904 9.688C55.7904 10.192 55.8904 10.632 56.0904 11.008C56.2904 11.376 56.5584 11.66 56.8944 11.86C57.2304 12.052 57.6024 12.148 58.0104 12.148C58.4184 12.148 58.7904 12.052 59.1264 11.86C59.4704 11.66 59.7424 11.376 59.9424 11.008C60.1424 10.632 60.2424 10.196 60.2424 9.7ZM62.7838 9.7C62.7838 9.02 62.9198 8.428 63.1918 7.924C63.4638 7.412 63.8398 7.016 64.3198 6.736C64.8078 6.456 65.3638 6.316 65.9878 6.316C66.7958 6.316 67.4598 6.512 67.9798 6.904C68.5078 7.296 68.8558 7.84 69.0238 8.536H67.8478C67.7358 8.136 67.5158 7.82 67.1878 7.588C66.8678 7.356 66.4678 7.24 65.9878 7.24C65.3638 7.24 64.8598 7.456 64.4758 7.888C64.0918 8.312 63.8998 8.916 63.8998 9.7C63.8998 10.492 64.0918 11.104 64.4758 11.536C64.8598 11.968 65.3638 12.184 65.9878 12.184C66.4678 12.184 66.8678 12.072 67.1878 11.848C67.5078 11.624 67.7278 11.304 67.8478 10.888H69.0238C68.8478 11.56 68.4958 12.1 67.9678 12.508C67.4398 12.908 66.7798 13.108 65.9878 13.108C65.3638 13.108 64.8078 12.968 64.3198 12.688C63.8398 12.408 63.4638 12.012 63.1918 11.5C62.9198 10.988 62.7838 10.388 62.7838 9.7ZM76.4809 9.46C76.4809 9.668 76.4689 9.888 76.4449 10.12H71.1889C71.2289 10.768 71.4489 11.276 71.8489 11.644C72.2569 12.004 72.7489 12.184 73.3249 12.184C73.7969 12.184 74.1889 12.076 74.5009 11.86C74.8209 11.636 75.0449 11.34 75.1729 10.972H76.3489C76.1729 11.604 75.8209 12.12 75.2929 12.52C74.7649 12.912 74.1089 13.108 73.3249 13.108C72.7009 13.108 72.1409 12.968 71.6449 12.688C71.1569 12.408 70.7729 12.012 70.4929 11.5C70.2129 10.98 70.0729 10.38 70.0729 9.7C70.0729 9.02 70.2089 8.424 70.4809 7.912C70.7529 7.4 71.1329 7.008 71.6209 6.736C72.1169 6.456 72.6849 6.316 73.3249 6.316C73.9489 6.316 74.5009 6.452 74.9809 6.724C75.4609 6.996 75.8289 7.372 76.0849 7.852C76.3489 8.324 76.4809 8.86 76.4809 9.46ZM75.3529 9.232C75.3529 8.816 75.2609 8.46 75.0769 8.164C74.8929 7.86 74.6409 7.632 74.3209 7.48C74.0089 7.32 73.6609 7.24 73.2769 7.24C72.7249 7.24 72.2529 7.416 71.8609 7.768C71.4769 8.12 71.2569 8.608 71.2009 9.232H75.3529ZM89.8815 6.424L87.8295 13H86.7015L85.1175 7.78L83.5335 13H82.4055L80.3415 6.424H81.4575L82.9695 11.944L84.6015 6.424H85.7175L87.3135 11.956L88.8015 6.424H89.8815ZM91.5293 5.356C91.3213 5.356 91.1453 5.284 91.0013 5.14C90.8573 4.996 90.7853 4.82 90.7853 4.612C90.7853 4.404 90.8573 4.228 91.0013 4.084C91.1453 3.94 91.3213 3.868 91.5293 3.868C91.7293 3.868 91.8973 3.94 92.0333 4.084C92.1773 4.228 92.2493 4.404 92.2493 4.612C92.2493 4.82 92.1773 4.996 92.0333 5.14C91.8973 5.284 91.7293 5.356 91.5293 5.356ZM92.0573 6.424V13H90.9653V6.424H92.0573ZM95.2504 7.324V11.2C95.2504 11.52 95.3184 11.748 95.4544 11.884C95.5904 12.012 95.8264 12.076 96.1624 12.076H96.9664V13H95.9824C95.3744 13 94.9184 12.86 94.6144 12.58C94.3104 12.3 94.1584 11.84 94.1584 11.2V7.324H93.3064V6.424H94.1584V4.768H95.2504V6.424H96.9664V7.324H95.2504ZM101.553 6.304C102.049 6.304 102.497 6.412 102.897 6.628C103.297 6.836 103.609 7.152 103.833 7.576C104.065 8 104.181 8.516 104.181 9.124V13H103.101V9.28C103.101 8.624 102.937 8.124 102.609 7.78C102.281 7.428 101.833 7.252 101.265 7.252C100.689 7.252 100.229 7.432 99.8855 7.792C99.5495 8.152 99.3815 8.676 99.3815 9.364V13H98.2895V4.12H99.3815V7.36C99.5975 7.024 99.8935 6.764 100.269 6.58C100.653 6.396 101.081 6.304 101.553 6.304ZM111.816 13.084C111.264 13.084 110.768 12.988 110.328 12.796C109.896 12.596 109.556 12.324 109.308 11.98C109.06 11.628 108.932 11.224 108.924 10.768H110.088C110.128 11.16 110.288 11.492 110.568 11.764C110.856 12.028 111.272 12.16 111.816 12.16C112.336 12.16 112.744 12.032 113.04 11.776C113.344 11.512 113.496 11.176 113.496 10.768C113.496 10.448 113.408 10.188 113.232 9.988C113.056 9.788 112.836 9.636 112.572 9.532C112.308 9.428 111.952 9.316 111.504 9.196C110.952 9.052 110.508 8.908 110.172 8.764C109.844 8.62 109.56 8.396 109.32 8.092C109.088 7.78 108.972 7.364 108.972 6.844C108.972 6.388 109.088 5.984 109.32 5.632C109.552 5.28 109.876 5.008 110.292 4.816C110.716 4.624 111.2 4.528 111.744 4.528C112.528 4.528 113.168 4.724 113.664 5.116C114.168 5.508 114.452 6.028 114.516 6.676H113.316C113.276 6.356 113.108 6.076 112.812 5.836C112.516 5.588 112.124 5.464 111.636 5.464C111.18 5.464 110.808 5.584 110.52 5.824C110.232 6.056 110.088 6.384 110.088 6.808C110.088 7.112 110.172 7.36 110.34 7.552C110.516 7.744 110.728 7.892 110.976 7.996C111.232 8.092 111.588 8.204 112.044 8.332C112.596 8.484 113.04 8.636 113.376 8.788C113.712 8.932 114 9.16 114.24 9.472C114.48 9.776 114.6 10.192 114.6 10.72C114.6 11.128 114.492 11.512 114.276 11.872C114.06 12.232 113.74 12.524 113.316 12.748C112.892 12.972 112.392 13.084 111.816 13.084ZM122.039 6.424V13H120.947V12.028C120.739 12.364 120.447 12.628 120.071 12.82C119.703 13.004 119.295 13.096 118.847 13.096C118.335 13.096 117.875 12.992 117.467 12.784C117.059 12.568 116.735 12.248 116.495 11.824C116.263 11.4 116.147 10.884 116.147 10.276V6.424H117.227V10.132C117.227 10.78 117.391 11.28 117.719 11.632C118.047 11.976 118.495 12.148 119.063 12.148C119.647 12.148 120.107 11.968 120.443 11.608C120.779 11.248 120.947 10.724 120.947 10.036V6.424H122.039ZM124.975 7.648C125.199 7.256 125.527 6.936 125.959 6.688C126.391 6.44 126.883 6.316 127.435 6.316C128.027 6.316 128.559 6.456 129.031 6.736C129.503 7.016 129.875 7.412 130.147 7.924C130.419 8.428 130.555 9.016 130.555 9.688C130.555 10.352 130.419 10.944 130.147 11.464C129.875 11.984 129.499 12.388 129.019 12.676C128.547 12.964 128.019 13.108 127.435 13.108C126.867 13.108 126.367 12.984 125.935 12.736C125.511 12.488 125.191 12.172 124.975 11.788V13H123.883V4.12H124.975V7.648ZM129.439 9.688C129.439 9.192 129.339 8.76 129.139 8.392C128.939 8.024 128.667 7.744 128.323 7.552C127.987 7.36 127.615 7.264 127.207 7.264C126.807 7.264 126.435 7.364 126.091 7.564C125.755 7.756 125.483 8.04 125.275 8.416C125.075 8.784 124.975 9.212 124.975 9.7C124.975 10.196 125.075 10.632 125.275 11.008C125.483 11.376 125.755 11.66 126.091 11.86C126.435 12.052 126.807 12.148 127.207 12.148C127.615 12.148 127.987 12.052 128.323 11.86C128.667 11.66 128.939 11.376 129.139 11.008C129.339 10.632 129.439 10.192 129.439 9.688ZM133.085 7.636C133.301 7.26 133.621 6.948 134.045 6.7C134.477 6.444 134.977 6.316 135.545 6.316C136.129 6.316 136.657 6.456 137.129 6.736C137.609 7.016 137.985 7.412 138.257 7.924C138.529 8.428 138.665 9.016 138.665 9.688C138.665 10.352 138.529 10.944 138.257 11.464C137.985 11.984 137.609 12.388 137.129 12.676C136.657 12.964 136.129 13.108 135.545 13.108C134.985 13.108 134.489 12.984 134.057 12.736C133.633 12.48 133.309 12.164 133.085 11.788V16.12H131.993V6.424H133.085V7.636ZM137.549 9.688C137.549 9.192 137.449 8.76 137.249 8.392C137.049 8.024 136.777 7.744 136.433 7.552C136.097 7.36 135.725 7.264 135.317 7.264C134.917 7.264 134.545 7.364 134.201 7.564C133.865 7.756 133.593 8.04 133.385 8.416C133.185 8.784 133.085 9.212 133.085 9.7C133.085 10.196 133.185 10.632 133.385 11.008C133.593 11.376 133.865 11.66 134.201 11.86C134.545 12.052 134.917 12.148 135.317 12.148C135.725 12.148 136.097 12.052 136.433 11.86C136.777 11.66 137.049 11.376 137.249 11.008C137.449 10.632 137.549 10.192 137.549 9.688ZM141.194 4.12V13H140.102V4.12H141.194ZM142.647 9.688C142.647 9.016 142.783 8.428 143.055 7.924C143.327 7.412 143.699 7.016 144.171 6.736C144.651 6.456 145.183 6.316 145.767 6.316C146.343 6.316 146.843 6.44 147.267 6.688C147.691 6.936 148.007 7.248 148.215 7.624V6.424H149.319V13H148.215V11.776C147.999 12.16 147.675 12.48 147.243 12.736C146.819 12.984 146.323 13.108 145.755 13.108C145.171 13.108 144.643 12.964 144.171 12.676C143.699 12.388 143.327 11.984 143.055 11.464C142.783 10.944 142.647 10.352 142.647 9.688ZM148.215 9.7C148.215 9.204 148.115 8.772 147.915 8.404C147.715 8.036 147.443 7.756 147.099 7.564C146.763 7.364 146.391 7.264 145.983 7.264C145.575 7.264 145.203 7.36 144.867 7.552C144.531 7.744 144.263 8.024 144.063 8.392C143.863 8.76 143.763 9.192 143.763 9.688C143.763 10.192 143.863 10.632 144.063 11.008C144.263 11.376 144.531 11.66 144.867 11.86C145.203 12.052 145.575 12.148 145.983 12.148C146.391 12.148 146.763 12.052 147.099 11.86C147.443 11.66 147.715 11.376 147.915 11.008C148.115 10.632 148.215 10.196 148.215 9.7ZM156.828 6.424L152.868 16.096H151.74L153.036 12.928L150.384 6.424H151.596L153.66 11.752L155.7 6.424H156.828ZM159.018 4.12V13H157.926V4.12H159.018ZM161.443 5.356C161.235 5.356 161.059 5.284 160.915 5.14C160.771 4.996 160.699 4.82 160.699 4.612C160.699 4.404 160.771 4.228 160.915 4.084C161.059 3.94 161.235 3.868 161.443 3.868C161.643 3.868 161.811 3.94 161.947 4.084C162.091 4.228 162.163 4.404 162.163 4.612C162.163 4.82 162.091 4.996 161.947 5.14C161.811 5.284 161.643 5.356 161.443 5.356ZM161.971 6.424V13H160.879V6.424H161.971ZM166.16 13.108C165.656 13.108 165.204 13.024 164.804 12.856C164.404 12.68 164.088 12.44 163.856 12.136C163.624 11.824 163.496 11.468 163.472 11.068H164.6C164.632 11.396 164.784 11.664 165.056 11.872C165.336 12.08 165.7 12.184 166.148 12.184C166.564 12.184 166.892 12.092 167.132 11.908C167.372 11.724 167.492 11.492 167.492 11.212C167.492 10.924 167.364 10.712 167.108 10.576C166.852 10.432 166.456 10.292 165.92 10.156C165.432 10.028 165.032 9.9 164.72 9.772C164.416 9.636 164.152 9.44 163.928 9.184C163.712 8.92 163.604 8.576 163.604 8.152C163.604 7.816 163.704 7.508 163.904 7.228C164.104 6.948 164.388 6.728 164.756 6.568C165.124 6.4 165.544 6.316 166.016 6.316C166.744 6.316 167.332 6.5 167.78 6.868C168.228 7.236 168.468 7.74 168.5 8.38H167.408C167.384 8.036 167.244 7.76 166.988 7.552C166.74 7.344 166.404 7.24 165.98 7.24C165.588 7.24 165.276 7.324 165.044 7.492C164.812 7.66 164.696 7.88 164.696 8.152C164.696 8.368 164.764 8.548 164.9 8.692C165.044 8.828 165.22 8.94 165.428 9.028C165.644 9.108 165.94 9.2 166.316 9.304C166.788 9.432 167.172 9.56 167.468 9.688C167.764 9.808 168.016 9.992 168.224 10.24C168.44 10.488 168.552 10.812 168.56 11.212C168.56 11.572 168.46 11.896 168.26 12.184C168.06 12.472 167.776 12.7 167.408 12.868C167.048 13.028 166.632 13.108 166.16 13.108ZM171.434 7.324V11.2C171.434 11.52 171.502 11.748 171.638 11.884C171.774 12.012 172.01 12.076 172.346 12.076H173.15V13H172.166C171.558 13 171.102 12.86 170.798 12.58C170.494 12.3 170.342 11.84 170.342 11.2V7.324H169.49V6.424H170.342V4.768H171.434V6.424H173.15V7.324H171.434Z" fill="#6A6A6A"/>
<defs>
<clipPath id="clip0_163_209">
<rect width="14.1176" height="16" fill="white" transform="translate(0.236084 1)"/>
</clipPath>
</defs>
</svg>
