<svg width="16" height="14" viewBox="0 0 16 14" fill="none" xmlns="http://www.w3.org/2000/svg">
<g clip-path="url(#clip0_2_1996)">
<path d="M2.60914 8.73543C3.05581 9.46812 3.67973 9.73389 4.47382 9.71953C6.43776 9.69798 8.4017 9.71234 10.3656 9.71234C10.5074 9.71234 10.6492 9.71234 10.8407 9.71234C10.8407 9.15924 10.8265 8.62769 10.8478 8.09613C10.8549 7.93092 10.9187 7.70106 11.0392 7.62204C11.1314 7.56458 11.3724 7.65077 11.5001 7.74416C12.7621 8.63487 14.0241 9.53277 15.279 10.4378C15.6477 10.7036 15.6477 10.9191 15.2861 11.1777C14.017 12.0828 12.755 12.9951 11.4788 13.8858C11.3512 13.972 11.1385 14.0294 11.0179 13.9791C10.9187 13.9432 10.8549 13.7134 10.8549 13.5625C10.8336 13.0166 10.8478 12.4707 10.8478 11.8888C10.6705 11.8888 10.5358 11.8888 10.394 11.8888C8.35916 11.8888 6.32432 11.896 4.28948 11.8888C3.50248 11.8817 2.87856 11.5369 2.50279 10.8186C2.14119 10.1362 2.19791 9.45375 2.60914 8.73543Z" fill="#3B3B43" fill-opacity="0.5"/>
<path d="M12.9394 5.26568C12.4927 4.51863 11.8333 4.28158 11.018 4.28877C9.06822 4.31032 7.11137 4.29595 5.1616 4.29595C5.02689 4.29595 4.88509 4.29595 4.71493 4.29595C4.71493 4.88497 4.72911 5.43089 4.70784 5.97681C4.70075 6.12047 4.62985 6.32879 4.5235 6.38625C4.41715 6.43653 4.20444 6.37907 4.091 6.29287C2.8077 5.38779 1.53149 4.47553 0.255285 3.55608C-0.0921272 3.30467 -0.0921272 3.08918 0.262375 2.83777C1.53858 1.9255 2.81479 1.00606 4.09809 0.108163C4.21153 0.0291477 4.42424 -0.0355008 4.53059 0.0219645C4.63694 0.0794299 4.70075 0.287742 4.70784 0.431405C4.72911 0.977326 4.71493 1.52325 4.71493 2.11227C4.88509 2.11227 5.0198 2.11227 5.15451 2.11227C7.16809 2.11227 9.17457 2.10508 11.1881 2.11227C12.2091 2.11227 12.9536 2.65819 13.2088 3.57045C13.3719 4.16665 13.301 4.72694 12.9394 5.26568Z" fill="#3B3B43" fill-opacity="0.5"/>
</g>
<defs>
<clipPath id="clip0_2_1996">
<rect width="15.5556" height="14" fill="white"/>
</clipPath>
</defs>
</svg>
