<svg width="15" height="16" viewBox="0 0 15 16" fill="none" xmlns="http://www.w3.org/2000/svg">
<path d="M14.6012 10.7595L13.9413 9.57136L12.5227 10.3602L13.1817 11.546C13.2206 11.615 13.2482 11.6864 13.2661 11.7602C13.2959 11.8944 13.292 12.0338 13.2547 12.166C13.235 12.233 13.2066 12.2971 13.1703 12.3568C13.1018 12.474 13.005 12.5723 12.8887 12.6424C12.7628 12.7172 12.6187 12.7557 12.4723 12.7536H8.7382V11.1304L5.49182 13.5652L8.7382 16V14.3768H12.4723C12.698 14.3768 12.9203 14.3468 13.1305 14.2883C13.5366 14.1763 13.9059 13.9591 14.201 13.6586C14.3455 13.5133 14.4705 13.3501 14.5711 13.1773C14.8914 12.636 14.9892 11.9915 14.8438 11.3796C14.7902 11.1632 14.7086 10.9548 14.6012 10.7595ZM2.13345 7.10412L0.258667 10.8537C0.161587 11.0478 0.0903713 11.2538 0.0468413 11.4664C-0.0324635 11.8647 -0.0108085 12.2764 0.109831 12.6641C0.230471 13.0519 0.446256 13.4032 0.737508 13.6861C0.881972 13.8274 1.04267 13.9507 1.22041 14.0538C1.59093 14.2655 2.01026 14.3768 2.43699 14.3768H3.86864V12.7536H2.43699C2.29489 12.754 2.1551 12.7177 2.03119 12.6481C1.91283 12.58 1.81413 12.4824 1.7447 12.3649C1.67344 12.2503 1.63188 12.1197 1.62377 11.985C1.61985 11.9184 1.62476 11.8516 1.63838 11.7862C1.65299 11.7156 1.67733 11.6458 1.71061 11.5784L3.54156 7.91652L4.8393 8.66563L4.35397 4.63769L0.622261 6.23166L2.13345 7.10412ZM12.4699 8.66644L12.9552 4.63769L11.6259 5.40464L9.31849 1.25172C9.15742 0.956336 8.93591 0.698219 8.6684 0.494191C8.40088 0.290164 8.09337 0.144808 7.76591 0.0676007C7.56053 0.0200112 7.35016 -0.00260655 7.13936 0.000238502C6.71023 0.00828393 6.29083 0.129511 5.92359 0.351659C5.53158 0.589593 5.21566 0.934515 5.01298 1.34586L4.4189 2.53403L5.87084 3.26041L6.46493 2.07143C6.50145 1.99838 6.5469 1.93264 6.59965 1.87502C6.69637 1.76946 6.82103 1.69347 6.95919 1.65589C7.09946 1.61628 7.24753 1.61321 7.38933 1.64696C7.49767 1.67239 7.59932 1.72066 7.6875 1.78854C7.77568 1.85643 7.84834 1.94236 7.90064 2.04059L10.2202 6.21705L8.7382 7.07247L12.4699 8.66644Z" fill="#5D953C"/>
</svg>
