<svg width="14" height="14" viewBox="0 0 14 14" fill="none" xmlns="http://www.w3.org/2000/svg">
<path d="M7.34322 0C7.56336 0.0263024 7.78464 0.0468868 8.00421 0.0803365C9.45341 0.299618 10.7145 0.90686 11.778 1.91778C12.8884 2.97274 13.5769 4.25612 13.8576 5.75993C13.8785 5.87143 13.8905 5.98436 13.9079 6.10643H12.1668C11.6308 3.82099 10.2671 2.33462 7.94445 1.8466C6.32743 1.50638 4.7267 2.02986 3.59427 3.02591C3.64316 3.05708 3.69634 3.07966 3.73465 3.1174C4.14577 3.52299 4.55555 3.93049 4.964 4.33989C5.03563 4.40981 5.10044 4.48639 5.15755 4.5686C5.33938 4.83906 5.191 5.17728 4.86879 5.23331C4.82382 5.23966 4.77839 5.24214 4.73299 5.24074C3.32725 5.24074 1.92122 5.24303 0.515469 5.23731C0.394144 5.23826 0.274518 5.20877 0.167535 5.15155C0.0912006 5.1058 0.0543201 4.99459 0 4.91368V0.354796C0.0537483 0.185546 0.16782 0.0714738 0.327636 0H0.518614C0.642978 0.0897711 0.781066 0.165247 0.890278 0.271315C1.35429 0.726174 1.81029 1.1899 2.27001 1.65019C2.30403 1.68449 2.33977 1.7168 2.36207 1.73796C2.67541 1.51239 2.96645 1.28653 3.27407 1.0864C4.03819 0.588895 4.8977 0.25627 5.79767 0.109784C6.0747 0.0634687 6.35459 0.0360228 6.63277 0H7.34322Z" fill="#5D953C"/>
<path d="M10.36 10.9857C10.3197 10.9426 10.2902 10.9088 10.2585 10.8771C9.84623 10.4662 9.43396 10.0551 9.0217 9.64403C8.94661 9.57139 8.87864 9.49174 8.81872 9.40616C8.63403 9.1317 8.79356 8.78663 9.12291 8.7406C9.17268 8.73554 9.22273 8.73391 9.27272 8.73574C10.6603 8.73574 12.0476 8.73574 13.4348 8.73574C13.4984 8.73462 13.5619 8.73854 13.6249 8.74746C13.8233 8.77919 13.9302 8.88612 13.9651 9.08367C13.9717 9.12412 13.9746 9.16507 13.974 9.20603C13.974 10.6344 13.974 12.0626 13.974 13.4907C13.9748 13.5543 13.9656 13.6176 13.9468 13.6783C13.9281 13.7405 13.8949 13.7974 13.8498 13.8443C13.8048 13.8911 13.7493 13.9266 13.6879 13.9478C13.6265 13.9691 13.5609 13.9754 13.4966 13.9663C13.4322 13.9572 13.371 13.933 13.3179 13.8956C13.1973 13.8066 13.0842 13.7079 12.9796 13.6005C12.5405 13.1645 12.1051 12.7251 11.6682 12.2871C11.6494 12.2683 11.6285 12.2511 11.6205 12.2437C9.1332 14.1798 6.46151 14.5857 3.6483 13.1014C1.57242 12.0064 0.423406 10.1941 0.0571747 7.86719H1.80971C2.34605 10.1506 3.70291 11.6427 6.02181 12.1236C7.62568 12.4561 9.0786 12.0238 10.36 10.9857Z" fill="#5D953C"/>
</svg>
