<svg width="15" height="13" viewBox="0 0 15 13" fill="none" xmlns="http://www.w3.org/2000/svg">
<g clip-path="url(#clip0_1767_21476)">
<path d="M0 10.9394V3.66855C0 3.66855 0 3.66855 0 3.6322C0.0545377 3.21541 0.265944 2.83511 0.591139 2.56877C0.916334 2.30244 1.33085 2.17013 1.75021 2.1988H3.69776V1.73138C3.68442 1.52598 3.71452 1.32007 3.78611 1.12708C3.8577 0.934091 3.96916 0.758361 4.11324 0.611349C4.25731 0.464337 4.43075 0.349345 4.62225 0.273873C4.81376 0.198401 5.01902 0.164144 5.22465 0.173336H9.77934C9.91907 0.168481 10.0588 0.182456 10.1948 0.214884C10.5177 0.295017 10.8036 0.482677 11.0056 0.746981C11.2077 1.01128 11.3137 1.33648 11.3062 1.66906V2.18841H13.2953C13.5219 2.18112 13.7475 2.22054 13.9582 2.30422C14.1688 2.38791 14.36 2.51406 14.5198 2.67483C14.6796 2.8356 14.8046 3.02754 14.887 3.23871C14.9694 3.44988 15.0075 3.67575 14.9988 3.90226V10.6538C15.0126 11.0266 14.8991 11.3929 14.6768 11.6925C14.5116 11.9144 14.2946 12.0924 14.0447 12.211C13.7948 12.3296 13.5197 12.3851 13.2434 12.3728H1.55805C1.26628 12.3611 0.9833 12.2697 0.739778 12.1086C0.496257 11.9474 0.301485 11.7227 0.176579 11.4588C0.104593 11.2904 0.0455621 11.1168 0 10.9394H0ZM7.50459 10.9394C8.22963 10.9384 8.93803 10.7221 9.54001 10.318C10.142 9.9139 10.6104 9.34016 10.886 8.66953C11.1615 7.99889 11.2318 7.26154 11.0878 6.55094C10.9438 5.84034 10.5921 5.18849 10.0772 4.678C9.56238 4.16751 8.90754 3.82138 8.19574 3.68347C7.48394 3.54556 6.74722 3.62208 6.07895 3.90334C5.41069 4.1846 4.84098 4.65793 4.44203 5.26334C4.04307 5.86875 3.83285 6.57897 3.83799 7.30399C3.84347 8.27331 4.23203 9.20114 4.91891 9.8851C5.60579 10.5691 6.53526 10.9537 7.50459 10.955V10.9394Z" fill="#5D953C"/>
<path d="M9.91943 7.30041C9.91839 7.77951 9.77517 8.24753 9.50792 8.64517C9.24067 9.04281 8.86141 9.35218 8.41819 9.53409C7.97496 9.716 7.48772 9.76227 7.01818 9.66703C6.54864 9.57179 6.11793 9.33933 5.78061 8.9991C5.44329 8.65887 5.21455 8.22618 5.12335 7.75583C5.03216 7.28549 5.08261 6.79866 5.26833 6.35702C5.45405 5.91538 5.76667 5.53879 6.1666 5.27497C6.56652 5.01115 7.03575 4.87197 7.51484 4.87505C8.15448 4.88053 8.76606 5.13847 9.21642 5.59272C9.66678 6.04697 9.91945 6.66075 9.91943 7.30041Z" fill="#5D953C"/>
</g>
<defs>
<clipPath id="clip0_1767_21476">
<rect width="15" height="13" fill="white"/>
</clipPath>
</defs>
</svg>
