<svg width="18" height="16" viewBox="0 0 18 16" fill="none" xmlns="http://www.w3.org/2000/svg">
<path d="M17.1062 4.83145L11.7726 0.164545C11.5759 -0.00747698 11.2966 -0.0481379 11.0586 0.0592191C10.8199 0.167219 10.6672 0.404583 10.6672 0.665917V1.33261H0.66669C0.298 1.33261 0 1.63128 0 1.9993V15.3333C0 15.702 0.298 16 0.66669 16H14.0007C14.3694 16 14.6674 15.702 14.6674 15.3333V7.96894L17.1062 5.83483C17.2515 5.70814 17.3342 5.52549 17.3342 5.33282C17.3342 5.14082 17.2515 4.95813 17.1062 4.83145ZM13.334 14.6666H1.33341V2.66602H10.6672V2.82938C9.15247 3.30874 4.85426 5.09417 4.66758 9.97439C4.65424 10.3024 4.88293 10.5911 5.20562 10.6544C5.24827 10.6631 5.29161 10.6664 5.3343 10.6664C5.60965 10.6664 5.863 10.4951 5.95965 10.2277C6.63369 8.37494 9.40517 8.05493 10.6672 8.00561V9.99972C10.6672 10.2617 10.8199 10.4991 11.0586 10.6071C11.1366 10.6431 11.2199 10.6564 11.3032 10.6598C11.3139 10.6604 11.3232 10.6664 11.3339 10.6664C11.3472 10.6664 11.3599 10.6604 11.3726 10.6598C11.4226 10.6564 11.4699 10.6471 11.5179 10.6338C11.5406 10.6271 11.5632 10.6224 11.5846 10.6138C11.6519 10.5864 11.7166 10.5511 11.7726 10.5018L13.334 9.13568V14.6666H13.334Z" fill="white"/>
</svg>
