<svg width="18" height="19" viewBox="0 0 18 19" fill="none" xmlns="http://www.w3.org/2000/svg">
<path d="M17 1.5L11.4 17.5L8.2 10.3L1 7.1L17 1.5Z" fill="#5D953C"/>
<path d="M17 1.5L17.7079 1.74776C17.8031 1.47582 17.7341 1.1734 17.5303 0.96967C17.3266 0.765942 17.0242 0.696927 16.7522 0.792106L17 1.5ZM11.4 17.5L10.7146 17.8046C10.8395 18.0856 11.1233 18.2619 11.4306 18.2494C11.7378 18.2368 12.0063 18.038 12.1079 17.7478L11.4 17.5ZM8.2 10.3L8.88536 9.9954C8.80995 9.82572 8.67428 9.69005 8.5046 9.61464L8.2 10.3ZM1 7.1L0.752237 6.39211C0.461987 6.49369 0.263159 6.76217 0.250623 7.06943C0.238088 7.37669 0.414386 7.66047 0.695396 7.78536L1 7.1ZM16.2921 1.25224L10.6921 17.2522L12.1079 17.7478L17.7079 1.74776L16.2921 1.25224ZM12.0854 17.1954L8.88536 9.9954L7.51464 10.6046L10.7146 17.8046L12.0854 17.1954ZM8.5046 9.61464L1.3046 6.41464L0.695396 7.78536L7.8954 10.9854L8.5046 9.61464ZM1.24776 7.80789L17.2478 2.20789L16.7522 0.792106L0.752237 6.39211L1.24776 7.80789Z" fill="#818181"/>
</svg>
