<svg width="14" height="15" viewBox="0 0 14 15" fill="none" xmlns="http://www.w3.org/2000/svg">
<path d="M12.3548 8.20278C12.3818 7.97778 12.3998 7.74378 12.3998 7.50078C12.3998 7.25778 12.3818 7.02378 12.3458 6.79878L13.8668 5.61078C14.0018 5.50278 14.0378 5.30478 13.9568 5.15178L12.5168 2.65878C12.4268 2.49678 12.2378 2.44278 12.0758 2.49678L10.2848 3.21678C9.90683 2.92878 9.51084 2.69478 9.06984 2.51478L8.79984 0.606781C8.77283 0.426781 8.61984 0.300781 8.43984 0.300781H5.55983C5.37984 0.300781 5.23584 0.426781 5.20884 0.606781L4.93884 2.51478C4.49784 2.69478 4.09284 2.93778 3.72384 3.21678L1.93284 2.49678C1.77084 2.43378 1.58184 2.49678 1.49184 2.65878L0.0518358 5.15178C-0.0381642 5.31378 -0.00216406 5.50278 0.141836 5.61078L1.66284 6.79878C1.62684 7.02378 1.59984 7.26678 1.59984 7.50078C1.59984 7.73478 1.61784 7.97778 1.65384 8.20278L0.132836 9.39078C-0.00216427 9.49878 -0.0381642 9.69678 0.0428358 9.84978L1.48284 12.3428C1.57284 12.5048 1.76184 12.5588 1.92384 12.5048L3.71484 11.7848C4.09284 12.0728 4.48884 12.3068 4.92984 12.4868L5.19984 14.3948C5.23584 14.5748 5.37984 14.7008 5.55983 14.7008H8.43984C8.61984 14.7008 8.77283 14.5748 8.79084 14.3948L9.06083 12.4868C9.50183 12.3068 9.90684 12.0638 10.2758 11.7848L12.0668 12.5048C12.2288 12.5678 12.4178 12.5048 12.5078 12.3428L13.9478 9.84978C14.0378 9.68778 14.0018 9.49878 13.8578 9.39078L12.3548 8.20278ZM6.99984 10.2008C5.51484 10.2008 4.29984 8.98578 4.29984 7.50078C4.29984 6.01578 5.51484 4.80078 6.99984 4.80078C8.48484 4.80078 9.69983 6.01578 9.69983 7.50078C9.69983 8.98578 8.48484 10.2008 6.99984 10.2008Z" fill="#5D953C"/>
</svg>
