<svg width="18" height="18" viewBox="0 0 18 18" fill="none" xmlns="http://www.w3.org/2000/svg">
<path d="M11.7015 2.21959C11.7015 1.63825 11.7054 1.09012 11.7015 0.54199C11.7015 0.327014 11.7544 0.148055 11.9553 0.0490085C12.1562 -0.0500379 12.3318 0.0163682 12.4984 0.149743C13.5627 1.00289 14.6277 1.8551 15.6932 2.70638C16.0235 2.97144 16.0201 3.26408 15.6904 3.52858C14.6312 4.37722 13.5717 5.22531 12.5119 6.07283C12.343 6.21015 12.1641 6.29062 11.9491 6.18088C11.7488 6.0779 11.697 5.8995 11.6987 5.68621C11.7049 5.13864 11.6987 4.59051 11.6987 4.01312H11.4814C9.47013 4.01312 7.45881 4.00861 5.44749 4.01312C3.62076 4.01874 2.16714 5.236 1.8458 7.03234C1.72517 7.70875 1.80924 8.40577 2.08723 9.03409C2.18796 9.27046 2.22173 9.50513 2.13619 9.75106C2.07783 9.92203 1.96915 10.0714 1.82441 10.1795C1.67966 10.2876 1.50562 10.3494 1.32511 10.3568C1.14461 10.3643 0.966074 10.3169 0.81294 10.2211C0.659807 10.1252 0.539229 9.98532 0.46703 9.81971C0.147078 9.11304 -0.0124373 8.34429 -6.38619e-05 7.56866C0.0331392 4.6361 2.35229 2.27193 5.28598 2.22803C7.33219 2.19764 9.37952 2.22071 11.4257 2.21959H11.7015Z" fill="#919195"/>
<path d="M6.29901 14.8181C6.29901 15.4057 6.29901 15.9667 6.29901 16.5278C6.29901 16.709 6.24723 16.8598 6.09022 16.9617C5.9017 17.0838 5.72724 17.0647 5.51114 16.8925C4.76942 16.3005 4.02826 15.7075 3.28766 15.1136C2.95844 14.8496 2.6281 14.588 2.29945 14.3229C1.98205 14.0668 1.98317 13.7731 2.30395 13.5159C3.35744 12.6718 4.41094 11.8276 5.46443 10.9835C5.63832 10.8433 5.81503 10.7403 6.0407 10.8512C6.26637 10.9621 6.30351 11.1562 6.30013 11.383C6.29282 11.8541 6.30013 12.3251 6.30013 12.7961V13.0122C6.38342 13.0167 6.44477 13.0235 6.50667 13.0235C8.5253 13.0235 10.5434 13.0302 12.562 13.0235C14.3713 13.0162 15.8153 11.8079 16.1479 10.0346C16.2755 9.34519 16.1923 8.63331 15.9093 7.99181C15.8092 7.75545 15.7788 7.52078 15.8677 7.27541C15.9278 7.10493 16.0381 6.95663 16.1841 6.85002C16.33 6.74341 16.5049 6.68349 16.6856 6.67813C16.8662 6.67277 17.0443 6.72223 17.1964 6.82C17.3484 6.91777 17.4673 7.05927 17.5374 7.22589C17.8559 7.93289 18.0141 8.70161 18.0006 9.47694C17.9612 12.4134 15.646 14.7669 12.7044 14.8097C10.6655 14.8406 8.62547 14.8176 6.58602 14.8181H6.29901Z" fill="#919195"/>
</svg>
