<svg width="16" height="22" viewBox="0 0 16 22" fill="none" xmlns="http://www.w3.org/2000/svg">
<path d="M5.03478 22.0009C4.80019 21.8212 4.54353 21.6636 4.33531 21.4575C3.21937 20.3566 2.11635 19.2423 1.00526 18.1361C0.716325 17.8482 0.589344 17.5205 0.72332 17.124C0.943924 16.4665 1.73971 16.2937 2.25625 16.7979C2.83089 17.3575 3.39263 17.9278 3.95867 18.4971C4.06628 18.6079 4.17389 18.7242 4.2815 18.8377L4.33531 18.8183V18.5762C4.33531 15.1828 4.33531 11.7893 4.33531 8.39558C4.33531 7.84838 4.55053 7.51532 4.98474 7.38134C5.11495 7.34048 5.25272 7.32961 5.38773 7.34955C5.52273 7.36949 5.65148 7.41972 5.76431 7.49648C5.87715 7.57324 5.97115 7.67454 6.03928 7.79279C6.10741 7.91104 6.1479 8.04317 6.15771 8.17929C6.1647 8.27883 6.1647 8.37944 6.1647 8.47952C6.1647 11.8445 6.1647 15.2094 6.1647 18.574V18.8651C6.25402 18.779 6.30783 18.729 6.36002 18.6768C6.98255 18.0543 7.6024 17.4285 8.22924 16.8103C8.65592 16.389 9.25155 16.4003 9.61097 16.8248C9.75011 16.9863 9.82775 17.1917 9.83021 17.4048C9.83267 17.6179 9.75979 17.8251 9.62442 17.9897C9.56577 18.0613 9.49905 18.1274 9.43341 18.1931C8.34546 19.2821 7.26181 20.3749 6.16524 21.4553C5.95648 21.6614 5.70036 21.8191 5.46577 21.9988L5.03478 22.0009Z" fill="#5D953C"/>
<path d="M9.74131 3.1206C9.70526 3.19055 9.68374 3.27395 9.63101 3.32722C9.01188 3.9546 8.38953 4.57802 7.76395 5.19751C7.32113 5.63334 6.68783 5.59406 6.3424 5.12111C6.22855 4.96341 6.16812 4.77344 6.16996 4.57895C6.1718 4.38446 6.23581 4.19566 6.35262 4.04015C6.41064 3.96759 6.47337 3.89893 6.5404 3.83461C7.694 2.67958 8.84778 1.52526 10.0017 0.371664C10.4973 -0.123888 10.9988 -0.123888 11.4943 0.371664C12.6633 1.54104 13.8322 2.7106 15.0008 3.88034C15.3716 4.25214 15.4313 4.72294 15.166 5.10443C14.826 5.59298 14.1819 5.64248 13.7321 5.19805C13.1047 4.58036 12.4849 3.95513 11.8645 3.33045C11.8152 3.27187 11.7714 3.20882 11.7337 3.14213L11.6616 3.19593V3.44344C11.6616 6.81527 11.6616 10.1871 11.6616 13.5589C11.6676 13.7157 11.6518 13.8725 11.6148 14.0249C11.49 14.4618 11.0854 14.7115 10.6216 14.6582C10.4144 14.6302 10.2233 14.5309 10.0813 14.3775C9.93923 14.2241 9.85499 14.026 9.843 13.8172C9.83655 13.7171 9.83709 13.6165 9.83709 13.5164C9.83709 10.1597 9.83709 6.80272 9.83709 3.44559V3.19324L9.74131 3.1206Z" fill="#5D953C"/>
</svg>
