<svg width="89" height="14" viewBox="0 0 89 14" fill="none" xmlns="http://www.w3.org/2000/svg">
<path d="M3.874 10.091C3.276 10.091 2.73867 9.987 2.262 9.779C1.794 9.56233 1.42567 9.26767 1.157 8.895C0.888333 8.51367 0.749667 8.076 0.741 7.582H2.002C2.04533 8.00667 2.21867 8.36633 2.522 8.661C2.834 8.947 3.28467 9.09 3.874 9.09C4.43733 9.09 4.87933 8.95133 5.2 8.674C5.52933 8.388 5.694 8.024 5.694 7.582C5.694 7.23533 5.59867 6.95367 5.408 6.737C5.21733 6.52033 4.979 6.35567 4.693 6.243C4.407 6.13033 4.02133 6.009 3.536 5.879C2.938 5.723 2.457 5.567 2.093 5.411C1.73767 5.255 1.43 5.01233 1.17 4.683C0.918667 4.345 0.793 3.89433 0.793 3.331C0.793 2.837 0.918667 2.39933 1.17 2.018C1.42133 1.63667 1.77233 1.342 2.223 1.134C2.68233 0.926 3.20667 0.822 3.796 0.822C4.64533 0.822 5.33867 1.03433 5.876 1.459C6.422 1.88367 6.72967 2.447 6.799 3.149H5.499C5.45567 2.80233 5.27367 2.499 4.953 2.239C4.63233 1.97033 4.20767 1.836 3.679 1.836C3.185 1.836 2.782 1.966 2.47 2.226C2.158 2.47733 2.002 2.83267 2.002 3.292C2.002 3.62133 2.093 3.89 2.275 4.098C2.46567 4.306 2.69533 4.46633 2.964 4.579C3.24133 4.683 3.627 4.80433 4.121 4.943C4.719 5.10767 5.2 5.27233 5.564 5.437C5.928 5.593 6.24 5.84 6.5 6.178C6.76 6.50733 6.89 6.958 6.89 7.53C6.89 7.972 6.773 8.388 6.539 8.778C6.305 9.168 5.95833 9.48433 5.499 9.727C5.03967 9.96967 4.498 10.091 3.874 10.091ZM14.9489 2.876V10H13.7659V8.947C13.5405 9.311 13.2242 9.597 12.8169 9.805C12.4182 10.0043 11.9762 10.104 11.4909 10.104C10.9362 10.104 10.4379 9.99133 9.99588 9.766C9.55388 9.532 9.20288 9.18533 8.94288 8.726C8.69155 8.26667 8.56588 7.70767 8.56588 7.049V2.876H9.73588V6.893C9.73588 7.595 9.91355 8.13667 10.2689 8.518C10.6242 8.89067 11.1095 9.077 11.7249 9.077C12.3575 9.077 12.8559 8.882 13.2199 8.492C13.5839 8.102 13.7659 7.53433 13.7659 6.789V2.876H14.9489ZM19.4683 10.117C18.9223 10.117 18.4326 10.026 17.9993 9.844C17.566 9.65333 17.2236 9.39333 16.9723 9.064C16.721 8.726 16.5823 8.34033 16.5563 7.907H17.7783C17.813 8.26233 17.9776 8.55267 18.2723 8.778C18.5756 9.00333 18.97 9.116 19.4553 9.116C19.906 9.116 20.2613 9.01633 20.5213 8.817C20.7813 8.61767 20.9113 8.36633 20.9113 8.063C20.9113 7.751 20.7726 7.52133 20.4953 7.374C20.218 7.218 19.789 7.06633 19.2083 6.919C18.6796 6.78033 18.2463 6.64167 17.9083 6.503C17.579 6.35567 17.293 6.14333 17.0503 5.866C16.8163 5.58 16.6993 5.20733 16.6993 4.748C16.6993 4.384 16.8076 4.05033 17.0243 3.747C17.241 3.44367 17.5486 3.20533 17.9473 3.032C18.346 2.85 18.801 2.759 19.3123 2.759C20.101 2.759 20.738 2.95833 21.2233 3.357C21.7086 3.75567 21.9686 4.30167 22.0033 4.995H20.8203C20.7943 4.62233 20.6426 4.32333 20.3653 4.098C20.0966 3.87267 19.7326 3.76 19.2733 3.76C18.8486 3.76 18.5106 3.851 18.2593 4.033C18.008 4.215 17.8823 4.45333 17.8823 4.748C17.8823 4.982 17.956 5.177 18.1033 5.333C18.2593 5.48033 18.45 5.60167 18.6753 5.697C18.9093 5.78367 19.23 5.88333 19.6373 5.996C20.1486 6.13467 20.5646 6.27333 20.8853 6.412C21.206 6.542 21.479 6.74133 21.7043 7.01C21.9383 7.27867 22.0596 7.62967 22.0683 8.063C22.0683 8.453 21.96 8.804 21.7433 9.116C21.5266 9.428 21.219 9.675 20.8203 9.857C20.4303 10.0303 19.9796 10.117 19.4683 10.117ZM24.9213 4.189C25.1553 3.78167 25.502 3.44367 25.9613 3.175C26.4293 2.89767 26.971 2.759 27.5863 2.759C28.219 2.759 28.791 2.91067 29.3023 3.214C29.8223 3.51733 30.2296 3.94633 30.5243 4.501C30.819 5.047 30.9663 5.684 30.9663 6.412C30.9663 7.13133 30.819 7.77267 30.5243 8.336C30.2296 8.89933 29.8223 9.337 29.3023 9.649C28.791 9.961 28.219 10.117 27.5863 10.117C26.9796 10.117 26.4423 9.98267 25.9743 9.714C25.515 9.43667 25.164 9.09433 24.9213 8.687V13.38H23.7383V2.876H24.9213V4.189ZM29.7573 6.412C29.7573 5.87467 29.649 5.40667 29.4323 5.008C29.2156 4.60933 28.921 4.306 28.5483 4.098C28.1843 3.89 27.7813 3.786 27.3393 3.786C26.906 3.786 26.503 3.89433 26.1303 4.111C25.7663 4.319 25.4716 4.62667 25.2463 5.034C25.0296 5.43267 24.9213 5.89633 24.9213 6.425C24.9213 6.96233 25.0296 7.43467 25.2463 7.842C25.4716 8.24067 25.7663 8.54833 26.1303 8.765C26.503 8.973 26.906 9.077 27.3393 9.077C27.7813 9.077 28.1843 8.973 28.5483 8.765C28.921 8.54833 29.2156 8.24067 29.4323 7.842C29.649 7.43467 29.7573 6.958 29.7573 6.412ZM39.0235 6.165C39.0235 6.39033 39.0105 6.62867 38.9845 6.88H33.2905C33.3338 7.582 33.5721 8.13233 34.0055 8.531C34.4475 8.921 34.9805 9.116 35.6045 9.116C36.1158 9.116 36.5405 8.999 36.8785 8.765C37.2251 8.52233 37.4678 8.20167 37.6065 7.803H38.8805C38.6898 8.48767 38.3085 9.04667 37.7365 9.48C37.1645 9.90467 36.4538 10.117 35.6045 10.117C34.9285 10.117 34.3218 9.96533 33.7845 9.662C33.2558 9.35867 32.8398 8.92967 32.5365 8.375C32.2331 7.81167 32.0815 7.16167 32.0815 6.425C32.0815 5.68833 32.2288 5.04267 32.5235 4.488C32.8181 3.93333 33.2298 3.50867 33.7585 3.214C34.2958 2.91067 34.9111 2.759 35.6045 2.759C36.2805 2.759 36.8785 2.90633 37.3985 3.201C37.9185 3.49567 38.3171 3.903 38.5945 4.423C38.8805 4.93433 39.0235 5.515 39.0235 6.165ZM37.8015 5.918C37.8015 5.46733 37.7018 5.08167 37.5025 4.761C37.3031 4.43167 37.0301 4.18467 36.6835 4.02C36.3455 3.84667 35.9685 3.76 35.5525 3.76C34.9545 3.76 34.4431 3.95067 34.0185 4.332C33.6025 4.71333 33.3641 5.242 33.3035 5.918H37.8015ZM44.056 2.746C44.9227 2.746 45.6247 3.01033 46.162 3.539C46.6993 4.059 46.968 4.813 46.968 5.801V10H45.798V5.97C45.798 5.25933 45.6203 4.71767 45.265 4.345C44.9097 3.96367 44.4243 3.773 43.809 3.773C43.185 3.773 42.6867 3.968 42.314 4.358C41.95 4.748 41.768 5.31567 41.768 6.061V10H40.585V2.876H41.768V3.89C42.002 3.526 42.3183 3.24433 42.717 3.045C43.1243 2.84567 43.5707 2.746 44.056 2.746ZM48.4584 6.412C48.4584 5.684 48.6057 5.047 48.9004 4.501C49.1951 3.94633 49.5981 3.51733 50.1094 3.214C50.6294 2.91067 51.2101 2.759 51.8514 2.759C52.4061 2.759 52.9217 2.889 53.3984 3.149C53.8751 3.40033 54.2391 3.734 54.4904 4.15V0.38H55.6864V10H54.4904V8.661C54.2564 9.08567 53.9097 9.43667 53.4504 9.714C52.9911 9.98267 52.4537 10.117 51.8384 10.117C51.2057 10.117 50.6294 9.961 50.1094 9.649C49.5981 9.337 49.1951 8.89933 48.9004 8.336C48.6057 7.77267 48.4584 7.13133 48.4584 6.412ZM54.4904 6.425C54.4904 5.88767 54.3821 5.41967 54.1654 5.021C53.9487 4.62233 53.6541 4.319 53.2814 4.111C52.9174 3.89433 52.5144 3.786 52.0724 3.786C51.6304 3.786 51.2274 3.89 50.8634 4.098C50.4994 4.306 50.2091 4.60933 49.9924 5.008C49.7757 5.40667 49.6674 5.87467 49.6674 6.412C49.6674 6.958 49.7757 7.43467 49.9924 7.842C50.2091 8.24067 50.4994 8.54833 50.8634 8.765C51.2274 8.973 51.6304 9.077 52.0724 9.077C52.5144 9.077 52.9174 8.973 53.2814 8.765C53.6541 8.54833 53.9487 8.24067 54.1654 7.842C54.3821 7.43467 54.4904 6.96233 54.4904 6.425ZM62.3084 0.939V6.672C62.3084 7.478 62.5034 8.076 62.8934 8.466C63.2921 8.856 63.8424 9.051 64.5444 9.051C65.2377 9.051 65.7794 8.856 66.1694 8.466C66.5681 8.076 66.7674 7.478 66.7674 6.672V0.939H67.9504V6.659C67.9504 7.413 67.7987 8.05 67.4954 8.57C67.1921 9.08133 66.7804 9.46267 66.2604 9.714C65.7491 9.96533 65.1727 10.091 64.5314 10.091C63.8901 10.091 63.3094 9.96533 62.7894 9.714C62.2781 9.46267 61.8707 9.08133 61.5674 8.57C61.2727 8.05 61.1254 7.413 61.1254 6.659V0.939H62.3084ZM72.4459 10.117C71.8999 10.117 71.4102 10.026 70.9769 9.844C70.5435 9.65333 70.2012 9.39333 69.9499 9.064C69.6985 8.726 69.5599 8.34033 69.5339 7.907H70.7559C70.7905 8.26233 70.9552 8.55267 71.2499 8.778C71.5532 9.00333 71.9475 9.116 72.4329 9.116C72.8835 9.116 73.2389 9.01633 73.4989 8.817C73.7589 8.61767 73.8889 8.36633 73.8889 8.063C73.8889 7.751 73.7502 7.52133 73.4729 7.374C73.1955 7.218 72.7665 7.06633 72.1859 6.919C71.6572 6.78033 71.2239 6.64167 70.8859 6.503C70.5565 6.35567 70.2705 6.14333 70.0279 5.866C69.7939 5.58 69.6769 5.20733 69.6769 4.748C69.6769 4.384 69.7852 4.05033 70.0019 3.747C70.2185 3.44367 70.5262 3.20533 70.9249 3.032C71.3235 2.85 71.7785 2.759 72.2899 2.759C73.0785 2.759 73.7155 2.95833 74.2009 3.357C74.6862 3.75567 74.9462 4.30167 74.9809 4.995H73.7979C73.7719 4.62233 73.6202 4.32333 73.3429 4.098C73.0742 3.87267 72.7102 3.76 72.2509 3.76C71.8262 3.76 71.4882 3.851 71.2369 4.033C70.9855 4.215 70.8599 4.45333 70.8599 4.748C70.8599 4.982 70.9335 5.177 71.0809 5.333C71.2369 5.48033 71.4275 5.60167 71.6529 5.697C71.8869 5.78367 72.2075 5.88333 72.6149 5.996C73.1262 6.13467 73.5422 6.27333 73.8629 6.412C74.1835 6.542 74.4565 6.74133 74.6819 7.01C74.9159 7.27867 75.0372 7.62967 75.0459 8.063C75.0459 8.453 74.9375 8.804 74.7209 9.116C74.5042 9.428 74.1965 9.675 73.7979 9.857C73.4079 10.0303 72.9572 10.117 72.4459 10.117ZM83.2158 6.165C83.2158 6.39033 83.2028 6.62867 83.1768 6.88H77.4828C77.5262 7.582 77.7645 8.13233 78.1978 8.531C78.6398 8.921 79.1728 9.116 79.7968 9.116C80.3082 9.116 80.7328 8.999 81.0708 8.765C81.4175 8.52233 81.6602 8.20167 81.7988 7.803H83.0728C82.8822 8.48767 82.5008 9.04667 81.9288 9.48C81.3568 9.90467 80.6462 10.117 79.7968 10.117C79.1208 10.117 78.5142 9.96533 77.9768 9.662C77.4482 9.35867 77.0322 8.92967 76.7288 8.375C76.4255 7.81167 76.2738 7.16167 76.2738 6.425C76.2738 5.68833 76.4212 5.04267 76.7158 4.488C77.0105 3.93333 77.4222 3.50867 77.9508 3.214C78.4882 2.91067 79.1035 2.759 79.7968 2.759C80.4728 2.759 81.0708 2.90633 81.5908 3.201C82.1108 3.49567 82.5095 3.903 82.7868 4.423C83.0728 4.93433 83.2158 5.515 83.2158 6.165ZM81.9938 5.918C81.9938 5.46733 81.8942 5.08167 81.6948 4.761C81.4955 4.43167 81.2225 4.18467 80.8758 4.02C80.5378 3.84667 80.1608 3.76 79.7448 3.76C79.1468 3.76 78.6355 3.95067 78.2108 4.332C77.7948 4.71333 77.5565 5.242 77.4958 5.918H81.9938ZM85.9604 4.033C86.1684 3.62567 86.463 3.30933 86.8444 3.084C87.2344 2.85867 87.7067 2.746 88.2614 2.746V3.968H87.9494C86.6234 3.968 85.9604 4.68733 85.9604 6.126V10H84.7774V2.876H85.9604V4.033Z" fill="#2D2D2D"/>
</svg>
