<svg width="16" height="14" viewBox="0 0 16 14" fill="none" xmlns="http://www.w3.org/2000/svg">
<g clip-path="url(#clip0_2_2008)">
<path d="M15.9998 7.28132C15.9172 7.6411 15.6876 7.89744 15.4259 8.14929C13.5666 9.96169 11.7117 11.7831 9.85695 13.6C9.49425 13.9553 9.07646 14.0947 8.58062 13.9418C8.36484 13.8743 8.18579 13.7439 8.02051 13.555C8.07101 13.5145 8.1261 13.4786 8.16742 13.4336C10.2518 11.3918 12.3315 9.35006 14.4205 7.3128C14.696 7.04296 14.8245 6.74164 14.8245 6.35938C14.8153 4.69539 14.8199 3.0359 14.8245 1.37191C14.8245 1.30445 14.8245 1.24149 14.8245 1.17853C15.1734 1.12456 15.6234 1.36291 15.8162 1.70471C15.8942 1.83962 15.9356 1.99253 15.9952 2.14094C15.9998 3.8544 15.9998 5.56786 15.9998 7.28132Z" fill="#3B3B43" fill-opacity="0.5"/>
<path d="M13.6539 3.55734C13.6539 4.32188 13.6494 5.08641 13.6539 5.85095C13.6585 6.24671 13.5162 6.57051 13.2316 6.84934C11.1472 8.8866 9.06743 10.9239 6.98766 12.9611C6.43214 13.5053 5.73888 13.5098 5.18336 12.9656C3.59484 11.4096 2.00172 9.85352 0.413199 8.29296C-0.137733 7.75329 -0.137733 7.0742 0.413199 6.53453C2.50215 4.48828 4.5911 2.44651 6.67547 0.400257C6.95093 0.130421 7.28149 0 7.66714 0C9.24189 0.00449727 10.8121 0 12.3868 0C13.1581 0 13.6539 0.490202 13.6539 1.24574C13.6539 2.01927 13.6539 2.78831 13.6539 3.55734ZM9.5495 3.14359C9.53572 3.6203 9.92138 4.01156 10.4126 4.02506C10.8809 4.03855 11.2849 3.65628 11.3033 3.18407C11.3217 2.72085 10.9268 2.31609 10.4356 2.3026C9.96729 2.28911 9.56786 2.66688 9.5495 3.14359Z" fill="#3B3B43" fill-opacity="0.5"/>
</g>
<defs>
<clipPath id="clip0_2_2008">
<rect width="16" height="14" fill="white"/>
</clipPath>
</defs>
</svg>
