<svg width="18" height="16" viewBox="0 0 18 16" fill="none" xmlns="http://www.w3.org/2000/svg">
<path d="M18.0001 4.77767C18.0001 8.51668 18.0001 12.2504 18.0001 15.9894C17.9652 15.9947 17.9304 16 17.8955 16C15.142 16 12.3884 16 9.63492 16C9.58513 16 9.53534 15.9947 9.47559 15.9894C9.47559 12.2504 9.47559 8.52201 9.47559 4.77234C9.55525 4.77234 9.61998 4.77234 9.68969 4.77234C12.3984 4.77234 15.1021 4.77234 17.8109 4.77234C17.8706 4.77234 17.9353 4.77767 18.0001 4.77767Z" fill="#919195"/>
<path d="M18.0004 0C18.0004 1.25166 18.0004 2.50866 18.0004 3.76032C12.0004 3.76032 6.00537 3.76032 0.00537109 3.76032C0.00537109 2.49268 0.00537109 1.25166 0.00537109 0C6.01035 0 12.0054 0 18.0004 0Z" fill="#919195"/>
<path d="M0 15.984C0 12.2397 0 8.51665 0 4.78296C2.84315 4.78296 5.67635 4.78296 8.5195 4.78296C8.5195 8.52197 8.5195 12.245 8.5195 15.984C5.67635 15.984 2.84315 15.984 0 15.984Z" fill="#919195"/>
</svg>
 