<svg width="16" height="15" viewBox="0 0 16 15" fill="none" xmlns="http://www.w3.org/2000/svg">
<path d="M15.75 4.68044C15.75 7.95208 15.75 11.2191 15.75 14.4907C15.7195 14.4954 15.689 14.5 15.6585 14.5C13.2492 14.5 10.8398 14.5 8.4305 14.5C8.38693 14.5 8.34336 14.4954 8.29108 14.4907C8.29108 11.2191 8.29108 7.95674 8.29108 4.67578C8.36079 4.67578 8.41743 4.67578 8.47842 4.67578C10.8485 4.67578 13.2143 4.67578 15.5844 4.67578C15.6367 4.67578 15.6934 4.68044 15.75 4.68044Z" fill="#5D953C"/>
<path d="M15.7504 0.5C15.7504 1.59521 15.7504 2.69507 15.7504 3.79028C10.5004 3.79028 5.25476 3.79028 0.00476074 3.79028C0.00476074 2.68109 0.00476074 1.59521 0.00476074 0.5C5.25912 0.5 10.5048 0.5 15.7504 0.5Z" fill="#5D953C"/>
<path d="M0 14.4845C0 11.2082 0 7.95057 0 4.68359C2.48776 4.68359 4.96681 4.68359 7.45456 4.68359C7.45456 7.95523 7.45456 11.2129 7.45456 14.4845C4.96681 14.4845 2.48776 14.4845 0 14.4845Z" fill="#5D953C"/>
</svg>
