<svg width="18" height="16" viewBox="0 0 18 16" fill="none" xmlns="http://www.w3.org/2000/svg">
<path d="M18.0001 4.77779C18.0001 8.5168 18.0001 12.2505 18.0001 15.9895C17.9652 15.9948 17.9304 16.0002 17.8955 16.0002C15.142 16.0002 12.3884 16.0002 9.63492 16.0002C9.58513 16.0002 9.53534 15.9948 9.47559 15.9895C9.47559 12.2505 9.47559 8.52213 9.47559 4.77246C9.55525 4.77246 9.61998 4.77246 9.68969 4.77246C12.3984 4.77246 15.1021 4.77246 17.8109 4.77246C17.8706 4.77246 17.9353 4.77779 18.0001 4.77779Z" fill="#5D953C"/>
<path d="M18.0004 0C18.0004 1.25166 18.0004 2.50866 18.0004 3.76032C12.0004 3.76032 6.00537 3.76032 0.00537109 3.76032C0.00537109 2.49268 0.00537109 1.25166 0.00537109 0C6.01035 0 12.0054 0 18.0004 0Z" fill="#5D953C"/>
<path d="M0 15.9843C0 12.2399 0 8.51689 0 4.7832C2.84315 4.7832 5.67635 4.7832 8.5195 4.7832C8.5195 8.52222 8.5195 12.2453 8.5195 15.9843C5.67635 15.9843 2.84315 15.9843 0 15.9843Z" fill="#5D953C"/>
</svg>
