<svg width="19" height="14" viewBox="0 0 19 14" fill="none" xmlns="http://www.w3.org/2000/svg">
<path d="M18.2005 7.747C18.1294 7.86774 18.0786 8.00802 17.9836 8.10568C17.781 8.3138 17.5215 8.36991 17.2477 8.26905C16.974 8.16819 16.8211 7.96114 16.7855 7.67206C16.7793 7.60122 16.7775 7.53005 16.7802 7.45898C16.7802 5.94372 16.7802 4.42847 16.7802 2.91321C16.7802 2.20294 16.392 1.67236 15.7314 1.48414C15.5829 1.44426 15.4297 1.42479 15.276 1.42625C11.1588 1.42341 7.04167 1.42341 2.92451 1.42625C2.03571 1.42625 1.42421 2.02998 1.4235 2.91783C1.4209 5.64055 1.4209 8.36257 1.4235 11.0839C1.4235 11.9717 2.03358 12.5755 2.92344 12.5755C7.04084 12.5773 11.158 12.5773 15.2749 12.5755C16.1282 12.5755 16.7137 12.0321 16.7788 11.1943C16.8118 10.7664 17.0365 10.5 17.4048 10.4517C17.7504 10.4063 18.0348 10.6019 18.182 10.9844C18.1878 10.9946 18.1948 11.0041 18.203 11.0125V11.4742C18.1518 11.6727 18.1152 11.8765 18.0476 12.0694C17.6331 13.2562 16.5733 13.9946 15.2856 13.9949C11.4652 13.9964 7.64463 13.9964 3.82397 13.9949C3.46845 13.9949 3.11293 14.0091 2.75741 13.99C1.63433 13.9289 0.802053 13.3937 0.296504 12.3918C0.154296 12.1077 0.0963459 11.7799 0 11.4724V2.52292C0.0511949 2.32404 0.0878135 2.12055 0.155362 1.92735C0.566699 0.745806 1.62757 0.00569877 2.91526 0.00534363C6.73568 0.00392308 10.5562 0.0038047 14.3769 0.00498849C14.7324 0.00498849 15.0879 -0.00921702 15.4434 0.0103156C16.5665 0.0710441 17.3988 0.606237 17.9043 1.60844C18.0466 1.89255 18.1045 2.22034 18.2009 2.52824L18.2005 7.747Z" fill="#5D953C"/>
<path d="M15.3564 5.54577V6.3981C15.3564 6.92512 15.0812 7.2522 14.6407 7.25043C14.2066 7.24546 13.9343 6.92157 13.9343 6.40627C13.9343 5.86172 13.9343 5.31718 13.9343 4.77263C13.9343 4.42495 13.8113 4.30278 13.4632 4.30207C12.8827 4.30207 12.3024 4.30634 11.7212 4.29923C11.5686 4.29982 11.4202 4.24997 11.299 4.15747C11.1777 4.06497 11.0906 3.935 11.051 3.78783C10.9653 3.492 11.0702 3.16705 11.3322 3.01221C11.4585 2.93715 11.6014 2.89433 11.7482 2.88756C12.3758 2.8743 13.0039 2.87347 13.6324 2.88507C14.5543 2.90212 15.3322 3.68342 15.3546 4.6043C15.3621 4.91753 15.3546 5.23147 15.3546 5.54506L15.3564 5.54577Z" fill="#5D953C"/>
<path d="M2.84202 8.4533C2.84202 8.13971 2.83953 7.82613 2.84202 7.51254C2.84593 7.06613 3.14813 6.74899 3.56088 6.75396C3.96653 6.75894 4.26019 7.07359 4.26268 7.51183C4.26553 8.08005 4.26268 8.64827 4.26268 9.21649C4.26268 9.58583 4.38036 9.70054 4.75579 9.7009C5.31858 9.7009 5.88136 9.69593 6.4438 9.70445C6.60506 9.70623 6.76083 9.76319 6.88514 9.86583C7.00945 9.96846 7.09477 10.1106 7.12688 10.2684C7.15898 10.4263 7.13594 10.5904 7.06158 10.7334C6.98722 10.8763 6.86604 10.9895 6.71826 11.054C6.6143 11.0955 6.5035 11.1173 6.39154 11.1183C5.7932 11.1243 5.19486 11.1271 4.59687 11.1183C3.63697 11.1055 2.85482 10.3195 2.84167 9.35784C2.83847 9.05703 2.84202 8.75588 2.84202 8.4533Z" fill="#5D953C"/>
</svg>
