<svg width="16" height="17" viewBox="0 0 16 17" fill="none" xmlns="http://www.w3.org/2000/svg">
<path d="M4.52442 5C4.237 5 4 5.237 4 5.52442V12.4756C4 12.763 4.237 13 4.52442 13H11.5008C11.7882 13 12 12.7907 12.0252 12.5008V5.52695C12.0252 5.23952 11.7882 5.00252 11.5008 5.00252H4.52442V5Z" fill="#5D953C"/>
<path d="M11.0073 1.85837H14.4718V5.35878C14.4718 5.73102 14.7787 6.03796 15.151 6.03796C15.5232 6.03796 15.8302 5.73102 15.8302 5.32612V1.17918C15.8302 0.806939 15.5232 0.5 15.151 0.5H11.0073C10.6351 0.5 10.3281 0.806939 10.3281 1.17918C10.3281 1.55143 10.6318 1.85837 11.0073 1.85837Z" fill="#5D953C"/>
<path d="M0.679184 6.03656C1.05143 6.03656 1.32571 5.72962 1.32571 5.39003V1.89288H4.82612C5.19837 1.89288 5.50531 1.58594 5.50531 1.2137C5.50531 0.841454 5.19837 0.53125 4.82286 0.53125H0.679184C0.306939 0.53125 0 0.838189 0 1.21043V5.35411C0 5.72962 0.303673 6.03656 0.679184 6.03656Z" fill="#5D953C"/>
<path d="M15.1836 10.9961C14.8114 10.9961 14.5045 11.303 14.5045 11.6753V15.1398H11.0073C10.6351 15.1398 10.3281 15.4467 10.3281 15.819C10.3281 16.1912 10.6351 16.4981 11.0073 16.4981H15.151C15.5232 16.4981 15.8302 16.1912 15.8628 15.819V11.6753C15.8628 11.2998 15.5591 10.9961 15.1836 10.9961Z" fill="#5D953C"/>
<path d="M4.85551 15.1724H1.35837V11.6753C1.35837 11.303 1.05143 10.9961 0.679184 10.9961C0.306939 10.9961 0 11.303 0 11.6753V15.819C0 16.1912 0.306939 16.4981 0.679184 16.4981H4.82286C5.1951 16.4981 5.50204 16.1912 5.53469 15.8516C5.53796 15.4794 5.23102 15.1724 4.85551 15.1724Z" fill="#5D953C"/>
</svg>
