<svg width="24" height="24" viewBox="0 0 24 24" fill="none" xmlns="http://www.w3.org/2000/svg">
<path d="M12.001 23.9947C14.232 23.9947 16.463 24.0104 18.6934 23.9899C20.7299 23.9715 22.2853 23.0719 23.3247 21.3164C23.7806 20.5464 23.9887 19.6967 23.9942 18.8046C24.0031 17.2804 24.0003 15.7563 23.9956 14.2321C23.9942 13.6902 23.6802 13.2643 23.2093 13.1312C22.7493 13.0008 22.2416 13.166 22.0082 13.5782C21.8928 13.7823 21.8246 14.041 21.8219 14.2765C21.8055 15.7406 21.8144 17.2053 21.8137 18.6701C21.8123 20.4864 20.489 21.8092 18.6695 21.8098C14.2245 21.8105 9.78023 21.8105 5.33525 21.8098C3.51372 21.8092 2.19176 20.4898 2.19039 18.6708C2.18903 17.1808 2.19244 15.6907 2.18903 14.2007C2.18767 13.7031 1.89625 13.2977 1.44854 13.1469C1.01449 13.0001 0.523786 13.1243 0.261032 13.5025C0.131361 13.6888 0.020116 13.9352 0.0187511 14.1557C0.0085139 15.858 -0.0303859 17.563 0.0521939 19.2619C0.16139 21.5259 2.04912 23.5401 4.29379 23.8998C4.66165 23.9585 5.03837 23.9886 5.41169 23.9899C7.60722 23.9988 9.80411 23.9947 12.001 23.9947Z" fill="#5D953C" fill-opacity="0.5"/>
<path d="M13.0874 3.73529C13.2109 3.85337 13.2791 3.91617 13.3447 3.98169C14.7902 5.42667 16.237 6.87027 17.6804 8.31797C17.9835 8.62171 18.3274 8.78006 18.7615 8.6845C19.5559 8.51045 19.8862 7.56784 19.373 6.93648C19.3198 6.87095 19.2577 6.81157 19.1976 6.75151C17.0962 4.64992 14.9942 2.54764 12.8922 0.446056C12.2991 -0.146403 11.706 -0.149133 11.1164 0.440595C9.00205 2.55379 6.88978 4.66903 4.77342 6.78017C4.46767 7.08528 4.31411 7.43611 4.41512 7.86475C4.61099 8.69679 5.60058 8.9978 6.22368 8.40807C6.70005 7.95758 7.15459 7.48389 7.61799 7.02043C8.63556 6.00274 9.65382 4.98573 10.6693 3.96531C10.7328 3.90184 10.7717 3.8131 10.8215 3.73666C10.8529 3.75782 10.8843 3.77898 10.9157 3.80013C10.9157 3.89842 10.9157 3.99603 10.9157 4.09432C10.9157 8.50567 10.915 12.917 10.9164 17.3291C10.9164 17.9557 11.201 18.3597 11.7333 18.5017C12.3803 18.6737 13.0348 18.2096 13.0819 17.5427C13.0901 17.4239 13.0881 17.3045 13.0881 17.1851C13.0881 12.8249 13.0881 8.46404 13.0881 4.10387C13.0874 4.00422 13.0874 3.90525 13.0874 3.73529Z" fill="#5D953C" fill-opacity="0.5"/>
</svg>
