<svg width="14" height="14" viewBox="0 0 14 14" fill="none" xmlns="http://www.w3.org/2000/svg">
<g clip-path="url(#clip0_2_698)">
<path d="M7.00035 13.9967C8.30177 13.9967 9.6032 14.0058 10.9042 13.9939C12.0922 13.9831 12.9995 13.4584 13.6058 12.4343C13.8718 11.9852 13.9932 11.4895 13.9964 10.9691C14.0015 10.08 13.9999 9.19091 13.9972 8.30183C13.9964 7.98569 13.8132 7.73724 13.5385 7.6596C13.2702 7.58355 12.974 7.67991 12.8379 7.92039C12.7706 8.03944 12.7308 8.19034 12.7292 8.32771C12.7196 9.18176 12.7248 10.0362 12.7244 10.8906C12.7236 11.9501 11.9517 12.7218 10.8903 12.7222C8.29739 12.7226 5.70489 12.7226 3.11199 12.7222C2.04943 12.7218 1.27828 11.9521 1.27749 10.891C1.27669 10.0219 1.27868 9.15269 1.27669 8.28351C1.2759 7.99326 1.1059 7.75675 0.844741 7.66876C0.591541 7.58316 0.305299 7.65562 0.152026 7.8762C0.0763845 7.9849 0.0114918 8.12863 0.0106955 8.25724C0.0047245 9.25024 -0.0179672 10.2448 0.0302038 11.2358C0.0939016 12.5565 1.19508 13.7315 2.50447 13.9413C2.71905 13.9756 2.93881 13.9931 3.15658 13.9939C4.4373 13.9991 5.71882 13.9967 7.00035 13.9967Z" fill="#AECA9D"/>
<path d="M7.63414 2.17892C7.70619 2.2478 7.74601 2.28443 7.78422 2.32265C8.62743 3.16555 9.47142 4.00766 10.3134 4.85215C10.4902 5.02933 10.6908 5.1217 10.944 5.06596C11.4074 4.96443 11.6001 4.41457 11.3007 4.04628C11.2697 4.00806 11.2335 3.97342 11.1984 3.93838C9.97265 2.71245 8.74646 1.48613 7.52028 0.260199C7.17432 -0.0854017 6.82836 -0.0869943 6.48439 0.257014C5.25104 1.48971 4.01888 2.7236 2.78433 3.9551C2.60598 4.13308 2.5164 4.33773 2.57532 4.58777C2.68958 5.07313 3.26684 5.24871 3.63032 4.90471C3.9082 4.64192 4.17335 4.3656 4.44366 4.09525C5.03725 3.5016 5.63123 2.90834 6.22362 2.3131C6.26065 2.27607 6.28334 2.22431 6.3124 2.17972C6.33072 2.19206 6.34903 2.2044 6.36734 2.21674C6.36734 2.27408 6.36734 2.33102 6.36734 2.38835C6.36734 4.96164 6.36694 7.53493 6.36774 10.1086C6.36774 10.4741 6.53375 10.7098 6.84428 10.7927C7.22169 10.893 7.60348 10.6222 7.63095 10.2332C7.63573 10.164 7.63453 10.0943 7.63453 10.0246C7.63453 7.48118 7.63453 4.93736 7.63453 2.39392C7.63414 2.33579 7.63414 2.27806 7.63414 2.17892Z" fill="#AECA9D"/>
</g>
<defs>
<clipPath id="clip0_2_698">
<rect width="14" height="14" fill="white" transform="matrix(-1 0 0 1 14 0)"/>
</clipPath>
</defs>
</svg>
