<svg width="18" height="18" viewBox="0 0 18 18" fill="none" xmlns="http://www.w3.org/2000/svg">
<g clip-path="url(#clip0_2_1063)">
<path d="M9.00051 17.9953C10.6738 17.9953 12.347 18.0071 14.0198 17.9917C15.5472 17.9779 16.7137 17.3032 17.4933 15.9865C17.8352 15.4091 17.9913 14.7718 17.9954 14.1027C18.002 12.9596 18 11.8165 17.9964 10.6734C17.9954 10.2669 17.7599 9.94746 17.4068 9.84764C17.0618 9.74986 16.6809 9.87375 16.5059 10.1829C16.4194 10.336 16.3682 10.53 16.3662 10.7066C16.3539 11.8047 16.3605 12.9033 16.36 14.0018C16.359 15.364 15.3665 16.3561 14.0019 16.3567C10.6681 16.3572 7.33493 16.3572 4.0012 16.3567C2.63505 16.3561 1.64358 15.3666 1.64256 14.0024C1.64153 12.8848 1.64409 11.7673 1.64153 10.6498C1.64051 10.2766 1.42195 9.97255 1.08617 9.85941C0.760624 9.74935 0.392599 9.84252 0.195534 10.1261C0.09828 10.2659 0.0148468 10.4507 0.0138226 10.616C0.00614548 11.8927 -0.0230293 13.1715 0.0389061 14.4457C0.120802 16.1437 1.5366 17.6544 3.2201 17.9241C3.49599 17.9682 3.77854 17.9907 4.05853 17.9917C5.70517 17.9984 7.35284 17.9953 9.00051 17.9953Z" fill="white"/>
<path d="M9.81541 2.80147C9.90805 2.89003 9.95924 2.93713 10.0084 2.98627C11.0925 4.07 12.1776 5.1527 13.2602 6.23848C13.4875 6.46628 13.7455 6.58505 14.071 6.51338C14.6668 6.38284 14.9145 5.67588 14.5296 5.20236C14.4897 5.15321 14.4431 5.10868 14.3981 5.06363C12.8221 3.48744 11.2455 1.91073 9.66901 0.334542C9.22421 -0.109802 8.7794 -0.11185 8.33716 0.330446C6.75142 1.91534 5.16722 3.50177 3.57994 5.08513C3.35063 5.31396 3.23546 5.57708 3.31122 5.89857C3.45812 6.52259 4.20032 6.74835 4.66764 6.30605C5.02492 5.96819 5.36582 5.61292 5.71337 5.26532C6.47655 4.50206 7.24024 3.7393 8.00189 2.97398C8.04949 2.92638 8.07867 2.85983 8.11603 2.80249C8.13958 2.81836 8.16313 2.83423 8.18667 2.8501C8.18667 2.92382 8.18667 2.99702 8.18667 3.07074C8.18667 6.37925 8.18616 9.68777 8.18718 12.9968C8.18718 13.4667 8.40063 13.7698 8.79988 13.8763C9.28512 14.0053 9.77599 13.6572 9.81131 13.157C9.81745 13.068 9.81592 12.9784 9.81592 12.8888C9.81592 9.61866 9.81592 6.34803 9.81592 3.0779C9.8154 3.00316 9.81541 2.92894 9.81541 2.80147Z" fill="white"/>
</g>
<defs>
<clipPath id="clip0_2_1063">
<rect width="18" height="18" fill="white" transform="matrix(-1 0 0 1 18 0)"/>
</clipPath>
</defs>
</svg>
