<svg width="16" height="16" viewBox="0 0 16 16" fill="none" xmlns="http://www.w3.org/2000/svg">
<g clip-path="url(#clip0_2_658)">
<path d="M14.4977 16C10.1659 16 5.83414 16 1.50237 16C1.48985 15.9917 1.47733 15.9792 1.46063 15.9792C0.730326 15.8874 -0.00415549 15.2071 1.76998e-05 14.1889C0.0125373 11.0799 0.00419089 7.97082 0.00419089 4.8618C0.00419089 4.80755 0.00419089 4.75329 0.00419089 4.68652C5.35005 4.68652 10.675 4.68652 16 4.68652C16 7.95831 16 11.2259 16 14.4977C15.9875 14.5311 15.975 14.5645 15.9708 14.5979C15.8247 15.2614 15.4283 15.7037 14.7856 15.9208C14.6896 15.9541 14.5937 15.975 14.4977 16ZM8.00419 14.5603C10.3245 14.5603 12.2149 12.6698 12.2191 10.3495C12.2233 8.0209 10.3287 6.12627 8.00002 6.12627C5.67973 6.12627 3.78927 8.01673 3.7851 10.337C3.78093 12.6657 5.67973 14.5645 8.00419 14.5603Z" fill="#AECA9D"/>
<path d="M16.0002 1.50225C16.0002 2.25342 16.0002 3.00042 16.0002 3.75159C10.671 3.75159 5.34186 3.75159 0.0126953 3.75159C0.0126953 3.01294 0.0126953 2.29515 0.0126953 1.57737C0.0126953 1.4939 0.0335613 1.41044 0.0544272 1.33115C0.246394 0.529896 0.922451 0.00407481 1.77378 0.00407481C4.97462 -9.83763e-05 8.17963 -9.83764e-05 11.3805 -9.83764e-05C12.3445 -9.83764e-05 13.3085 -0.00427156 14.2683 -9.83764e-05C14.9318 0.00407481 15.441 0.300371 15.7707 0.87627C15.8792 1.06824 15.9251 1.29359 16.0002 1.50225ZM2.84629 1.87783C2.84629 1.62327 2.63763 1.41044 2.38307 1.40626C2.1285 1.40209 1.91567 1.61075 1.9115 1.86531C1.90732 2.12405 2.12433 2.34523 2.38307 2.34106C2.63346 2.34523 2.84629 2.1324 2.84629 1.87783ZM4.72005 1.88201C4.72423 1.62744 4.51139 1.41461 4.261 1.41044C4.00644 1.40626 3.79361 1.61492 3.78526 1.86531C3.77691 2.12405 3.99392 2.34523 4.25266 2.34523C4.50722 2.34523 4.72005 2.1324 4.72005 1.88201ZM6.59382 1.88201C6.59799 1.62744 6.38933 1.41461 6.13476 1.40626C5.88437 1.40209 5.66319 1.60658 5.65485 1.86114C5.6465 2.11988 5.86351 2.34106 6.12224 2.34523C6.37681 2.34523 6.59382 2.13657 6.59382 1.88201Z" fill="#AECA9D"/>
<path d="M7.05664 10.3328C7.06916 10.074 7.08585 9.81948 7.0942 9.56492C7.09837 9.47311 7.13176 9.43555 7.22357 9.43555C7.74522 9.43972 8.26269 9.43972 8.78434 9.43555C8.88032 9.43555 8.90953 9.47728 8.90953 9.56909C8.90953 10.0824 8.90536 10.5999 8.90953 11.1132C8.90953 11.2133 8.87198 11.2509 8.77182 11.2509C8.25852 11.2467 7.74104 11.2467 7.22774 11.2509C7.1401 11.2509 7.09837 11.2217 7.0942 11.1257C7.08585 10.8628 7.06916 10.5957 7.05664 10.3328Z" fill="#AECA9D"/>
<path d="M8.76771 8.48034C8.23771 8.48034 7.76197 8.48034 7.26953 8.48034C7.32796 8.15483 7.43229 7.84184 7.58252 7.54972C7.65764 7.40366 7.76197 7.27012 7.86212 7.14075C7.94559 7.03642 8.05409 7.03642 8.13755 7.14075C8.24188 7.27429 8.35456 7.40783 8.4255 7.56224C8.55487 7.86271 8.65086 8.16735 8.76771 8.48034Z" fill="#AECA9D"/>
<path d="M9.86523 11.084C9.86523 10.5832 9.86523 10.1075 9.86523 9.60254C10.0405 9.65262 10.2158 9.68183 10.3785 9.75695C10.6415 9.8738 10.9044 9.99899 11.1422 10.1576C11.3342 10.2828 11.3217 10.3913 11.1422 10.5415C10.775 10.8462 10.3243 10.9714 9.86523 11.084Z" fill="#AECA9D"/>
<path d="M7.26172 12.207C7.7625 12.207 8.23824 12.207 8.7432 12.207C8.6973 12.3656 8.67226 12.5284 8.60549 12.6786C8.48446 12.9499 8.36344 13.2211 8.20486 13.4673C8.06714 13.6802 7.95447 13.6718 7.79171 13.4715C7.56636 13.2003 7.45369 12.8747 7.34936 12.5492C7.31597 12.4407 7.2951 12.3281 7.26172 12.207Z" fill="#AECA9D"/>
<path d="M6.13854 9.60254C6.13854 10.1033 6.13854 10.5832 6.13854 11.084C5.67532 10.9672 5.22044 10.8462 4.84903 10.529C4.6821 10.3871 4.66958 10.2786 4.86155 10.1576C5.12863 9.99065 5.41658 9.85711 5.70453 9.72774C5.83807 9.66514 5.98831 9.64427 6.13854 9.60254Z" fill="#AECA9D"/>
<path d="M6.59407 7.39453C6.49391 7.76594 6.39375 8.13736 6.30194 8.50877C6.28108 8.59224 6.24352 8.62562 6.16423 8.64649C5.79281 8.7383 5.42557 8.83845 5.0625 8.93026C5.15431 8.46704 6.02651 7.5865 6.59407 7.39453Z" fill="#AECA9D"/>
<path d="M6.59371 13.3086C5.89679 12.9664 5.37514 12.4489 5.03711 11.752C5.43356 11.8563 5.82167 11.9523 6.20978 12.0608C6.24316 12.0691 6.28072 12.1275 6.29324 12.1693C6.3934 12.5407 6.49355 12.9163 6.59371 13.3086Z" fill="#AECA9D"/>
<path d="M9.40625 7.37793C10.1032 7.72013 10.6207 8.23761 10.9629 8.93454C10.5664 8.83021 10.1783 8.73005 9.79019 8.62572C9.7568 8.61738 9.71924 8.55895 9.70672 8.51722C9.60657 8.1458 9.51058 7.77021 9.40625 7.37793Z" fill="#AECA9D"/>
<path d="M9.41016 13.2916C9.51031 12.9118 9.61047 12.5237 9.7148 12.1356C9.72315 12.1022 9.76905 12.0688 9.80661 12.0563C10.1864 11.952 10.5661 11.856 10.9375 11.7559C10.8416 12.2274 9.97771 13.0996 9.41016 13.2916Z" fill="#AECA9D"/>
</g>
<defs>
<clipPath id="clip0_2_658">
<rect width="16" height="16" fill="white"/>
</clipPath>
</defs>
</svg>
