<svg width="20" height="20" viewBox="0 0 20 20" fill="none" xmlns="http://www.w3.org/2000/svg">
<path d="M19.5695 9.77658C19.5733 15.1701 15.181 19.5695 9.788 19.5695C4.39498 19.5695 0 15.1756 0 9.78474C0 4.39389 4.39824 -0.00325977 9.7918 1.81328e-06C15.1767 0.00326339 19.5651 4.39117 19.5695 9.77658ZM6.61883 7.8354C6.48972 9.12975 6.48972 10.4337 6.61883 11.7281H12.9501C13.0797 10.4338 13.0797 9.12973 12.9501 7.8354H6.61883ZM12.7615 6.51609C12.7618 6.47687 12.7598 6.43766 12.7555 6.39868C12.5728 5.39574 12.3206 4.41292 11.9031 3.47848C11.6003 2.79898 11.2459 2.15047 10.6599 1.66558C10.0826 1.18722 9.50968 1.18559 8.92314 1.65036C8.54262 1.95043 8.2681 2.33584 8.02946 2.74951C7.54458 3.591 7.23907 4.50152 7.01131 5.44031C6.92596 5.79202 6.86073 6.14699 6.78354 6.51609H12.7615ZM6.81072 13.0566C6.80765 13.0939 6.80765 13.1314 6.81072 13.1686C6.99174 14.1732 7.2456 15.1566 7.66308 16.0915C7.96314 16.7656 8.31539 17.4098 8.89269 17.8919C9.49391 18.3926 10.1 18.4105 10.6708 17.8811C11.0046 17.5638 11.2943 17.2031 11.5319 16.8085C12.0417 15.9817 12.3309 15.0576 12.5571 14.1188C12.6408 13.7715 12.7071 13.4192 12.7832 13.0566H6.81072ZM5.25875 7.83812C5.24358 7.83266 5.22758 7.8299 5.21146 7.82996C4.03022 7.82996 2.84845 7.82997 1.66721 7.82616C1.54436 7.82616 1.52642 7.88976 1.50413 7.98435C1.34812 8.70298 1.26386 9.4314 1.31659 10.1653C1.35464 10.6898 1.44216 11.2111 1.50631 11.7254H5.25712L5.25875 7.83812ZM14.3107 7.82779V11.733H18.017C18.0325 11.6935 18.0459 11.6532 18.0572 11.6123C18.3282 10.4233 18.3319 9.18905 18.0681 7.99848C18.0387 7.86476 17.9909 7.82344 17.8566 7.82507C17.2255 7.8316 16.5938 7.82779 15.9622 7.82779H14.3107ZM12.494 17.7968C14.8744 16.9542 16.571 15.3805 17.6131 13.0545H14.1553C13.9454 13.8796 13.7611 14.6934 13.5285 15.493C13.2869 16.3033 12.939 17.0779 12.494 17.7968ZM17.6125 6.51501C16.5726 4.18569 14.875 2.61198 12.4902 1.76778C13.3948 3.22733 13.828 4.84236 14.109 6.51501H17.6125ZM1.95695 6.51501H5.46151C5.74201 4.84073 6.17634 3.22788 7.0798 1.76886C4.6983 2.61198 3.00011 4.18569 1.95695 6.51337V6.51501ZM1.99228 13.0556C2.34073 14.7364 5.40117 17.5788 7.10209 17.7935C6.17797 16.3427 5.7431 14.7266 5.46314 13.0556H1.99228Z" fill="#AECA9D"/>
<path d="M14.5248 20.0004C17.4463 20.0004 19.8146 17.6321 19.8146 14.7106C19.8146 11.7892 17.4463 9.4209 14.5248 9.4209C11.6034 9.4209 9.23511 11.7892 9.23511 14.7106C9.23511 17.6321 11.6034 20.0004 14.5248 20.0004Z" fill="#AECA9D"/>
<path d="M12.1592 15.8659C12.1717 15.8044 12.1809 15.7419 12.1967 15.6816C12.2423 15.5013 12.335 15.3364 12.4652 15.2038C12.8017 14.8657 13.1349 14.5232 13.4796 14.1927C13.9742 13.7176 14.8098 13.8306 15.1647 14.4128C15.1707 14.4221 15.1756 14.4313 15.1756 14.4313C15.1158 14.5033 15.0517 14.5715 14.9837 14.6357C14.9312 14.6775 14.8649 14.698 14.798 14.6933C14.7311 14.6886 14.6683 14.6589 14.6222 14.6102C14.5693 14.5583 14.5064 14.5176 14.4374 14.4905C14.3684 14.4634 14.2946 14.4505 14.2205 14.4525C14.1498 14.4518 14.0797 14.4653 14.0144 14.4922C13.949 14.5191 13.8897 14.5588 13.84 14.6091C13.5138 14.9352 13.1877 15.2565 12.8669 15.5827C12.7657 15.6869 12.7095 15.8267 12.7104 15.972C12.7114 16.1173 12.7694 16.2564 12.8721 16.3592C12.9747 16.4621 13.1137 16.5204 13.259 16.5217C13.4043 16.523 13.5442 16.467 13.6486 16.366C13.8574 16.1632 14.0618 15.9561 14.2662 15.749C14.2776 15.7335 14.294 15.7225 14.3127 15.7178C14.3313 15.7132 14.351 15.7151 14.3684 15.7234C14.5654 15.7927 14.7762 15.814 14.9832 15.7854C14.9938 15.7849 15.0046 15.7849 15.0152 15.7854L14.9766 15.8256C14.674 16.1286 14.3714 16.4316 14.0688 16.7345C13.8887 16.9215 13.649 17.0398 13.391 17.0688C13.3837 17.0705 13.3766 17.0728 13.3698 17.0759H13.1665C13.1561 17.0732 13.1464 17.0694 13.136 17.0678C12.6805 16.9982 12.3739 16.7472 12.2163 16.3149C12.1932 16.234 12.175 16.1517 12.1619 16.0686L12.1592 15.8659Z" fill="white"/>
<path d="M16.8912 13.5547C16.8727 13.6357 16.8591 13.7177 16.8368 13.7966C16.7924 13.9496 16.7108 14.0893 16.5993 14.2032C16.2601 14.5456 15.9236 14.8908 15.5757 15.2246C15.3625 15.4232 15.0796 15.5298 14.7884 15.5212C14.4972 15.5127 14.2211 15.3897 14.0199 15.1789C13.9655 15.1191 13.9177 15.049 13.8628 14.9783C13.9318 14.9073 14.0044 14.8398 14.0802 14.7761C14.1325 14.7379 14.197 14.7201 14.2615 14.7259C14.326 14.7317 14.3862 14.7607 14.4309 14.8077C14.5187 14.893 14.6321 14.947 14.7537 14.9615C14.8387 14.9735 14.9253 14.9653 15.0065 14.9374C15.0876 14.9095 15.161 14.8628 15.2207 14.8011C15.4229 14.6 15.6244 14.3985 15.8252 14.1966C15.9431 14.0792 16.0627 13.9634 16.1774 13.8433C16.2488 13.7745 16.2995 13.6872 16.3239 13.5912C16.3483 13.4951 16.3454 13.3942 16.3155 13.2997C16.2886 13.2079 16.2384 13.1246 16.1698 13.0579C16.1011 12.9913 16.0163 12.9436 15.9237 12.9195C15.8311 12.8954 15.7338 12.8957 15.6414 12.9204C15.5489 12.9452 15.4645 12.9934 15.3963 13.0605C15.187 13.2655 14.9815 13.4731 14.7755 13.6813C14.7658 13.6934 14.7522 13.7018 14.737 13.7049C14.7219 13.7081 14.7061 13.7059 14.6923 13.6987C14.4852 13.6265 14.2637 13.6051 14.0465 13.6362L14.0297 13.6177C14.0463 13.6126 14.0619 13.6047 14.0759 13.5943C14.3781 13.2936 14.6798 12.992 14.981 12.6898C15.1616 12.5013 15.4027 12.3822 15.6621 12.3533C15.6694 12.3515 15.6765 12.349 15.6833 12.3457H15.8866C15.8965 12.3492 15.9067 12.352 15.917 12.3539C16.1372 12.38 16.3444 12.4718 16.5118 12.6172C16.6792 12.7626 16.7991 12.9549 16.8558 13.1693C16.8721 13.2296 16.8814 13.2921 16.8939 13.353L16.8912 13.5547Z" fill="white"/>
</svg>
