<svg width="60" height="51" viewBox="0 0 60 51" fill="none" xmlns="http://www.w3.org/2000/svg">
<g clip-path="url(#clip0_2_905)">
<path d="M0 3.68764C0.0688791 3.48758 0.140889 3.28753 0.203507 3.08432C0.768629 1.2854 2.34502 0.0756116 4.21259 0.0078762C4.30964 0.00472572 4.40827 0.00315048 4.50532 0.00315048C21.4934 0.00315048 38.4815 0.00472572 55.4696 0C57.1493 0 58.4471 0.682079 59.3488 2.10452C59.8466 2.89057 60 3.7664 60 4.69264C59.9922 13.1422 59.9953 21.5903 59.9953 30.0398C59.9953 35.5422 60.0016 41.0429 59.9922 46.5452C59.989 48.7175 58.5927 50.4628 56.5169 50.9086C56.1209 50.9937 55.7029 50.9968 55.2943 50.9968C38.4236 51.0016 21.5529 51.0016 4.68222 51C2.24796 51 0.710708 49.8107 0.0876644 47.4636C0.0735755 47.41 0.0297433 47.3659 0 47.3171C0 32.7729 0 18.2303 0 3.68764ZM1.75798 11.5875C1.75798 11.8521 1.75798 12.0459 1.75798 12.238C1.75798 23.5971 1.75798 34.9562 1.75798 46.3137C1.75798 48.185 2.79587 49.2294 4.65874 49.2294C21.5513 49.231 38.444 49.231 55.3381 49.2294C57.1994 49.2294 58.2373 48.1819 58.2373 46.3121C58.2389 34.953 58.2373 23.594 58.2373 12.2365C58.2373 12.0301 58.2373 11.8222 58.2373 11.5875C57.9195 11.5875 57.6863 11.5875 57.4546 11.5875C43.0808 11.5875 28.707 11.5875 14.3331 11.5875C14.1187 11.5875 13.8995 11.608 13.6897 11.5717C13.1997 11.4867 12.9195 11.1653 12.9336 10.6723C12.9461 10.2091 13.2264 9.90827 13.6929 9.83423C13.9026 9.80115 14.1218 9.81848 14.3363 9.81848C28.7101 9.81848 43.0839 9.81848 57.4577 9.81848C57.7035 9.81848 57.9508 9.81848 58.2373 9.81848C58.2373 8.00065 58.2436 6.25528 58.2358 4.50991C58.2279 2.87324 57.1431 1.7753 55.5119 1.77372C38.5019 1.769 21.4919 1.769 4.48184 1.77372C2.84909 1.77372 1.76894 2.87324 1.75955 4.51149C1.75172 6.12296 1.75642 7.73443 1.75955 9.3459C1.75955 9.49555 1.78616 9.64363 1.80182 9.81848C4.22198 9.81848 6.60301 9.81848 8.98403 9.81848C9.25798 9.81848 9.53663 9.7917 9.80276 9.8358C10.2583 9.90984 10.5416 10.1902 10.5542 10.6738C10.5667 11.1842 10.2833 11.4788 9.80119 11.5717C9.61177 11.608 9.4114 11.5875 9.21728 11.5875C6.75798 11.5875 4.30025 11.5875 1.75798 11.5875Z" fill="#D7D7D7"/>
<path d="M30.052 23.6148C23.5696 23.6148 17.0855 23.6148 10.6031 23.6148C9.21139 23.6148 8.67131 24.1661 8.67131 25.5822C8.67131 29.0005 8.66975 32.4204 8.67131 35.8386C8.67131 37.0988 9.238 37.6817 10.4888 37.6817C23.5523 37.6848 36.6159 37.6848 49.6795 37.6817C50.9615 37.6817 51.5251 37.102 51.5314 35.8024C51.5361 34.8005 51.5267 33.7987 51.5345 32.7953C51.5392 32.1211 51.8382 31.7572 52.3736 31.7414C52.934 31.7257 53.2784 32.1069 53.2862 32.7968C53.2987 33.8964 53.3113 34.9974 53.2831 36.0985C53.2346 38.0471 51.8648 39.4207 49.9284 39.4459C48.0154 39.4711 46.1009 39.4664 44.1879 39.4412C43.7621 39.4365 43.5289 39.5909 43.2878 39.9264C39.8376 44.7214 35.1491 47.1363 29.2818 46.9C24.0094 46.6873 19.8063 44.2788 16.7255 39.9484C16.4719 39.5909 16.2245 39.4333 15.7768 39.4396C14.0001 39.468 12.2233 39.457 10.4465 39.4491C8.26586 39.4396 6.91646 38.0676 6.91489 35.867C6.91333 32.3699 6.91176 28.8713 6.91489 25.3743C6.91646 23.2288 8.3003 21.8458 10.4403 21.8426C12.2562 21.841 14.0721 21.8332 15.888 21.8505C16.2386 21.8536 16.4468 21.7465 16.6488 21.4535C23.222 11.9832 36.7568 11.9879 43.352 21.4614C43.5586 21.7575 43.7715 21.8521 44.1175 21.8505C46.0304 21.8347 47.9449 21.8395 49.8579 21.8442C51.8147 21.8489 53.2252 23.2178 53.2815 25.1884C53.3097 26.2092 53.2972 27.2315 53.2846 28.2538C53.2768 28.9391 52.9293 29.3282 52.3751 29.3124C51.8382 29.2982 51.5392 28.9343 51.5329 28.2617C51.5251 27.3575 51.5329 26.4533 51.5298 25.5507C51.5251 24.1787 50.9678 23.6132 49.6153 23.6116C43.0968 23.6148 36.5736 23.6148 30.052 23.6148ZM29.1143 44.9971C29.1143 43.2501 29.1237 41.5111 29.0924 39.772C29.0908 39.6633 28.784 39.4743 28.615 39.4696C27.3689 39.4444 26.1228 39.4554 24.8751 39.4554C24.5949 39.4554 24.3147 39.4554 24.0094 39.4554C24.8078 42.1443 27.2436 44.7844 29.1143 44.9971ZM30.877 45.038C32.9653 44.7167 35.2915 41.8245 35.9381 39.4554C34.681 39.4554 33.4381 39.4554 32.1951 39.4554C30.877 39.4554 30.877 39.4554 30.877 40.7754C30.877 42.1837 30.877 43.592 30.877 45.038ZM29.0815 16.3277C27.3 16.4269 24.3851 19.6357 24.0611 21.8095C25.7299 21.8095 27.3986 21.8095 29.0815 21.8095C29.0815 19.9602 29.0815 18.1455 29.0815 16.3277ZM35.9568 21.8143C35.3448 19.3143 32.5254 16.2678 30.9177 16.3623C30.9177 18.1739 30.9177 19.9854 30.9177 21.8143C32.6225 21.8143 34.2865 21.8143 35.9568 21.8143ZM35.4935 43.9937C37.2718 43.5746 40.7032 40.8952 41.3185 39.4538C40.3275 39.4538 39.3585 39.4711 38.3895 39.4459C38.031 39.4365 37.8917 39.5861 37.7524 39.8949C37.361 40.7676 36.9493 41.6339 36.4969 42.4751C36.2183 42.9949 35.8473 43.4675 35.4935 43.9937ZM24.3053 43.9543C23.6165 42.6011 22.8964 41.1771 22.1654 39.761C22.1027 39.6397 21.9666 39.4743 21.8617 39.4727C20.8003 39.4507 19.7374 39.4601 18.6384 39.4601C19.4666 41.0338 22.6068 43.4659 24.3053 43.9543ZM35.6594 17.3028C36.367 18.6953 37.1043 20.1492 37.8495 21.5969C37.9027 21.6993 38.031 21.8316 38.1265 21.8332C39.2036 21.8505 40.2806 21.8442 41.4687 21.8442C39.8125 19.7318 37.8808 18.2243 35.6594 17.3028ZM18.5351 21.8442C19.7139 21.8442 20.7768 21.8568 21.8398 21.8269C21.965 21.8237 22.1231 21.6095 22.1998 21.4598C22.6397 20.5887 23.0342 19.6924 23.4975 18.8323C23.7856 18.2983 24.166 17.8147 24.5808 17.1956C22.1106 18.24 20.1663 19.7334 18.5351 21.8442Z" fill="#D7D7D7"/>
<path d="M17.7711 30.6211C17.4048 31.6451 17.0776 32.5382 16.7692 33.4361C16.6111 33.8976 16.3857 34.26 15.8378 34.2537C15.2852 34.2474 15.0785 33.863 14.9251 33.4093C14.3663 31.7569 13.7996 30.1076 13.2407 28.4552C13.02 27.7999 13.1969 27.3226 13.7103 27.1414C14.2363 26.9556 14.6606 27.2108 14.8922 27.8708C15.2038 28.7561 15.5059 29.6445 15.8659 30.6842C16.2604 29.5878 16.5641 28.6127 16.9696 27.6849C17.0917 27.4045 17.4768 27.121 17.7758 27.0753C18.0137 27.0391 18.3284 27.3368 18.5632 27.54C18.679 27.6392 18.6962 27.8582 18.7526 28.0252C19.0359 28.8522 19.3193 29.6807 19.6543 30.6605C20.0112 29.6414 20.3071 28.7561 20.6374 27.8834C20.7297 27.6392 20.8847 27.31 21.0851 27.2407C21.3763 27.1414 21.7817 27.1477 22.0525 27.2832C22.4502 27.4817 22.4705 27.9228 22.3359 28.3244C22.1026 29.0317 21.8443 29.7296 21.5986 30.4321C21.2432 31.4497 20.88 32.4642 20.5372 33.4865C20.3854 33.9402 20.1396 34.2568 19.6292 34.2521C19.1142 34.2489 18.8857 33.9118 18.7369 33.4645C18.4411 32.5571 18.1249 31.6545 17.7711 30.6211Z" fill="#D7D7D7"/>
<path d="M29.9314 30.8121C29.6262 31.6737 29.3146 32.5338 29.0172 33.397C28.8544 33.8712 28.6352 34.2713 28.0529 34.254C27.505 34.2366 27.3077 33.8523 27.1543 33.3955C26.5923 31.7241 26.0163 30.0591 25.4417 28.3925C25.3024 27.9892 25.2852 27.5576 25.6625 27.3324C25.9239 27.1764 26.3372 27.1276 26.6236 27.2174C26.8412 27.2851 27.0228 27.6269 27.1215 27.8868C27.4518 28.7611 27.7382 29.6511 28.0952 30.6908C28.4333 29.7488 28.7213 28.9454 29.0078 28.142C29.0736 27.9577 29.0892 27.7199 29.216 27.6002C29.454 27.3765 29.7577 27.074 30.0316 27.0772C30.3024 27.0803 30.6953 27.3623 30.8128 27.6238C31.1478 28.3704 31.3701 29.1691 31.6377 29.9457C31.7004 30.1253 31.7708 30.3033 31.896 30.6388C32.2436 29.6432 32.5285 28.7863 32.8447 27.942C32.9371 27.6947 33.067 27.3607 33.2674 27.2772C33.5507 27.1575 33.9608 27.1292 34.2332 27.2505C34.6543 27.4395 34.7216 27.879 34.5698 28.3185C34.083 29.7252 33.593 31.1303 33.103 32.537C32.9809 32.8882 32.8525 33.2379 32.7335 33.5908C32.5927 34.0051 32.3265 34.2556 31.8757 34.2556C31.4248 34.2556 31.1603 34.0067 31.0194 33.5892C30.7063 32.6646 30.387 31.743 30.0707 30.8199C30.0238 30.8168 29.9768 30.8136 29.9314 30.8121Z" fill="#D7D7D7"/>
<path d="M40.3361 30.6704C40.7086 29.626 41.0405 28.7265 41.3505 27.8192C41.5039 27.3702 41.7449 27.0394 42.2521 27.041C42.7593 27.0426 42.9989 27.3734 43.1476 27.8239C43.445 28.7344 43.7659 29.6354 44.1166 30.6578C44.4704 29.6575 44.7803 28.7722 45.0965 27.8885C45.3407 27.2064 45.7321 26.956 46.2612 27.1292C46.806 27.3072 46.986 27.7908 46.7465 28.4824C46.1689 30.149 45.5803 31.8109 45.0057 33.479C44.8523 33.9248 44.6175 34.2556 44.104 34.2541C43.5922 34.2525 43.3558 33.928 43.2071 33.4759C42.9096 32.5638 42.5887 31.6612 42.2334 30.6247C41.8796 31.614 41.5571 32.4866 41.255 33.3656C41.0937 33.8366 40.8996 34.2525 40.3141 34.2525C39.7287 34.2541 39.533 33.8413 39.3733 33.3688C38.8348 31.7715 38.2853 30.1789 37.7406 28.5848C37.703 28.4729 37.6576 28.3642 37.631 28.2492C37.512 27.7326 37.7171 27.3057 38.1585 27.145C38.6344 26.9717 39.0837 27.1686 39.2841 27.6963C39.569 28.4461 39.8132 29.2133 40.0762 29.9725C40.1388 30.1537 40.2093 30.3317 40.3361 30.6704Z" fill="#D7D7D7"/>
<path d="M50.6828 6.66335C49.8656 6.66335 49.0469 6.6728 48.2297 6.6602C47.6176 6.65075 47.2498 6.33098 47.2294 5.82375C47.2075 5.29447 47.591 4.90696 48.2141 4.90223C49.8499 4.88806 51.4843 4.88806 53.1201 4.90223C53.7401 4.90696 54.1377 5.29132 54.1252 5.80957C54.1126 6.3105 53.7338 6.65075 53.1358 6.6602C52.3186 6.6728 51.4999 6.66335 50.6828 6.66335Z" fill="#D7D7D7"/>
<path d="M12.6295 5.80765C12.617 6.29755 12.2021 6.67561 11.7059 6.65198C11.2331 6.62992 10.8809 6.24714 10.8919 5.76827C10.9028 5.27207 11.3192 4.88141 11.8029 4.91291C12.2569 4.93969 12.6404 5.35398 12.6295 5.80765Z" fill="#D7D7D7"/>
<path d="M15.858 4.90859C16.312 4.89441 16.7221 5.2709 16.7534 5.73244C16.7863 6.22234 16.4028 6.63978 15.9081 6.65238C15.4385 6.66341 15.0408 6.30583 15.0095 5.84113C14.9782 5.36226 15.3774 4.92434 15.858 4.90859Z" fill="#D7D7D7"/>
<path d="M7.62993 4.9102C8.09643 4.91335 8.48466 5.30558 8.48779 5.77973C8.49248 6.28853 8.09956 6.66974 7.58923 6.65242C7.10551 6.63509 6.75642 6.26018 6.76581 5.76871C6.7752 5.28826 7.1603 4.90547 7.62993 4.9102Z" fill="#D7D7D7"/>
<path d="M24.7372 33.3632C24.7497 33.8452 24.4006 34.2233 23.9247 34.2422C23.4207 34.2627 23.0262 33.8846 23.0293 33.3837C23.0324 32.9095 23.405 32.5331 23.8762 32.5283C24.3568 32.5252 24.7247 32.8812 24.7372 33.3632Z" fill="#D7D7D7"/>
<path d="M36.149 32.5283C36.6155 32.5267 37.0084 32.9095 37.0163 33.3727C37.0256 33.861 36.6186 34.2579 36.1224 34.2438C35.6559 34.2312 35.2755 33.8373 35.2833 33.3758C35.2911 32.9127 35.6841 32.5283 36.149 32.5283Z" fill="#D7D7D7"/>
</g>
<defs>
<clipPath id="clip0_2_905">
<rect width="60" height="51" fill="white"/>
</clipPath>
</defs>
</svg>
