<svg width="18" height="18" viewBox="0 0 18 18" fill="none" xmlns="http://www.w3.org/2000/svg">
<path d="M4.18068 8.35948C3.45617 8.35948 2.73703 8.35948 2.01252 8.35948C0.831843 8.35948 0.00536673 7.52789 0 6.35293C0 4.90971 0 3.46112 0 2.0179C0 0.837576 0.831843 0.0113466 2.00716 0.00598145C3.45081 0.00598145 4.89982 0.00598145 6.34347 0.00598145C7.52415 0.00598145 8.35063 0.832211 8.35599 2.01254C8.35599 3.45576 8.35599 4.90434 8.35599 6.34756C8.35599 7.52789 7.52415 8.35412 6.34884 8.35948C5.62433 8.35948 4.90519 8.35948 4.18068 8.35948Z" fill="#919195"/>
<path d="M18 4.19554C18 4.91983 18 5.63875 18 6.36305C17.9947 7.52728 17.1628 8.35351 15.9983 8.35887C14.5439 8.35887 13.0949 8.35887 11.6405 8.35887C10.4759 8.35887 9.64941 7.52191 9.64404 6.35232C9.64404 4.9091 9.64404 3.46051 9.64404 2.01729C9.64404 0.826235 10.4759 0.00537109 11.6673 0.00537109C13.1002 0.00537109 14.5331 0.00537109 15.9661 0.00537109C17.1843 0.00537109 18 0.826236 18 2.04948C18 2.76305 18 3.47661 18 4.19554Z" fill="#919195"/>
<path d="M4.18605 9.64111C4.91055 9.64111 5.6297 9.64111 6.3542 9.64111C7.51878 9.64648 8.35599 10.4727 8.35599 11.6369C8.36136 13.0909 8.35599 14.5395 8.35599 15.9934C8.35599 17.163 7.52415 17.9946 6.35957 17.9946C4.90519 17.9946 3.45617 17.9946 2.00179 17.9946C0.837209 17.9946 0 17.163 0 15.9988C0 14.5448 0 13.0963 0 11.6423C0 10.4727 0.831843 9.64111 1.99642 9.64111C2.7263 9.64111 3.45617 9.64111 4.18605 9.64111Z" fill="#919195"/>
<path d="M9.64405 13.7991C9.63869 11.5189 11.517 9.65186 13.8194 9.64112C16.1056 9.63576 17.9947 11.5136 18 13.7991C18.0054 16.1061 16.1378 17.9946 13.8408 17.9946C11.5117 17.9946 9.64942 16.1383 9.64405 13.7991Z" fill="#919195"/>
</svg>
