<svg width="17" height="12" viewBox="0 0 17 12" fill="none" xmlns="http://www.w3.org/2000/svg">
<path d="M0 8.38837C0.0603225 8.14821 0.0995321 7.90051 0.184738 7.6694C0.404161 7.0741 0.793994 6.61942 1.38138 6.35927C1.64077 6.24617 1.74596 6.08255 1.74973 5.78621C1.7633 4.65517 2.2078 3.73676 3.20991 3.16445C4.31494 2.53332 5.69519 2.85379 6.45488 3.87776C6.79156 4.33018 6.84698 4.34224 7.32993 4.05458C8.00856 3.6508 8.91943 3.71527 9.56375 4.20539C10.0938 4.60955 10.4139 5.13925 10.5357 5.793C10.5964 6.11912 10.757 6.23486 11.0688 6.18736C11.7305 6.08632 12.3129 6.26992 12.7997 6.71518C13.8832 7.70899 13.9062 9.44703 12.8558 10.4706C12.4558 10.8605 11.9725 11.0772 11.4089 11.0776C8.3475 11.0806 5.28601 11.0806 2.22439 11.0776C1.19288 11.075 0.313677 10.3017 0.0689938 9.22233C0.0463729 9.12129 0.0229979 9.02063 0 8.92072L0 8.38837Z" fill="#586772"/>
<path d="M8.31357 2.98751C7.89169 3.032 7.49469 3.11909 7.12371 3.30759C7.04189 3.34907 6.98949 3.3453 6.9254 3.27215C6.81229 3.14284 6.68335 3.02936 6.56949 2.90155C6.55069 2.88085 6.53631 2.85653 6.52724 2.83008C6.51816 2.80363 6.51458 2.77561 6.51671 2.74773C6.72935 1.87494 7.4502 1.09904 8.36409 0.966705C8.81117 0.899832 9.26781 0.982678 9.6629 1.20234C9.71154 1.22835 9.75791 1.25927 9.80504 1.28755C10.1036 1.46738 10.2575 1.43835 10.4629 1.15031C10.7159 0.791016 11.0243 0.492797 11.416 0.292602C12.5923 -0.306852 13.9318 0.0373626 14.6934 1.11827C15.0763 1.65348 15.2748 2.2987 15.2589 2.95659C15.254 3.23935 15.3645 3.39091 15.6096 3.50703C16.5144 3.93646 16.9453 4.69388 16.994 5.66356C17.0403 6.58951 16.681 7.34618 15.9112 7.88795C15.4682 8.19899 14.9626 8.25969 14.4382 8.24046C14.3179 8.23632 14.33 8.15073 14.3187 8.07985C14.2029 7.35749 13.8938 6.73353 13.3678 6.22343C12.8185 5.68581 12.1576 5.39777 11.3859 5.40041C11.2479 5.40041 11.1974 5.35667 11.1597 5.2315C10.8384 4.23354 10.2062 3.5191 9.20445 3.173C8.91755 3.07498 8.6099 3.04708 8.31357 2.98751Z" fill="#586772"/>
</svg>
