<svg width="19" height="18" viewBox="0 0 19 18" fill="none" xmlns="http://www.w3.org/2000/svg">
<g opacity="0.8" clip-path="url(#clip0_816_2715)">
<path d="M1 9.08034C1.03703 8.79235 1.06171 8.50025 1.11931 8.21638C1.31063 7.09173 1.75919 6.02648 2.43001 5.10374C3.10084 4.18101 3.97577 3.42573 4.98657 2.89683C6.15173 2.23991 7.48158 1.9328 8.81681 2.0123C10.1292 2.05386 11.4066 2.44534 12.5169 3.14624C13.6272 3.84713 14.53 4.83198 15.132 5.99887C15.7934 7.16193 16.0968 8.49435 16.0042 9.82911C15.8067 12.816 14.3585 14.9841 11.6679 16.3212C10.8535 16.718 9.96818 16.9488 9.06365 17C9.02537 16.9957 8.98674 16.9957 8.94846 17H8.06804C8.03112 16.9961 7.99388 16.9961 7.95696 17C6.91428 16.9357 5.89864 16.6421 4.98246 16.1402C3.97341 15.6116 3.09991 14.8574 2.42988 13.9362C1.75985 13.015 1.31137 11.9516 1.11931 10.8288C1.06171 10.545 1.03703 10.2405 1 9.96076V9.08034Z" fill="#586772"/>
<path d="M5.32812 10.1913L11.0385 4.50977H11.0632L9.578 8.81724H11.6721V8.85426L5.83827 14.54L7.44278 10.2407H5.34458L5.32812 10.1913Z" fill="white"/>
</g>
<defs>
<clipPath id="clip0_816_2715">
<rect width="19" height="18.0001" fill="white"/>
</clipPath>
</defs>
</svg>
