<svg width="9" height="16" viewBox="0 0 9 16" fill="none" xmlns="http://www.w3.org/2000/svg">
<path d="M8.44542 0C8.44542 0.0520833 8.45042 0.104167 8.45042 0.155833C8.45042 3.19222 8.45167 6.22847 8.45417 9.26458C8.45417 9.39958 8.4125 9.465 8.29375 9.52417C7.37125 9.98625 6.41042 10.3242 5.38583 10.4754C4.03958 10.6742 2.72792 10.5271 1.45208 10.0696C1.00792 9.91042 0.583333 9.69708 0.146667 9.51583C0.0320833 9.46833 0 9.40208 0 9.28042C0.00416667 7.02542 0.00527778 4.77028 0.00333333 2.515C0.00333333 1.67667 0.00486111 0.838333 0.00791667 0H8.44542ZM0.940417 0.945417V8.70542C0.940417 8.78875 0.930833 8.8575 1.0375 8.90458C2.05333 9.35417 3.10875 9.625 4.22458 9.625C5.32375 9.625 6.36583 9.36542 7.36958 8.92833C7.48417 8.87833 7.51625 8.8175 7.51583 8.69625C7.51222 6.17181 7.51139 3.64694 7.51333 1.12167V0.945417H0.940417Z" fill="#586772"/>
<path d="M3.82032 16.0004C3.5649 15.9588 3.30698 15.9275 3.05407 15.8754C2.08669 15.673 1.19129 15.2148 0.461149 14.5488C0.446149 14.535 0.432816 14.5192 0.406982 14.4917L1.03865 13.8125C1.94698 14.6292 3.00365 15.06 4.21907 15.0625C5.43448 15.065 6.49532 14.6379 7.41573 13.8125L8.0599 14.5004C7.85157 14.6671 7.65448 14.8337 7.44323 14.9829C6.64546 15.5482 5.71118 15.8901 4.73698 15.9733C4.70166 15.9791 4.66684 15.9876 4.63282 15.9987L3.82032 16.0004Z" fill="#586772"/>
<path d="M1.53174 13.2811L2.14591 12.6211C3.52841 13.6869 4.90591 13.6923 6.30757 12.6211L6.92007 13.2757C5.54174 14.6603 3.04424 14.7498 1.53174 13.2811Z" fill="#586772"/>
<path d="M2.63794 12.0934L3.26794 11.4167C3.54711 11.6463 3.85627 11.7859 4.22002 11.7863C4.58377 11.7867 4.89961 11.6575 5.18419 11.415L5.80919 12.0863C5.07377 12.8563 3.59752 13.0021 2.63794 12.0934Z" fill="#586772"/>
<path d="M1.88989 2.19238H6.56364V6.24072H1.88989V2.19238ZM5.63156 3.1353H2.82739V5.30197H5.63156V3.1353Z" fill="#586772"/>
<path d="M3.7688 7.41699H4.68547V8.33366H3.7688V7.41699Z" fill="#586772"/>
</svg>
