<svg width="18" height="18" viewBox="0 0 18 18" fill="none" xmlns="http://www.w3.org/2000/svg">
<g opacity="0.8" clip-path="url(#clip0_816_2666)">
<path d="M10.5487 1C10.5487 1.66896 10.5487 2.31364 10.5487 2.95833C10.5487 3.63422 10.9432 4.03092 11.6152 4.03178C12.206 4.03178 12.7967 4.03178 13.3875 4.03178H13.5726V12.6498C13.4157 12.6208 13.2618 12.5965 13.1105 12.5631C12.941 12.5262 12.8664 12.3572 12.9449 12.2011C14.164 9.7897 12.6878 6.83639 10.0245 6.35949C7.67945 5.94242 5.51172 7.54871 5.22124 9.9215C4.95288 12.1243 6.57347 14.1702 8.79063 14.4347C9.59146 14.5346 10.4039 14.3938 11.1244 14.0302C11.2692 13.9578 11.4517 14.0376 11.463 14.2036C11.4899 14.5977 11.701 14.8774 11.9755 15.1301C12.1489 15.2905 12.3132 15.4626 12.5052 15.653C12.4259 15.6582 12.3804 15.6638 12.3353 15.6638H2.41794C2.10969 15.6638 2 15.5533 2 15.2398V1.42271C2 1.11749 2.11229 1 2.4045 1H10.5487ZM6.1551 5.58084C6.44384 5.58084 6.70874 5.58084 6.97364 5.58084C7.1813 5.58084 7.22813 5.53185 7.22856 5.32072C7.22856 5.01723 7.22856 4.71375 7.22856 4.41027C7.22856 4.1935 7.18867 4.15274 6.97537 4.15014C6.70614 4.15014 6.43734 4.15014 6.1551 4.15014C6.1551 3.87137 6.1551 3.61211 6.1551 3.35329C6.1551 3.1079 6.12215 3.07582 5.87113 3.07582H4.99363C4.75562 3.07582 4.72613 3.1066 4.7257 3.35025V4.15144C4.42699 4.15144 4.15125 4.15144 3.87595 4.15144C3.69907 4.15144 3.65354 4.1948 3.65268 4.37168C3.65268 4.69121 3.65268 5.01073 3.65268 5.33025C3.65268 5.53229 3.69907 5.57824 3.90023 5.57998C4.05717 5.57998 4.21412 5.57998 4.37149 5.57998H4.72613C4.72613 5.87825 4.72613 6.14879 4.72613 6.41932C4.72613 6.60011 4.77686 6.65127 4.95635 6.65213C5.27587 6.6543 5.59539 6.65213 5.91492 6.65213C6.10351 6.65213 6.1538 6.60011 6.15467 6.40978C6.15597 6.14098 6.1551 5.87132 6.1551 5.58084Z" fill="#586772"/>
<path d="M12.04 12.4575C12.295 12.7107 12.5499 12.9678 12.8105 13.2192C12.8352 13.2431 12.8972 13.2422 12.9379 13.2331C13.0217 13.2091 13.1105 13.2086 13.1945 13.2315C13.2786 13.2545 13.3548 13.3 13.4148 13.3632C14.1917 14.1418 14.9692 14.92 15.7473 15.6978C15.9606 15.9124 15.9602 16.1552 15.7521 16.372C15.5983 16.5321 15.4412 16.6892 15.2808 16.8432C15.064 17.0509 14.8199 17.0518 14.6062 16.8389C13.8258 16.0629 13.0477 15.2854 12.272 14.5064C12.2076 14.4472 12.1613 14.3711 12.1383 14.2867C12.1153 14.2023 12.1165 14.1132 12.1419 14.0295C12.1478 14.0062 12.1488 13.9819 12.1447 13.9581C12.1407 13.9344 12.1318 13.9118 12.1185 13.8917C11.8718 13.6315 11.6186 13.3814 11.3628 13.123C10.5122 13.7356 9.58098 13.9467 8.56865 13.7369C7.7358 13.5635 7.06121 13.123 6.54442 12.4471C5.51042 11.0944 5.64612 9.15605 6.85614 7.94689C7.44446 7.3592 8.22555 7.00422 9.05517 6.94748C9.88479 6.89075 10.7069 7.13609 11.3698 7.6382C12.745 8.68218 13.2514 10.7775 12.04 12.4575ZM6.80498 10.3765C6.80395 11.0344 7.064 11.6658 7.52805 12.1321C7.9921 12.5984 8.62222 12.8615 9.28009 12.8637C10.6523 12.8637 11.7778 11.7404 11.7708 10.3717C11.7702 9.7132 11.508 9.08191 11.0419 8.61672C10.5758 8.15153 9.94402 7.89055 9.28551 7.89118C8.627 7.89181 7.99572 8.15401 7.53053 8.62009C7.06534 9.08618 6.80435 9.71797 6.80498 10.3765Z" fill="#586772"/>
<path d="M11.199 1.06445L13.5111 3.37395C13.4864 3.37395 13.4465 3.38132 13.4062 3.38132C12.805 3.38132 12.2035 3.38132 11.6017 3.38132C11.3117 3.38132 11.1998 3.26817 11.1994 2.97726C11.1985 2.33879 11.1984 1.70119 11.199 1.06445Z" fill="#586772"/>
</g>
<defs>
<clipPath id="clip0_816_2666">
<rect width="18" height="18" fill="white"/>
</clipPath>
</defs>
</svg>
