<svg width="16" height="16" viewBox="0 0 16 16" fill="none" xmlns="http://www.w3.org/2000/svg">
<path d="M1.26505 1.36925H7.44907V0H13.7429V14.102H15.0118V16H0V14.1097H1.26505V1.36925ZM13.215 14.0994V0.518851H7.98256V14.0994H13.215ZM1.79854 14.096H7.43917V1.89456H1.79854V14.096Z" fill="#586772"/>
<path d="M12.5199 11.6792C12.5201 12.188 12.3189 12.6762 11.9605 13.0374C11.602 13.3985 11.1153 13.6032 10.6064 13.6069C9.5515 13.6112 8.66881 12.7306 8.67484 11.6753C8.67541 11.1654 8.87851 10.6766 9.23946 10.3165C9.60041 9.95632 10.0896 9.75431 10.5995 9.75488C11.1094 9.75546 11.5982 9.95856 11.9584 10.3195C12.3185 10.6805 12.5205 11.1697 12.5199 11.6796V11.6792ZM12.0032 11.674C12.0036 11.4891 11.9672 11.3059 11.8963 11.1352C11.8254 10.9644 11.7213 10.8094 11.5901 10.6791C11.4589 10.5488 11.3031 10.4459 11.1318 10.3762C10.9605 10.3066 10.7771 10.2716 10.5922 10.2733C10.4074 10.2742 10.2245 10.3115 10.0541 10.3831C9.88366 10.4547 9.729 10.5591 9.59893 10.6904C9.46887 10.8218 9.36594 10.9775 9.29604 11.1486C9.22614 11.3197 9.19063 11.5029 9.19153 11.6878C9.19244 11.8726 9.22974 12.0555 9.30132 12.2259C9.37289 12.3963 9.47733 12.551 9.60867 12.6811C9.74002 12.8111 9.8957 12.914 10.0668 12.9839C10.2379 13.0538 10.4212 13.0894 10.606 13.0884C10.7909 13.0884 10.974 13.0517 11.1446 12.9803C11.3152 12.909 11.4699 12.8046 11.5999 12.673C11.7298 12.5414 11.8323 12.3854 11.9015 12.2139C11.9706 12.0424 12.0051 11.8589 12.0028 11.674H12.0032Z" fill="#586772"/>
<path d="M12.5199 7.31424C12.5211 7.82413 12.3197 8.31362 11.96 8.67501C11.7819 8.85396 11.5703 8.99607 11.3373 9.09324C11.1043 9.1904 10.8544 9.24072 10.6019 9.24131C10.3494 9.24191 10.0993 9.19277 9.86582 9.0967C9.63234 9.00063 9.42007 8.85951 9.24112 8.68141C8.87973 8.32171 8.67602 7.83318 8.67482 7.32328C8.67009 6.26836 9.54804 5.38567 10.6038 5.38868C11.1127 5.39175 11.5997 5.59591 11.9587 5.95662C12.3176 6.31734 12.5194 6.80536 12.5199 7.31424ZM10.6047 8.7188C10.9777 8.71766 11.3349 8.5684 11.5978 8.30387C11.8607 8.03933 12.0078 7.68118 12.0067 7.30821C12.0055 6.93525 11.8563 6.57801 11.5917 6.31508C11.3272 6.05216 10.969 5.9051 10.5961 5.90624C10.4114 5.9068 10.2286 5.94374 10.0582 6.01493C9.88785 6.08613 9.73314 6.19019 9.60295 6.32117C9.47277 6.45216 9.36965 6.6075 9.2995 6.77834C9.22936 6.94917 9.19354 7.13215 9.19411 7.31683C9.19467 7.5015 9.23161 7.68426 9.3028 7.85466C9.374 8.02506 9.47806 8.17977 9.60904 8.30996C9.74003 8.44014 9.89537 8.54325 10.0662 8.6134C10.237 8.68355 10.42 8.71937 10.6047 8.7188Z" fill="#586772"/>
<path d="M10.603 1.00977C11.1133 1.00937 11.6029 1.21172 11.9641 1.57231C12.3252 1.93289 12.5283 2.42218 12.5287 2.93253C12.5291 3.44288 12.3268 3.93248 11.9662 4.29364C11.6056 4.65479 11.1163 4.85791 10.606 4.85831C9.55105 4.86175 8.67094 3.98121 8.67482 2.92586C8.67957 2.41706 8.88462 1.93064 9.24554 1.57198C9.60645 1.21333 10.0942 1.01133 10.603 1.00977ZM12.0028 2.92758C12.0038 2.74255 11.9679 2.55917 11.8972 2.38816C11.8265 2.21715 11.7225 2.06194 11.5912 1.93158C11.4599 1.80122 11.3039 1.69833 11.1324 1.62893C10.9609 1.55952 10.7772 1.52498 10.5922 1.52733C10.3137 1.52801 10.0418 1.61129 9.81066 1.76663C9.57957 1.92197 9.39975 2.14238 9.29398 2.39997C9.18822 2.65755 9.16125 2.94072 9.21649 3.21364C9.27173 3.48655 9.40671 3.73694 9.60433 3.93312C9.80194 4.12929 10.0533 4.26241 10.3266 4.31565C10.6 4.36889 10.8829 4.33984 11.1397 4.23217C11.3965 4.12451 11.6156 3.94309 11.7692 3.71085C11.9229 3.47862 12.0041 3.20603 12.0028 2.92758Z" fill="#586772"/>
<path d="M5.60194 2.70215V3.76396H6.91823V6.43013H2.33081V3.77387H3.64495V2.70215H5.60194ZM4.37909 4.94118V5.91171H4.87383V4.93902L4.37909 4.94118ZM5.32637 4.94118V5.91343H5.81939V4.93859L5.32637 4.94118ZM3.91535 5.91687V4.94548H3.42707V5.91687H3.91535Z" fill="#586772"/>
<path d="M6.92038 7.16797V9.80356H2.33081V7.16797H6.92038ZM2.84622 9.28514H6.39723V8.78696H2.84622V9.28514Z" fill="#586772"/>
<path d="M6.92247 11.6259C6.92806 11.6823 6.93409 11.7141 6.93409 11.7456C6.93409 12.1701 6.93409 12.5943 6.93409 13.0313H2.33203V11.6147C3.04077 11.7206 3.14454 11.2702 3.12559 10.7178H6.11426C6.11426 10.952 6.13407 11.1828 6.2964 11.3779C6.45873 11.5729 6.6611 11.6539 6.92247 11.6259Z" fill="#586772"/>
<path d="M2.3199 2.70117H3.2323V3.20883C2.95457 3.20883 2.68202 3.21141 2.40946 3.20495C2.38936 3.19999 2.37088 3.18993 2.3558 3.17575C2.34072 3.16158 2.32954 3.14375 2.32334 3.124C2.31473 2.98622 2.3199 2.84757 2.3199 2.70117Z" fill="#586772"/>
<path d="M6.91569 3.19927H6.02051V2.7041H6.91569V3.19927Z" fill="#586772"/>
<path d="M11.5186 11.6774C11.5192 11.7986 11.4959 11.9188 11.45 12.0309C11.4041 12.1431 11.3365 12.2451 11.2511 12.3311C11.1657 12.4171 11.0642 12.4854 10.9523 12.5321C10.8405 12.5788 10.7205 12.603 10.5993 12.6032C10.3545 12.6039 10.1194 12.5074 9.94571 12.3348C9.77206 12.1622 9.67409 11.9276 9.67334 11.6828C9.6726 11.438 9.76915 11.2029 9.94175 11.0292C10.1144 10.8556 10.3489 10.7576 10.5937 10.7568C10.715 10.7563 10.8351 10.7798 10.9473 10.8258C11.0594 10.8718 11.1614 10.9395 11.2473 11.0251C11.3333 11.1106 11.4014 11.2123 11.448 11.3242C11.4946 11.4362 11.5185 11.5562 11.5186 11.6774Z" fill="#586772"/>
<path d="M10.6023 8.23399C10.3577 8.23366 10.1231 8.13666 9.9497 7.96415C9.7763 7.79163 9.6781 7.55758 9.67651 7.31298C9.67651 6.81178 10.1071 6.3855 10.6066 6.39067C10.8485 6.39415 11.0794 6.49224 11.2499 6.66391C11.4203 6.83558 11.5168 7.06718 11.5185 7.3091C11.5199 7.43022 11.4972 7.5504 11.4518 7.66266C11.4063 7.77493 11.339 7.87705 11.2538 7.9631C11.1685 8.04914 11.067 8.1174 10.9552 8.1639C10.8433 8.2104 10.7234 8.23423 10.6023 8.23399Z" fill="#586772"/>
<path d="M11.5186 2.93145C11.5189 3.05272 11.4953 3.17286 11.4491 3.285C11.4029 3.39714 11.3351 3.49909 11.2496 3.58502C11.164 3.67095 11.0623 3.73917 10.9504 3.7858C10.8384 3.83243 10.7184 3.85655 10.5971 3.85678C10.3559 3.85156 10.1263 3.75208 9.95759 3.57964C9.78884 3.4072 9.69434 3.17553 9.69434 2.93425C9.69434 2.69298 9.78884 2.4613 9.95759 2.28886C10.1263 2.11643 10.3559 2.01694 10.5971 2.01173C10.7182 2.0111 10.8381 2.03445 10.9501 2.08043C11.0621 2.12641 11.1638 2.1941 11.2495 2.27961C11.3352 2.36512 11.403 2.46674 11.4492 2.57862C11.4954 2.6905 11.519 2.81042 11.5186 2.93145Z" fill="#586772"/>
</svg>
