<svg width="16" height="17" viewBox="0 0 16 17" fill="none" xmlns="http://www.w3.org/2000/svg">
<path d="M7.33331 3.16699H2.66665C2.31302 3.16699 1.97389 3.30747 1.72384 3.55752C1.47379 3.80756 1.33331 4.1467 1.33331 4.50033V13.8337C1.33331 14.1873 1.47379 14.5264 1.72384 14.7765C1.97389 15.0265 2.31302 15.167 2.66665 15.167H12C12.3536 15.167 12.6927 15.0265 12.9428 14.7765C13.1928 14.5264 13.3333 14.1873 13.3333 13.8337V9.16699" fill="#C5CACE"/>
<path d="M12.3333 2.16714C12.5985 1.90193 12.9582 1.75293 13.3333 1.75293C13.7084 1.75293 14.0681 1.90193 14.3333 2.16714C14.5985 2.43236 14.7475 2.79207 14.7475 3.16714C14.7475 3.54222 14.5985 3.90193 14.3333 4.16714L7.99998 10.5005L5.33331 11.1671L5.99998 8.50048L12.3333 2.16714Z" fill="#C5CACE" stroke="#FFFEFE" stroke-linecap="round" stroke-linejoin="round"/>
</svg>
