<svg width="18" height="18" viewBox="0 0 18 18" fill="none" xmlns="http://www.w3.org/2000/svg">
<g opacity="0.8" clip-path="url(#clip0_1275_7326)">
<path d="M1 8.32805C1.05191 8.00904 1.09336 7.68793 1.15741 7.37143C1.37038 6.3187 1.79791 5.32112 2.41337 4.44088C2.44267 4.39901 2.47449 4.35715 2.48286 4.34668L4.73144 5.23883C4.47853 6.32394 4.33824 7.43226 4.31278 8.54617H1V8.32805Z" fill="#586772"/>
<path d="M1 9.49023H4.31153C4.33802 10.6041 4.4783 11.7123 4.73018 12.7976L2.51133 13.6767L2.5197 13.7228C2.49453 13.6988 2.47103 13.673 2.44937 13.6458C1.65473 12.5235 1.16538 11.214 1.02931 9.84567C1.02219 9.79992 1.0124 9.75463 1 9.71003V9.49023Z" fill="#586772"/>
<path d="M17.0761 8.54854H13.7646C13.7382 7.4347 13.5979 6.32649 13.3459 5.2412L15.6242 4.33691C15.8424 4.72375 16.1003 5.13486 16.3133 5.56817C16.7194 6.40126 16.9693 7.30173 17.0506 8.22493C17.0569 8.26021 17.066 8.29493 17.0778 8.32875L17.0761 8.54854Z" fill="#586772"/>
<path d="M17.0762 9.70989C17.0242 10.0281 16.9832 10.3487 16.9187 10.6644C16.7036 11.7273 16.2699 12.734 15.6452 13.6205C15.6218 13.6544 15.5954 13.6858 15.5925 13.6892L13.3447 12.7966C13.598 11.7116 13.7383 10.6032 13.7634 9.48926H17.0762V9.70989Z" fill="#586772"/>
<path d="M5.64695 5.46387L8.55825 5.79544V8.53551H5.25928C5.27895 7.50076 5.4089 6.47106 5.64695 5.46387Z" fill="#586772"/>
<path d="M12.8177 8.54109H9.51831V5.79516L12.4292 5.46484C12.6668 6.47369 12.797 7.50485 12.8177 8.54109Z" fill="#586772"/>
<path d="M8.55633 12.2709C8.06106 12.3098 7.57585 12.3345 7.09356 12.3894C6.61128 12.4442 6.14448 12.528 5.65466 12.6016C5.41247 11.5845 5.27983 10.5444 5.25903 9.49902H8.55633V12.2709Z" fill="#586772"/>
<path d="M9.51489 12.2427V9.50098H12.8164C12.7958 10.536 12.666 11.5661 12.4291 12.5739L9.51489 12.2427Z" fill="#586772"/>
<path d="M9.51831 13.2266C10.4109 13.258 11.2817 13.3417 12.1625 13.5267C12.1001 13.7017 12.047 13.8642 11.9846 14.0233C11.6551 14.8664 11.249 15.6648 10.603 16.317C10.2987 16.6243 9.95454 16.873 9.51831 16.9999V13.2266Z" fill="#586772"/>
<path d="M12.1608 4.5129C11.2899 4.68717 10.4057 4.78648 9.51782 4.80972V1C9.76399 1.13606 9.99885 1.23863 10.2036 1.38348C10.7713 1.78539 11.1606 2.34178 11.4918 2.94212C11.7638 3.44344 11.9878 3.96938 12.1608 4.5129Z" fill="#586772"/>
<path d="M8.55781 4.80273C8.0031 4.82785 6.34315 4.63527 5.90942 4.49419C6.03 4.18857 6.14052 3.88003 6.27239 3.58069C6.60732 2.81875 7.02136 2.10788 7.65729 1.55024C7.91853 1.32123 8.20698 1.13828 8.55781 1.03906V4.80273Z" fill="#586772"/>
<path d="M5.91211 13.4856L8.55422 13.1904V16.9972C8.25113 16.9083 7.97052 16.7557 7.73115 16.5497C7.16639 16.085 6.76825 15.4913 6.4551 14.8412C6.26754 14.4514 6.12018 14.0424 5.95565 13.6417C5.94225 13.6091 5.93639 13.5735 5.91211 13.4856Z" fill="#586772"/>
<path d="M14.9875 3.5958L13.0935 4.32257C12.7339 3.24664 12.2926 2.2603 11.6035 1.39746C12.9059 1.82532 14.0141 2.54917 14.9875 3.5958Z" fill="#586772"/>
<path d="M14.9598 14.4733C14.0157 15.4894 12.9084 16.2086 11.6077 16.6406C12.2876 15.7778 12.7347 14.7986 13.0801 13.752C13.7306 13.9247 14.3607 14.1665 14.9598 14.4733Z" fill="#586772"/>
<path d="M3.11719 3.56496C4.06125 2.54931 5.16774 1.82881 6.46933 1.39844C5.78818 2.26044 5.3419 3.2405 4.99567 4.28713C4.34591 4.11297 3.71628 3.87092 3.11719 3.56496Z" fill="#586772"/>
<path d="M3.0896 14.444L4.98316 13.7168C5.34236 14.7923 5.78446 15.7782 6.51123 16.6674C5.17113 16.2128 4.06338 15.4894 3.0896 14.444Z" fill="#586772"/>
</g>
<defs>
<clipPath id="clip0_1275_7326">
<rect width="18" height="18" fill="white"/>
</clipPath>
</defs>
</svg>
