<svg width="16" height="11" viewBox="0 0 16 11" fill="none" xmlns="http://www.w3.org/2000/svg">
<path d="M3.26789 1.53418H6.15881C6.1136 1.58572 6.08285 1.62008 6.05392 1.65716C5.76049 2.03604 5.45439 2.40589 5.17905 2.79743C4.9862 3.07281 4.88166 3.40033 4.87928 3.73651C4.87024 4.34688 5.28123 4.75697 5.88934 4.7312C6.31685 4.71406 6.72382 4.54324 7.03549 4.25013C7.3972 3.91872 7.791 3.64156 8.27659 3.51632C8.31812 3.50126 8.36312 3.49849 8.40618 3.50836C8.44925 3.51822 8.48855 3.54029 8.51939 3.57193C9.9231 4.8599 11.3273 6.14636 12.7319 7.43132C13.0172 7.6931 13.0344 8.09007 12.7825 8.35095C12.5307 8.61183 12.1532 8.61093 11.8742 8.34281C11.1577 7.65347 10.4429 6.96201 9.72974 6.26844C9.68905 6.2291 9.65243 6.16988 9.6045 6.15812C9.53758 6.14094 9.42365 6.13325 9.39788 6.17033C9.3608 6.22051 9.37482 6.31817 9.38748 6.39187C9.39381 6.42849 9.44716 6.45698 9.4779 6.48818C10.0919 7.08288 10.7045 7.67818 11.3158 8.27409C11.5419 8.49699 11.5898 8.78364 11.4537 9.04859C11.3176 9.31354 11.0373 9.4632 10.7457 9.3904C10.5895 9.3476 10.4471 9.26467 10.3329 9.14987C9.74783 8.5621 9.17633 7.95805 8.59987 7.35988C8.57636 7.33547 8.55239 7.31105 8.52933 7.28664C8.45157 7.20299 8.3625 7.15597 8.26529 7.24685C8.16085 7.34542 8.20877 7.43946 8.29377 7.52491C8.33356 7.5647 8.37244 7.60584 8.41133 7.64653C8.87295 8.12805 9.34 8.60415 9.79394 9.09335C10.148 9.47359 9.96168 10.06 9.46117 10.1635C9.21928 10.2137 9.02035 10.1256 8.84944 9.95285C8.30869 9.40728 7.76614 8.86261 7.22177 8.31885C7.18198 8.27906 7.14265 8.22074 7.09518 8.2117C7.06244 8.20409 7.02852 8.20305 6.99538 8.20863C6.96225 8.21422 6.93054 8.22633 6.90212 8.24425C6.8664 8.275 6.86323 8.36678 6.87725 8.4251C6.88946 8.47348 6.94416 8.51327 6.9835 8.55306C7.42267 8.99343 7.86199 9.43335 8.30146 9.87282C8.45157 10.0238 8.51487 10.2029 8.44795 10.4154C8.42173 10.5085 8.36953 10.5921 8.29746 10.6566C8.22539 10.721 8.13644 10.7636 8.04103 10.7793C7.8534 10.8191 7.69967 10.7378 7.55725 10.627C6.8569 10.0844 6.1457 9.55226 5.45846 8.99253C4.25625 8.00733 3.11959 6.95613 2.08828 5.79732C2.06568 5.7698 2.04919 5.73779 2.03992 5.70342C2.03064 5.66904 2.02878 5.63308 2.03448 5.59793C2.42783 4.27379 2.82616 2.9504 3.22946 1.62777C3.24069 1.59595 3.25352 1.56471 3.26789 1.53418Z" fill="#586772"/>
<path d="M5.17505 3.72803C5.24603 3.51643 5.28627 3.2872 5.39388 3.09505C5.93192 2.13789 6.65442 1.3661 7.67895 0.912611C7.88413 0.816809 8.10704 0.764873 8.33344 0.760124C8.55983 0.755375 8.78473 0.797917 8.99374 0.885031C10.0789 1.31862 11.164 1.7477 12.2455 2.18491C12.3183 2.21982 12.3755 2.28058 12.406 2.35536C12.9083 3.70904 13.4029 5.06543 13.9039 6.41911C13.9235 6.46189 13.9302 6.50951 13.923 6.55604C13.9159 6.60257 13.8952 6.64599 13.8636 6.68089C13.6792 6.91645 13.4658 7.11177 13.1782 7.2135C13.1356 7.23333 13.0879 7.23911 13.0418 7.23001C12.9957 7.2209 12.9537 7.19739 12.9219 7.16287C11.513 5.86615 10.0978 4.57577 8.69036 3.27725C8.63742 3.22369 8.57099 3.18541 8.49809 3.16647C8.4252 3.14753 8.34854 3.14863 8.27621 3.16965C7.68166 3.30031 7.20602 3.63173 6.76655 4.03276C6.51491 4.26606 6.18419 4.39531 5.84104 4.39447C5.43593 4.39537 5.20353 4.14489 5.17505 3.72803Z" fill="#586772"/>
<path d="M16 7.35897C15.6279 7.35897 15.2666 7.37208 14.9072 7.35445C14.6567 7.34179 14.5324 7.15822 14.451 6.93577C14.0335 5.79188 13.6141 4.64875 13.1927 3.50636C13.0158 3.02409 12.839 2.54257 12.6623 2.06181C12.5204 1.67478 12.6325 1.43606 13.0182 1.29318C13.9335 0.944712 14.909 0.781649 15.8878 0.813473C15.9209 0.813473 15.9539 0.81709 16 0.819803V7.35897Z" fill="#586772"/>
<path d="M0 6.54595V0C0.292981 0.0140161 0.579632 0.0144682 0.863117 0.0452131C1.48167 0.10727 2.08695 0.264348 2.65762 0.510908C3.00576 0.661919 3.10704 0.876229 2.99627 1.24155C2.50586 2.86591 2.01349 4.49011 1.51916 6.11416C1.41743 6.45055 1.27004 6.55906 0.91466 6.56042C0.632079 6.56042 0.349497 6.56042 0.0673675 6.56042C0.0445763 6.55731 0.0220551 6.55248 0 6.54595H0Z" fill="#586772"/>
</svg>
