<svg width="18" height="18" viewBox="0 0 18 18" fill="none" xmlns="http://www.w3.org/2000/svg">
<g opacity="0.8" clip-path="url(#clip0_1275_6947)">
<path d="M17.7979 10.6773C17.753 10.8791 17.7227 11.0856 17.6597 11.2816C17.4929 11.8007 17.1767 12.1956 16.629 12.3315C16.3957 12.3898 16.1409 12.3735 15.8959 12.3723C15.7466 12.3723 15.6877 12.423 15.6567 12.5694C15.4964 13.3323 15.2625 14.0702 14.8548 14.7421C14.4033 15.4851 13.8014 16.0451 12.93 16.2335C12.6285 16.2982 12.3123 16.3017 12.002 16.3163C11.718 16.3291 11.4328 16.3227 11.1487 16.3163C11.1001 16.3121 11.0514 16.3228 11.0089 16.3468C10.9664 16.3709 10.9322 16.4072 10.9108 16.451C10.7078 16.7899 10.4051 16.9812 10.0096 16.9911C9.60134 17.0016 9.18839 17.0057 8.77953 16.9812C8.22718 16.9491 7.79673 16.4668 7.78798 15.9045C7.77924 15.3644 8.1881 14.8605 8.72587 14.8132C9.17222 14.7788 9.62035 14.7738 10.0674 14.7981C10.4261 14.8144 10.7125 15.0045 10.8956 15.3166C10.9264 15.3769 10.9749 15.4264 11.0347 15.4583C11.0944 15.4902 11.1625 15.5031 11.2298 15.4951C11.5961 15.4857 11.963 15.4951 12.3293 15.484C13.0682 15.4641 13.6124 15.092 14.0207 14.5064C14.4424 13.9051 14.6588 13.2186 14.8268 12.5128C14.8519 12.4061 14.8017 12.3758 14.706 12.3746C14.5585 12.3762 14.4109 12.3702 14.2639 12.3565C14.0969 12.3365 13.9419 12.2595 13.825 12.1384C13.7081 12.0174 13.6366 11.8598 13.6223 11.6922C13.6142 11.6111 13.6113 11.5289 13.6107 11.4466C13.6107 10.1114 13.6107 8.77629 13.6107 7.4414C13.6107 6.85231 13.781 6.63534 14.3537 6.50818C14.4803 6.48019 14.4558 6.39153 14.4395 6.31746C14.3707 6.00833 14.3228 5.68987 14.212 5.39649C13.5704 3.69395 12.3596 2.60967 10.5719 2.26671C9.39895 2.04158 8.21435 2.0859 7.10149 2.61375C5.8014 3.23259 4.93934 4.23872 4.50481 5.60763C4.4354 5.82519 4.39924 6.05382 4.3485 6.27721C4.31642 6.4172 4.34208 6.49827 4.51414 6.52043C4.88335 6.56884 5.12832 6.84356 5.16331 7.21568C5.16798 7.26467 5.1709 7.31425 5.1709 7.36324C5.1709 8.74752 5.1709 10.1318 5.1709 11.5161C5.1709 12.0725 4.86235 12.3729 4.30184 12.3746C3.74132 12.3764 3.16273 12.3565 2.59463 12.3793C1.86498 12.4084 1.34237 11.9448 1.14756 11.3452C1.07057 11.1089 1 10.857 1 10.6103C1 9.82927 1.007 9.04887 1.05833 8.2673C1.08468 7.76479 1.27921 7.28574 1.61067 6.90713C1.71891 6.77558 1.85623 6.67096 2.0118 6.60152C2.16737 6.53209 2.33694 6.49974 2.50714 6.50702C2.65471 6.51168 2.80286 6.50702 2.95042 6.50702C3.07524 6.51052 3.13123 6.45861 3.16098 6.33204C3.28171 5.82285 3.36804 5.29967 3.5506 4.81556C4.03179 3.53239 4.8921 2.55018 6.06562 1.84093C7.19831 1.16027 8.43715 0.960211 9.73724 1.00629C10.625 1.03779 11.4719 1.21393 12.2698 1.60471C13.4796 2.18453 14.4568 3.15781 15.0414 4.36529C15.335 4.9592 15.525 5.59891 15.6031 6.2568C15.6317 6.4901 15.6579 6.5006 15.8947 6.50935C16.1444 6.51868 16.4045 6.50235 16.6413 6.56768C17.063 6.68433 17.2963 7.02087 17.4742 7.39649C17.6445 7.75694 17.7197 8.1419 17.7623 8.53501C17.7699 8.60442 17.7839 8.67266 17.795 8.74149L17.7979 10.6773Z" fill="#586772"/>
</g>
<defs>
<clipPath id="clip0_1275_6947">
<rect width="18" height="18" fill="white"/>
</clipPath>
</defs>
</svg>
