<svg width="16" height="16" viewBox="0 0 16 16" fill="none" xmlns="http://www.w3.org/2000/svg">
<g opacity="0.8" clip-path="url(#clip0_1275_7370)">
<path d="M12.202 15.9883C11.8449 15.9162 11.5143 15.7947 11.2467 15.5309C10.9622 15.2506 10.7906 14.8754 10.7648 14.4768C10.7389 14.0781 10.8605 13.6839 11.1064 13.3691C11.1354 13.3328 11.1635 13.296 11.1944 13.2564L9.52819 10.7964C9.40866 10.6193 9.29251 10.4402 9.16668 10.2684C9.15059 10.2493 9.13017 10.2342 9.10711 10.2246C9.08405 10.2149 9.05901 10.2108 9.03408 10.2128C8.41655 10.4388 7.81016 10.4064 7.20763 10.1416C7.17569 10.1832 7.14569 10.2181 7.11907 10.2554C6.58672 11.0079 6.05728 11.7614 5.52202 12.5106C5.45862 12.5991 5.46588 12.6529 5.52493 12.7385C5.99969 13.4286 6.0234 14.1468 5.6072 14.8679C5.41568 15.1883 5.13293 15.4442 4.79515 15.6029C4.45736 15.7616 4.0799 15.8159 3.71107 15.7589C2.89754 15.6214 2.3439 15.1539 2.13047 14.3515C1.92237 13.5704 2.14354 12.8886 2.76978 12.378C3.39601 11.8674 4.10017 11.8122 4.83432 12.1457C4.87691 12.165 4.91756 12.1883 4.9737 12.2173L6.6777 9.81254C5.85934 9.00143 5.66721 8.07031 6.09696 6.99641L4.97951 6.12723C4.45345 5.71829 3.92546 5.31177 3.4023 4.89896C3.32003 4.83411 3.26535 4.82733 3.17291 4.88686C2.67347 5.20772 2.06562 5.1903 1.56715 4.81136C1.08029 4.44307 0.904134 3.93105 1.04932 3.34256C1.18773 2.78021 1.56038 2.42063 2.13289 2.29916C2.67928 2.18301 3.1492 2.34755 3.50587 2.77053C3.86254 3.1935 3.93707 3.68181 3.73865 4.204C3.70768 4.28579 3.6859 4.34531 3.77737 4.41549C4.66446 5.09786 5.54719 5.78556 6.43912 6.47761C7.31507 5.61618 8.30524 5.46131 9.41398 6.0106L9.94246 5.26337C10.438 4.56793 10.9273 3.86959 11.4243 3.1756C11.4882 3.08607 11.5003 3.03041 11.4209 2.93846C11.1414 2.60376 10.9936 2.17855 11.0053 1.74263C11.017 1.30671 11.1874 0.890037 11.4844 0.570799C11.7815 0.25156 12.1849 0.0517001 12.6188 0.00872149C13.0528 -0.0342571 13.4875 0.0826 13.8414 0.337365C14.1953 0.59213 14.4441 0.967291 14.5411 1.39245C14.6381 1.81761 14.5765 2.26354 14.3681 2.64657C14.1596 3.02961 13.8186 3.3234 13.4089 3.47284C12.9992 3.62228 12.5491 3.61708 12.143 3.45823C12.066 3.42919 12.0118 3.40451 11.9494 3.49646C11.2796 4.45146 10.6066 5.40324 9.93036 6.35179C9.91874 6.36872 9.91003 6.38808 9.89697 6.41228C10.3146 6.85945 10.5261 7.39519 10.5479 8.01756C10.9757 8.10225 11.4025 8.16855 11.8187 8.27647C12.0723 8.3418 12.2098 8.30454 12.3656 8.06934C12.7097 7.54812 13.393 7.37196 13.9922 7.59313C14.2707 7.70089 14.508 7.89406 14.6701 8.14495C14.8321 8.39584 14.9106 8.69159 14.8943 8.98982C14.8497 9.73898 14.2719 10.31 13.5329 10.3357C13.1753 10.3485 12.8261 10.2255 12.5553 9.9915C12.2846 9.75748 12.1124 9.42973 12.0733 9.07403C12.067 9.02273 12.0138 8.9453 11.9702 8.93562C11.4863 8.83205 11.0023 8.73913 10.5184 8.64524C10.4977 8.6441 10.4769 8.64507 10.4564 8.64815C10.3188 9.12772 10.0351 9.55248 9.64483 9.86336L11.6692 12.8537C11.9726 12.8227 12.2446 12.7613 12.5137 12.7739C13.4705 12.8179 14.1843 13.8119 13.9399 14.7377C13.757 15.4312 13.3108 15.8431 12.6013 15.9631C12.5821 15.9692 12.5637 15.9776 12.5466 15.9883H12.202Z" fill="#586772"/>
</g>
<defs>
<clipPath id="clip0_1275_7370">
<rect width="16" height="16" fill="white"/>
</clipPath>
</defs>
</svg>
