<svg width="18" height="18" viewBox="0 0 18 18" fill="none" xmlns="http://www.w3.org/2000/svg">
<g opacity="0.8" clip-path="url(#clip0_1275_7318)">
<path d="M10.3199 2H10.6715C10.7254 2.01953 10.7785 2.03906 10.8328 2.0582C11.2781 2.20859 11.5531 2.57695 11.5531 3.03477C11.5531 7.34857 11.5531 11.6624 11.5531 15.9762C11.5531 16.3086 11.4231 16.5805 11.1531 16.7641C10.9996 16.8684 10.8129 16.923 10.641 16.9984H10.3199C10.0735 16.9324 9.87892 16.7867 9.6922 16.6176C8.68634 15.7066 7.67423 14.8027 6.66837 13.8922C6.62366 13.849 6.57068 13.8153 6.51261 13.7932C6.45454 13.771 6.39259 13.7609 6.33048 13.7633C5.25678 13.7682 4.18296 13.7689 3.109 13.7652C2.46368 13.7656 2.00236 13.3281 2.00158 12.7145C1.99871 10.5715 1.99975 8.42865 2.0047 6.28594C2.00564 6.13011 2.03987 5.97629 2.10509 5.83477C2.30275 5.41797 2.65197 5.23203 3.109 5.23242C4.19767 5.23242 5.28595 5.23242 6.37462 5.23242C6.42255 5.23424 6.47035 5.22639 6.51518 5.20934C6.56001 5.1923 6.60095 5.1664 6.63556 5.1332C7.64259 4.22656 8.65392 3.32148 9.66017 2.41133C9.85743 2.23437 10.0559 2.06562 10.3199 2Z" fill="#586772"/>
<path d="M14.8901 17C14.5682 16.8984 14.4671 16.666 14.4811 16.3469C14.4944 16.05 14.4811 15.7516 14.4862 15.4539C14.4882 15.3641 14.4546 15.3289 14.3733 15.302C13.9838 15.1743 13.6447 14.9266 13.4045 14.5943C13.1644 14.2621 13.0356 13.8623 13.0366 13.4524C13.0376 13.0425 13.1684 12.6434 13.4101 12.3123C13.6518 11.9812 13.9922 11.7352 14.3823 11.6094C14.4143 11.5988 14.4452 11.5855 14.4854 11.5703V11.3809C14.4854 8.4668 14.4843 5.55286 14.4819 2.63906C14.4807 2.32227 14.5776 2.09883 14.8901 2H15.0659C15.1831 2.08047 15.3292 2.14023 15.4081 2.24844C15.4741 2.33945 15.4811 2.48789 15.4815 2.61055C15.4849 5.54857 15.4849 8.48646 15.4815 11.4242C15.4815 11.5328 15.5136 11.5734 15.6167 11.6195C15.8487 11.7266 16.0932 11.8352 16.2835 11.9996C17.3354 12.9086 17.0893 14.8309 15.5999 15.302C15.5104 15.3301 15.4796 15.3715 15.4827 15.466C15.489 15.7684 15.485 16.0711 15.485 16.3738C15.485 16.7613 15.4198 16.8582 15.0667 16.9988L14.8901 17Z" fill="#586772"/>
</g>
<defs>
<clipPath id="clip0_1275_7318">
<rect width="18" height="18" fill="white"/>
</clipPath>
</defs>
</svg>
