<svg width="15" height="15" viewBox="0 0 15 15" fill="none" xmlns="http://www.w3.org/2000/svg">
<path d="M3.51562 0C3.76641 0.0582031 4.02344 0.0949219 4.2668 0.178125C6.49805 0.944922 7.18008 3.76016 5.54102 5.45547C4.79883 6.22422 4.03203 6.97031 3.27539 7.72656C3.26172 7.73984 3.24609 7.75117 3.22188 7.77148C3.18281 7.73438 3.14375 7.69961 3.10469 7.66289C2.41016 6.96562 1.71602 6.26484 1.01562 5.57188C0.459766 5.02461 0.117187 4.375 0.0246094 3.59883C0.0186228 3.57049 0.0103938 3.54266 0 3.51562L0 2.92969C0.009375 2.89062 0.0214844 2.85547 0.0273438 2.81758C0.215625 1.59141 0.880078 0.726172 2.01953 0.242188C2.30469 0.120312 2.625 0.078125 2.92969 0H3.51562ZM5.12695 3.23125C5.12865 2.8544 5.01848 2.48552 4.81038 2.17133C4.60228 1.85714 4.30562 1.61177 3.95797 1.46631C3.61033 1.32084 3.22733 1.28182 2.85748 1.35418C2.48764 1.42654 2.14759 1.60704 1.8804 1.8728C1.61322 2.13856 1.43091 2.47764 1.35657 2.84709C1.28223 3.21654 1.31921 3.59975 1.46281 3.94817C1.60642 4.29659 1.8502 4.59456 2.16327 4.80433C2.47634 5.0141 2.84463 5.12625 3.22148 5.12656C3.72487 5.12585 4.20759 4.92626 4.56449 4.57127C4.92139 4.21627 5.12355 3.73463 5.12695 3.23125Z" fill="#586772"/>
<path d="M12.627 14.9996C12.5981 14.9568 12.5664 14.9159 12.5321 14.8773C12.0157 14.3586 11.4907 13.848 10.9821 13.3218C10.6955 13.0296 10.4906 12.6673 10.3878 12.2711C10.285 11.8749 10.2879 11.4587 10.3962 11.064C10.5045 10.6693 10.7144 10.3099 11.005 10.0217C11.2957 9.73345 11.6568 9.52649 12.0524 9.42145C13.3899 9.05817 14.7723 9.96247 14.9719 11.3304C14.979 11.3627 14.9884 11.3944 15 11.4254V11.9234C14.9898 11.9499 14.9817 11.9772 14.9758 12.005C14.9012 12.5589 14.6454 13.0168 14.2508 13.4062C13.7161 13.9343 13.1875 14.4683 12.6563 14.9996H12.627Z" fill="#586772"/>
<path d="M5.36134 14.9999C5.10704 14.9358 4.84415 14.8952 4.60001 14.8046C3.42306 14.3635 2.6672 13.1784 2.79845 11.9178C2.94025 10.5557 3.92423 9.53503 5.24376 9.37566C5.65314 9.32644 6.07189 9.35105 6.48634 9.3448C6.7254 9.34128 6.96447 9.3448 7.20392 9.3448C7.72228 9.34128 8.1129 8.96746 8.11447 8.47449C8.11603 7.98152 7.72931 7.603 7.20978 7.59832C6.69728 7.59324 6.18478 7.59832 5.67228 7.59832C5.63322 7.59832 5.59415 7.5948 5.54689 7.59285V6.73699C5.55743 6.72878 5.56134 6.72292 5.56486 6.72292C6.19884 6.72683 6.83556 6.69597 7.46603 6.74441C8.32072 6.81003 8.98634 7.58425 8.99337 8.44753C9.00079 9.31863 8.35861 10.0999 7.509 10.1901C7.01642 10.2425 6.51486 10.2124 6.01759 10.2229C5.76954 10.2284 5.51759 10.219 5.2754 10.2557C4.34142 10.3968 3.6504 11.2448 3.66408 12.2136C3.67697 13.1456 4.40001 13.9694 5.31798 14.0936C5.43878 14.1101 5.56052 14.1186 5.68243 14.119C7.22983 14.1206 8.77697 14.1206 10.3238 14.119H10.5192V14.9999H5.36134Z" fill="#586772"/>
<path d="M4.24799 3.21953C4.24854 3.42229 4.18893 3.62065 4.07672 3.78953C3.9645 3.95841 3.80473 4.09021 3.61759 4.16827C3.43046 4.24632 3.22438 4.26712 3.02543 4.22804C2.82647 4.18896 2.64357 4.09175 2.49987 3.9487C2.35617 3.80566 2.25813 3.62321 2.21813 3.42444C2.17814 3.22566 2.198 3.01949 2.2752 2.832C2.3524 2.64451 2.48347 2.48413 2.65183 2.37115C2.82019 2.25817 3.01828 2.19765 3.22104 2.19727C3.49266 2.19706 3.75328 2.30454 3.94578 2.49617C4.13828 2.68779 4.24696 2.94792 4.24799 3.21953Z" fill="#586772"/>
</svg>
