<svg width="18" height="18" viewBox="0 0 18 18" fill="none" xmlns="http://www.w3.org/2000/svg">
<g opacity="0.8" clip-path="url(#clip0_816_2732)">
<path d="M8.53125 1H9.5C9.53948 1.01134 9.57972 1.01983 9.62042 1.02542C10.8221 1.11625 11.9517 1.45208 12.9871 2.06708C15.1146 3.3325 16.4192 5.18333 16.8775 7.62083C16.9321 7.9125 16.9608 8.20667 17 8.49958V9.46833C16.9913 9.51833 16.9804 9.56833 16.9733 9.61875C16.9317 9.9325 16.9025 10.2496 16.8425 10.5604C16.2208 13.7804 13.6138 16.3263 10.3775 16.8771C10.0858 16.9262 9.79417 16.9604 9.5 16.9996H8.5C8.46637 16.988 8.43179 16.9794 8.39667 16.9738C7.72086 16.9323 7.05443 16.7947 6.4175 16.565C3.51194 15.4892 1.74778 13.4319 1.125 10.3933C1.06625 10.0992 1.04167 9.79792 1 9.5V8.5C1.04167 8.20833 1.0725 7.91333 1.1225 7.62208C1.67667 4.3825 4.21792 1.77958 7.43708 1.1575C7.79833 1.08792 8.16667 1.05167 8.53125 1ZM5.67042 5.46125C3.995 7.24875 3.97333 9.8025 5.26208 11.555C5.88525 12.4036 6.77302 13.0207 7.78554 13.3092C8.79805 13.5976 9.87777 13.5411 10.8546 13.1483C12.8583 12.3375 13.9892 10.345 13.6821 8.1225C13.5387 7.08458 13.0679 6.19708 12.3217 5.46042C11.818 4.95912 11.2046 4.58183 10.53 4.35833C10.53 4.82792 10.5275 5.275 10.5346 5.72167C10.5346 5.76333 10.5917 5.81292 10.6346 5.8375C11.8783 6.55875 12.48 7.64125 12.4062 9.07167C12.3083 10.9838 10.5575 12.4521 8.66042 12.2433C6.25292 11.9775 4.875 9.44583 5.95833 7.28042C6.12616 6.9396 6.35541 6.63266 6.63458 6.375L7.3775 7.14875V4.69542H4.8925L5.67042 5.46125Z" fill="#586772"/>
</g>
<defs>
<clipPath id="clip0_816_2732">
<rect width="18" height="18" fill="white"/>
</clipPath>
</defs>
</svg>
