<svg width="18" height="18" viewBox="0 0 18 18" fill="none" xmlns="http://www.w3.org/2000/svg">
<g clip-path="url(#clip0_765_4023)">
<path d="M1 2C1 1.44772 1.44772 1 2 1H16C16.5523 1 17 1.44772 17 2V16C17 16.5523 16.5523 17 16 17H2C1.44772 17 1 16.5523 1 16V2Z" fill="#79858E"/>
<path d="M5.8 5.5H12.8V7.6L15.6 4.8L12.8 2V4.1H4.4V8.3H5.8V5.5ZM12.8 12.5H5.8V10.4L3 13.2L5.8 16V13.9H14.2V9.7H12.8V12.5Z" fill="white"/>
</g>
<defs>
<clipPath id="clip0_765_4023">
<rect width="18" height="18" fill="white"/>
</clipPath>
</defs>
</svg>
