<svg width="17" height="17" viewBox="0 0 17 17" fill="none" xmlns="http://www.w3.org/2000/svg">
<path d="M16.0149 7.51506V8.48581C15.9958 8.62994 15.9784 8.77408 15.9567 8.91995C15.9435 9.02637 15.8923 9.12443 15.8125 9.19608C15.7328 9.26772 15.6298 9.30812 15.5226 9.30982C15.4184 9.30982 15.3142 9.3185 15.2108 9.32718C14.7492 9.37381 14.3244 9.60043 14.0286 9.95797C13.7329 10.3155 13.5898 10.7752 13.6305 11.2374C13.6725 11.6721 13.8691 12.0772 14.1845 12.3792C14.3999 12.5954 14.4146 12.8394 14.2045 13.0574C13.8103 13.4655 13.4013 13.8588 12.995 14.2539C12.9288 14.3227 12.8414 14.3671 12.7469 14.38C12.6523 14.393 12.5562 14.3736 12.474 14.3251C12.3786 14.2636 12.2911 14.1907 12.2135 14.108C11.5432 13.5106 10.4604 13.5288 9.82049 14.1514C9.64792 14.3184 9.5106 14.5184 9.41665 14.7394C9.32269 14.9604 9.274 15.1981 9.27347 15.4382C9.26218 15.796 9.10849 15.9384 8.75249 15.9687C8.66045 15.9766 8.56841 15.9922 8.47637 16.0043H7.49868C7.42323 15.9891 7.34699 15.9781 7.27032 15.9713C6.84746 15.9583 6.65123 15.7864 6.6712 15.3549C6.6712 15.3236 6.6712 15.2923 6.6712 15.2611C6.64559 14.8162 6.44996 14.3982 6.12479 14.0936C5.79961 13.7889 5.36977 13.6209 4.92419 13.6244C4.68108 13.6234 4.44023 13.6711 4.21582 13.7646C3.9914 13.8581 3.78794 13.9955 3.61742 14.1688C3.40816 14.3737 3.18327 14.3945 2.97315 14.2287C2.50937 13.8552 2.0896 13.4302 1.72194 12.9618C1.65367 12.8778 1.61853 12.7717 1.62317 12.6636C1.62781 12.5554 1.6719 12.4527 1.74712 12.3749C1.79487 12.3193 1.8461 12.2672 1.89473 12.2134C2.12009 11.9613 2.26841 11.6499 2.32207 11.3161C2.37573 10.9822 2.33249 10.64 2.19747 10.33C2.06245 10.02 1.84132 9.75531 1.56034 9.56723C1.27936 9.37916 0.950312 9.27566 0.612262 9.26901C0.21198 9.25425 0.040058 9.07885 0.0166141 8.68291C0.0166141 8.60476 -0.00161997 8.52749 0.000116609 8.44934C0.0105361 7.99609 0.0122727 7.54284 0.0417946 7.09047C0.060897 6.80393 0.209375 6.68584 0.488964 6.66153C0.645261 6.65035 0.800886 6.63123 0.955237 6.60422C1.35654 6.53075 1.71899 6.31787 1.97858 6.00314C2.23818 5.68841 2.37824 5.29209 2.37402 4.88414C2.37481 4.64371 2.32637 4.40566 2.2317 4.18466C2.13703 3.96366 1.99812 3.76437 1.82353 3.59907C1.61861 3.39328 1.59951 3.16058 1.76362 2.95479C2.13818 2.48599 2.56626 2.06258 3.03914 1.69317C3.12307 1.62497 3.22888 1.5895 3.33696 1.59333C3.44504 1.59716 3.54807 1.64004 3.62697 1.71401C3.68601 1.76524 3.73985 1.82341 3.80063 1.87204C4.28774 2.26277 4.84258 2.40082 5.4443 2.2428C5.80344 2.14921 6.12227 1.94107 6.35245 1.64993C6.58263 1.3588 6.71161 1.00055 6.71982 0.629511C6.73458 0.139795 6.94644 0 7.34673 0C7.79911 0 8.24888 0 8.7056 0C9.11804 0.00434146 9.35074 0.140663 9.32904 0.63993C9.32904 0.665979 9.32904 0.692028 9.32904 0.718077C9.35647 1.15974 9.55147 1.57426 9.87422 1.877C10.197 2.17973 10.6231 2.34784 11.0656 2.34699C11.3114 2.34868 11.5549 2.30089 11.7818 2.20647C12.0087 2.11204 12.2143 1.97291 12.3863 1.79736C12.5921 1.59592 12.8248 1.58029 13.0323 1.74787C13.4913 2.1186 13.9075 2.53943 14.2731 3.00255C14.344 3.08796 14.3806 3.19668 14.3758 3.30757C14.371 3.41846 14.3251 3.5236 14.247 3.60254C14.2028 3.65377 14.155 3.70239 14.109 3.75189C13.2893 4.64709 13.6375 6.13708 14.7732 6.56168C14.9749 6.63036 15.1843 6.6741 15.3967 6.69192C15.7023 6.72665 15.981 6.83779 15.9793 7.28236C15.9855 7.36069 15.9974 7.43846 16.0149 7.51506ZM11.953 10.3413C12.9515 8.80708 12.9194 6.309 11.221 4.68269C9.37766 2.91572 6.63907 2.91051 4.78527 4.67662C3.94836 5.48099 3.44725 6.57254 3.38281 7.73153C3.31837 8.89053 3.69538 10.0309 4.43795 10.9231C6.02258 12.8394 8.68129 13.0574 10.4726 11.8782C10.4404 11.8435 10.4109 11.8079 10.3788 11.7758C9.771 11.1627 9.15277 10.5515 8.5441 9.93499C8.51562 9.90006 8.47595 9.87606 8.4318 9.86704C8.38765 9.85802 8.34174 9.86454 8.30185 9.88549C7.61926 10.1412 6.86344 10.1178 6.19798 9.82037C5.59566 9.55535 5.10446 9.08882 4.80879 8.50095C4.51311 7.91308 4.43142 7.24058 4.57775 6.59901C4.61161 6.44967 4.65155 6.31421 4.81479 6.26298C4.97803 6.21175 5.09004 6.30553 5.19771 6.41233C5.58844 6.80393 5.97917 7.19379 6.3725 7.58452C6.41315 7.63185 6.46546 7.66773 6.52426 7.6886C6.58305 7.70947 6.64628 7.7146 6.70766 7.70348C6.98031 7.65833 7.25324 7.61636 7.52646 7.57758C7.56826 7.57519 7.60763 7.55716 7.63675 7.52708C7.66587 7.497 7.6826 7.45706 7.68362 7.41521C7.72357 7.1414 7.76553 6.86847 7.80953 6.59641C7.82084 6.53515 7.8158 6.47199 7.79492 6.41329C7.77403 6.3546 7.73804 6.30246 7.69057 6.26212C7.28189 5.85981 6.87669 5.45316 6.47496 5.04217C6.27612 4.83899 6.34211 4.55766 6.60607 4.49167C7.05138 4.37166 7.51952 4.3642 7.96842 4.46996C9.65725 4.88674 10.5672 6.57644 9.98373 8.21403C9.96597 8.25038 9.96146 8.29178 9.97098 8.33109C9.98049 8.3704 10.0034 8.40516 10.0358 8.42937C10.47 8.85396 10.8928 9.28377 11.3209 9.71183L11.953 10.3413Z" fill="#586772"/>
</svg>
