<svg width="16" height="17" viewBox="0 0 16 17" fill="none" xmlns="http://www.w3.org/2000/svg">
<path d="M2 4.5H3.33333H14" stroke="#C5CACE" stroke-width="2" stroke-linecap="round" stroke-linejoin="round"/>
<path fill-rule="evenodd" clip-rule="evenodd" d="M12.6666 4.49967V13.833C12.6666 14.1866 12.5262 14.5258 12.2761 14.7758C12.0261 15.0259 11.6869 15.1663 11.3333 15.1663H4.66665C4.31302 15.1663 3.97389 15.0259 3.72384 14.7758C3.47379 14.5258 3.33331 14.1866 3.33331 13.833V4.49967H5.33331V3.16634C5.33331 2.81272 5.47379 2.47358 5.72384 2.22353C5.97389 1.97348 6.31302 1.83301 6.66665 1.83301H9.33331C9.68693 1.83301 10.0261 1.97348 10.2761 2.22353C10.5262 2.47358 10.6666 2.81272 10.6666 3.16634V4.49967H12.6666ZM6.66665 6.83301C7.21893 6.83301 7.66665 7.28072 7.66665 7.83301V11.833C7.66665 12.3853 7.21893 12.833 6.66665 12.833C6.11436 12.833 5.66665 12.3853 5.66665 11.833V7.83301C5.66665 7.28072 6.11436 6.83301 6.66665 6.83301ZM10.3333 7.83301C10.3333 7.28072 9.8856 6.83301 9.33331 6.83301C8.78103 6.83301 8.33331 7.28072 8.33331 7.83301V11.833C8.33331 12.3853 8.78103 12.833 9.33331 12.833C9.8856 12.833 10.3333 12.3853 10.3333 11.833V7.83301Z" fill="#C5CACE"/>
</svg>
