<svg width="18" height="18" viewBox="0 0 18 18" fill="none" xmlns="http://www.w3.org/2000/svg">
<g opacity="0.8" clip-path="url(#clip0_1275_7308)">
<path d="M0.000925914 7.33675C0.142591 6.93861 0.427772 6.7812 0.845359 6.78861C1.66248 6.8025 2.4796 6.79602 3.29625 6.78861C3.38888 6.7844 3.47707 6.74768 3.54532 6.68491C4.65642 5.58261 5.76196 4.47383 6.87213 3.36968C6.96484 3.26944 7.07576 3.18775 7.19898 3.12894C7.60175 2.96227 8.06239 3.26042 8.09758 3.69652C8.10174 3.75301 8.10267 3.81041 8.10267 3.86782C8.10267 7.62147 8.1036 11.3751 8.10545 15.1288C8.10545 15.4658 7.9948 15.7237 7.68138 15.8616C7.57637 15.9099 7.45989 15.9276 7.34527 15.9128C7.23066 15.898 7.12252 15.8512 7.03324 15.7778C6.97085 15.728 6.91192 15.6741 6.85685 15.6163C5.75779 14.5175 4.65951 13.418 3.56199 12.3177C3.52622 12.2785 3.48225 12.2476 3.4332 12.2273C3.38415 12.2069 3.33123 12.1977 3.2782 12.2001C2.4671 12.2052 1.65553 12.1932 0.844433 12.2066C0.427772 12.2135 0.141665 12.0571 0 11.6585L0.000925914 7.33675Z" fill="#586772"/>
<path d="M17.5827 9.31241C17.4692 12.4605 16.2058 14.7679 13.7179 16.3882C13.3938 16.5989 13.0378 16.7618 12.6874 16.9267C12.5297 17.0072 12.3465 17.0221 12.1779 16.968C12.0093 16.914 11.8689 16.7954 11.7874 16.6382C11.6193 16.3345 11.7096 15.9952 12.0225 15.7697C12.0922 15.7204 12.1661 15.6773 12.2434 15.641C14.3651 14.6364 15.6549 12.9744 16.1044 10.6791C16.6336 7.97863 15.3031 5.09071 12.9216 3.71063C12.6804 3.57175 12.4272 3.45045 12.1776 3.32545C11.8466 3.15971 11.6656 2.87361 11.7147 2.58009C11.7869 2.12547 12.242 1.87501 12.6776 2.06297C13.4105 2.37263 14.0909 2.79432 14.6943 3.31295C16.0498 4.49071 16.9628 5.94532 17.3553 7.70317C17.4845 8.28742 17.5253 8.89575 17.5827 9.31241Z" fill="#586772"/>
<path d="M14.8756 9.56509C14.7428 11.7623 13.7354 13.4447 11.6618 14.4335C11.2132 14.6474 10.7525 14.4312 10.6544 13.9771C10.6261 13.8509 10.637 13.7191 10.6856 13.5993C10.7343 13.4795 10.8183 13.3774 10.9266 13.3067C11.0933 13.1974 11.2724 13.1072 11.4451 13.0072C12.6743 12.2924 13.3844 11.2266 13.478 9.81277C13.5928 8.08733 12.8544 6.79291 11.3484 5.93829C11.2289 5.8707 11.1062 5.80959 10.9905 5.73644C10.6576 5.52579 10.5461 5.17071 10.709 4.85358C10.8798 4.5221 11.2572 4.39062 11.6187 4.5471C12.2419 4.8092 12.8062 5.19345 13.2784 5.67718C14.1006 6.52624 14.621 7.52901 14.7965 8.70214C14.8391 8.96417 14.8474 9.23361 14.8756 9.56509Z" fill="#586772"/>
<path d="M12.1669 9.46063C12.0924 10.6213 11.6035 11.474 10.5535 11.9606C10.4054 12.0329 10.236 12.0484 10.0773 12.0043C9.91857 11.9602 9.78147 11.8595 9.69193 11.7212C9.51369 11.4537 9.55813 11.1074 9.81878 10.8736C9.96056 10.7495 10.1133 10.6385 10.2753 10.5421C10.9859 10.1106 10.9877 8.88795 10.2803 8.4537C10.1093 8.35055 9.94845 8.23151 9.7998 8.09815C9.68496 7.9978 9.61045 7.85919 9.59011 7.70806C9.56976 7.55693 9.60495 7.40354 9.68915 7.2764C9.77219 7.1444 9.89877 7.04559 10.047 6.99706C10.1952 6.94853 10.3557 6.95334 10.5007 7.01066C11.334 7.34631 11.8354 7.97917 12.0674 8.8324C12.1252 9.04536 12.1382 9.27035 12.1669 9.46063Z" fill="#586772"/>
</g>
<defs>
<clipPath id="clip0_1275_7308">
<rect width="18" height="18" fill="white"/>
</clipPath>
</defs>
</svg>
